<svg width="24" height="24" viewBox="0 0 24 24" fill="none" xmlns="http://www.w3.org/2000/svg">
<g id="Group 55">
<g id="Emoji">
<path id="Vector" d="M12.4016 23.6534C18.7529 23.6534 23.9016 20.793 23.9016 17.2645C23.9016 13.736 18.7529 10.8756 12.4016 10.8756C6.05034 10.8756 0.901611 13.736 0.901611 17.2645C0.901611 20.793 6.05034 23.6534 12.4016 23.6534Z" fill="#A7A7A7"/>
<path id="Vector_2" d="M12.4016 22.3756C18.7529 22.3756 23.9016 19.5152 23.9016 15.9867C23.9016 12.4582 18.7529 9.5978 12.4016 9.5978C6.05034 9.5978 0.901611 12.4582 0.901611 15.9867C0.901611 19.5152 6.05034 22.3756 12.4016 22.3756Z" fill="#D4D4D4"/>
<path id="Vector_3" d="M12.4016 20.4589C2.84514 20.4589 1.54053 10.8756 1.54053 8.32002H23.2627C23.2627 9.5978 22.0118 20.4589 12.4016 20.4589Z" fill="#F8F8F8"/>
<path id="Vector_4" d="M22.8698 6.8148C24.43 0.347331 16.6209 1.89153 15.0728 3.10989C14.2167 3.01533 13.3248 2.96039 12.4016 2.96039C6.40311 2.96039 1.54053 5.02336 1.54053 8.35516C1.54053 11.6876 6.40311 14.3895 12.4016 14.3895C18.4002 14.3895 23.2627 11.6876 23.2627 8.3558C23.2627 7.80444 23.1184 7.29269 22.8698 6.8148V6.8148ZM21.2707 5.09491C20.4037 4.49564 19.2889 4.01264 17.9989 3.65741C19.1969 3.28941 20.9065 3.46 21.2707 5.09491Z" fill="#D4D4D4"/>
<path id="Vector_5" d="M12.4017 13.4311C17.6944 13.4311 21.985 11.4289 21.985 8.95891C21.985 6.48897 17.6944 4.48669 12.4017 4.48669C7.10896 4.48669 2.81836 6.48897 2.81836 8.95891C2.81836 11.4289 7.10896 13.4311 12.4017 13.4311Z" fill="#575757"/>
<path id="Vector_6" d="M13.6794 11.5145C13.5158 11.5145 13.3523 11.4519 13.2277 11.3273C11.7346 9.83419 11.7097 8.2063 13.1478 6.04878C13.62 5.34025 13.7228 4.61383 13.4532 3.89125C13.1587 3.10158 12.5345 2.61602 12.3473 2.56427C11.994 2.56427 11.7353 2.28125 11.7353 1.92794C11.7353 1.57528 12.0489 1.29225 12.4016 1.29225C13.0386 1.29225 13.9318 2.02889 14.4352 2.96933C15.0958 4.2043 15.0166 5.5498 14.2109 6.7573C12.9581 8.63691 13.2328 9.52497 14.1311 10.4232C14.3809 10.6731 14.3809 11.0768 14.1311 11.3266C14.0065 11.4519 13.8429 11.5145 13.6794 11.5145V11.5145ZM9.84606 10.2367C9.6825 10.2367 9.51895 10.1741 9.39436 10.0495C7.90128 8.55641 7.87636 6.92853 9.3145 4.771C9.77897 4.07397 9.88503 3.44019 9.63011 2.88819C9.34645 2.27422 8.71586 1.94966 8.55422 1.9305C8.20156 1.9305 7.92236 1.64491 7.92236 1.29161C7.92236 0.938942 8.21497 0.652719 8.56828 0.652719C9.20525 0.652719 10.2198 1.275 10.7149 2.20075C11.0223 2.77511 11.3871 3.96472 10.3776 5.47889C9.12475 7.3585 9.39947 8.24655 10.2978 9.14483C10.5476 9.39464 10.5476 9.79841 10.2978 10.0482C10.1732 10.1741 10.0096 10.2367 9.84606 10.2367V10.2367Z" fill="#A9A9A9"/>
</g>
<g id="Emoji_2">
<path id="Vector_7" d="M12.4016 23.6534C18.7529 23.6534 23.9016 20.793 23.9016 17.2645C23.9016 13.736 18.7529 10.8756 12.4016 10.8756C6.05034 10.8756 0.901611 13.736 0.901611 17.2645C0.901611 20.793 6.05034 23.6534 12.4016 23.6534Z" fill="#99AAB5"/>
<path id="Vector_8" d="M12.4016 22.3756C18.7529 22.3756 23.9016 19.5152 23.9016 15.9867C23.9016 12.4582 18.7529 9.5978 12.4016 9.5978C6.05034 9.5978 0.901611 12.4582 0.901611 15.9867C0.901611 19.5152 6.05034 22.3756 12.4016 22.3756Z" fill="#CCD6DD"/>
<path id="Vector_9" d="M12.4016 20.4589C2.84514 20.4589 1.54053 10.8756 1.54053 8.32002H23.2627C23.2627 9.5978 22.0118 20.4589 12.4016 20.4589Z" fill="#F5F8FA"/>
<path id="Vector_10" d="M22.8698 6.8148C24.43 0.347331 16.6209 1.89153 15.0728 3.10989C14.2167 3.01533 13.3248 2.96039 12.4016 2.96039C6.40311 2.96039 1.54053 5.02336 1.54053 8.35516C1.54053 11.6876 6.40311 14.3895 12.4016 14.3895C18.4002 14.3895 23.2627 11.6876 23.2627 8.3558C23.2627 7.80444 23.1184 7.29269 22.8698 6.8148V6.8148ZM21.2707 5.09491C20.4037 4.49564 19.2889 4.01264 17.9989 3.65741C19.1969 3.28941 20.9065 3.46 21.2707 5.09491Z" fill="#CCD6DD"/>
<path id="Vector_11" d="M12.4017 13.4311C17.6944 13.4311 21.985 11.4289 21.985 8.95891C21.985 6.48897 17.6944 4.48669 12.4017 4.48669C7.10896 4.48669 2.81836 6.48897 2.81836 8.95891C2.81836 11.4289 7.10896 13.4311 12.4017 13.4311Z" fill="#8A4B38"/>
<path id="Vector_12" d="M13.6794 11.5145C13.5158 11.5145 13.3523 11.4519 13.2277 11.3273C11.7346 9.83419 11.7097 8.2063 13.1478 6.04878C13.62 5.34025 13.7228 4.61383 13.4532 3.89125C13.1587 3.10158 12.5345 2.61602 12.3473 2.56427C11.994 2.56427 11.7353 2.28125 11.7353 1.92794C11.7353 1.57528 12.0489 1.29225 12.4016 1.29225C13.0386 1.29225 13.9318 2.02889 14.4352 2.96933C15.0958 4.2043 15.0166 5.5498 14.2109 6.7573C12.9581 8.63691 13.2328 9.52497 14.1311 10.4232C14.3809 10.6731 14.3809 11.0768 14.1311 11.3266C14.0065 11.4519 13.8429 11.5145 13.6794 11.5145V11.5145ZM9.84606 10.2367C9.6825 10.2367 9.51895 10.1741 9.39436 10.0495C7.90128 8.55641 7.87636 6.92853 9.3145 4.771C9.77897 4.07397 9.88503 3.44019 9.63011 2.88819C9.34645 2.27422 8.71586 1.94966 8.55422 1.9305C8.20156 1.9305 7.92236 1.64491 7.92236 1.29161C7.92236 0.938942 8.21497 0.652719 8.56828 0.652719C9.20525 0.652719 10.2198 1.275 10.7149 2.20075C11.0223 2.77511 11.3871 3.96472 10.3776 5.47889C9.12475 7.3585 9.39947 8.24655 10.2978 9.14483C10.5476 9.39464 10.5476 9.79841 10.2978 10.0482C10.1732 10.1741 10.0096 10.2367 9.84606 10.2367V10.2367Z" fill="#D99E82"/>
</g>
</g>
</svg>
