<svg width="23" height="24" viewBox="0 0 23 24" fill="none" xmlns="http://www.w3.org/2000/svg">
<g id="Group 40">
<g id="Cake">
<path id="Vector" d="M11.5 23.6453C17.8513 23.6453 23 20.7849 23 17.2564C23 13.728 17.8513 10.8675 11.5 10.8675C5.14873 10.8675 0 13.728 0 17.2564C0 20.7849 5.14873 23.6453 11.5 23.6453Z" fill="#969696"/>
<path id="Vector_2" d="M11.5 22.5273C17.8513 22.5273 23 19.6669 23 16.1384C23 12.6099 17.8513 9.74949 11.5 9.74949C5.14873 9.74949 0 12.6099 0 16.1384C0 19.6669 5.14873 22.5273 11.5 22.5273Z" fill="#D4D4D4"/>
<path id="Vector_3" d="M20.8757 15.7774C20.8757 18.4991 16.6782 20.7045 11.5 20.7045C6.32177 20.7045 2.12427 18.4991 2.12427 15.7774C2.12427 13.057 6.32177 10.8509 11.5 10.8509C16.6775 10.8509 20.8757 13.057 20.8757 15.7774Z" fill="#555555"/>
<path id="Vector_4" d="M20.5934 15.0478C20.5934 21.3434 2.40674 21.3434 2.40674 15.0478V9.45177H20.5934V15.0478Z" fill="#BCBCBC"/>
<path id="Vector_5" d="M11.4897 12.2514C5.74992 12.2514 2.40597 9.61149 2.40597 9.61149C2.40597 9.61149 2.39575 10.2018 2.39575 10.688C2.39575 10.688 2.4162 13.8173 4.03897 13.8173C5.61 13.8173 5.49564 15.3174 6.48847 15.4727C7.473 15.6266 7.58225 14.8734 8.80445 14.8734C10.0266 14.8734 10.2419 16.2189 11.4897 16.2189C12.9521 16.2189 13.0722 14.8734 14.2938 14.8734C15.5153 14.8734 15.6559 15.6554 16.4571 15.4388C17.4199 15.1781 16.9771 13.8179 18.9404 13.8179C20.5632 13.8179 20.6034 10.8484 20.6034 10.8484C20.6034 10.3628 20.5926 9.61213 20.5926 9.61213C20.5926 9.61213 17.2301 12.2514 11.4897 12.2514V12.2514Z" fill="#555555"/>
<path id="Vector_6" d="M20.8757 8.78285C20.8757 11.5039 16.6782 13.71 11.5 13.71C6.32177 13.71 2.12427 11.5039 2.12427 8.78285C2.12427 6.06183 6.32177 3.85574 11.5 3.85574C16.6775 3.85574 20.8757 6.06183 20.8757 8.78285Z" fill="#797979"/>
<path id="Vector_7" d="M16.3964 9.45177C16.0098 9.45177 15.6968 9.13871 15.6968 8.75219V3.85574C15.6968 3.46921 16.0098 3.15616 16.3964 3.15616C16.7829 3.15616 17.0959 3.46921 17.0959 3.85574V8.75219C17.0959 9.13871 16.7829 9.45177 16.3964 9.45177Z" fill="#F8F8F8"/>
<path id="Vector_8" d="M16.3965 4.9048C15.6541 4.9048 15.0702 4.56491 14.8344 3.99566C14.63 3.5018 14.5284 2.43038 16.1493 0.810158C16.286 0.673436 16.507 0.673436 16.6438 0.810158C18.2646 2.43102 18.163 3.5018 17.9586 3.99566C17.7229 4.56491 17.1389 4.9048 16.3965 4.9048Z" fill="#B3B3B3"/>
<path id="Vector_9" d="M11.4999 11.5499C11.1133 11.5499 10.8003 11.2368 10.8003 10.8503V5.95449C10.8003 5.56796 11.1133 5.25491 11.4999 5.25491C11.8864 5.25491 12.1995 5.56796 12.1995 5.95449V10.8509C12.1995 11.2368 11.8864 11.5499 11.4999 11.5499Z" fill="#F8F8F8"/>
<path id="Vector_10" d="M11.4998 7.00355C10.7574 7.00355 10.1735 6.66366 9.93774 6.09441C9.73266 5.60055 9.63172 4.52913 11.2526 2.90891C11.3893 2.77219 11.6104 2.77219 11.7471 2.90891C13.3679 4.52977 13.2664 5.60055 13.0619 6.09441C12.8262 6.66366 12.2422 7.00355 11.4998 7.00355Z" fill="#B3B3B3"/>
<path id="Vector_11" d="M6.60339 9.45177C6.21686 9.45177 5.90381 9.13871 5.90381 8.75219V3.85574C5.90381 3.46921 6.21686 3.15616 6.60339 3.15616C6.98992 3.15616 7.30298 3.46921 7.30298 3.85574V8.75219C7.30298 9.13871 6.98992 9.45177 6.60339 9.45177Z" fill="#F8F8F8"/>
<path id="Vector_12" d="M6.60334 4.9048C5.86095 4.9048 5.27701 4.56491 5.04126 3.99566C4.83618 3.5018 4.73523 2.43038 6.35609 0.810158C6.49281 0.673436 6.71387 0.673436 6.85059 0.810158C8.47145 2.43102 8.36987 3.5018 8.16543 3.99566C7.92968 4.56491 7.34573 4.9048 6.60334 4.9048V4.9048Z" fill="#B3B3B3"/>
</g>
<g id="Cake_2">
<path id="Vector_13" d="M11.5 23.6453C17.8513 23.6453 23 20.7849 23 17.2564C23 13.728 17.8513 10.8675 11.5 10.8675C5.14873 10.8675 0 13.728 0 17.2564C0 20.7849 5.14873 23.6453 11.5 23.6453Z" fill="#8899A6"/>
<path id="Vector_14" d="M11.5 22.5273C17.8513 22.5273 23 19.6669 23 16.1384C23 12.6099 17.8513 9.74949 11.5 9.74949C5.14873 9.74949 0 12.6099 0 16.1384C0 19.6669 5.14873 22.5273 11.5 22.5273Z" fill="#CCD6DD"/>
<path id="Vector_15" d="M20.8757 15.7774C20.8757 18.4991 16.6782 20.7045 11.5 20.7045C6.32177 20.7045 2.12427 18.4991 2.12427 15.7774C2.12427 13.057 6.32177 10.8509 11.5 10.8509C16.6775 10.8509 20.8757 13.057 20.8757 15.7774Z" fill="#DD2E44"/>
<path id="Vector_16" d="M20.5934 15.0478C20.5934 21.3434 2.40674 21.3434 2.40674 15.0478V9.45177H20.5934V15.0478Z" fill="#F4ABBA"/>
<path id="Vector_17" d="M11.4897 12.2514C5.74992 12.2514 2.40597 9.61149 2.40597 9.61149C2.40597 9.61149 2.39575 10.2018 2.39575 10.688C2.39575 10.688 2.4162 13.8173 4.03897 13.8173C5.61 13.8173 5.49564 15.3174 6.48847 15.4727C7.473 15.6266 7.58225 14.8734 8.80445 14.8734C10.0266 14.8734 10.2419 16.2189 11.4897 16.2189C12.9521 16.2189 13.0722 14.8734 14.2938 14.8734C15.5153 14.8734 15.6559 15.6554 16.4571 15.4388C17.4199 15.1781 16.9771 13.8179 18.9404 13.8179C20.5632 13.8179 20.6034 10.8484 20.6034 10.8484C20.6034 10.3628 20.5926 9.61213 20.5926 9.61213C20.5926 9.61213 17.2301 12.2514 11.4897 12.2514V12.2514Z" fill="#DD2E44"/>
<path id="Vector_18" d="M20.8757 8.78285C20.8757 11.5039 16.6782 13.71 11.5 13.71C6.32177 13.71 2.12427 11.5039 2.12427 8.78285C2.12427 6.06183 6.32177 3.85574 11.5 3.85574C16.6775 3.85574 20.8757 6.06183 20.8757 8.78285Z" fill="#EA596E"/>
<path id="Vector_19" d="M16.3964 9.45177C16.0098 9.45177 15.6968 9.13871 15.6968 8.75219V3.85574C15.6968 3.46921 16.0098 3.15616 16.3964 3.15616C16.7829 3.15616 17.0959 3.46921 17.0959 3.85574V8.75219C17.0959 9.13871 16.7829 9.45177 16.3964 9.45177Z" fill="#FFF8E8"/>
<path id="Vector_20" d="M16.3965 4.9048C15.6541 4.9048 15.0702 4.56491 14.8344 3.99566C14.63 3.5018 14.5284 2.43038 16.1493 0.810158C16.286 0.673436 16.507 0.673436 16.6438 0.810158C18.2646 2.43102 18.163 3.5018 17.9586 3.99566C17.7229 4.56491 17.1389 4.9048 16.3965 4.9048Z" fill="#FAAA35"/>
<path id="Vector_21" d="M11.4999 11.5499C11.1133 11.5499 10.8003 11.2368 10.8003 10.8503V5.95449C10.8003 5.56796 11.1133 5.25491 11.4999 5.25491C11.8864 5.25491 12.1995 5.56796 12.1995 5.95449V10.8509C12.1995 11.2368 11.8864 11.5499 11.4999 11.5499Z" fill="#FFF8E8"/>
<path id="Vector_22" d="M11.4998 7.00355C10.7574 7.00355 10.1735 6.66366 9.93774 6.09441C9.73266 5.60055 9.63172 4.52913 11.2526 2.90891C11.3893 2.77219 11.6104 2.77219 11.7471 2.90891C13.3679 4.52977 13.2664 5.60055 13.0619 6.09441C12.8262 6.66366 12.2422 7.00355 11.4998 7.00355Z" fill="#FAAA35"/>
<path id="Vector_23" d="M6.60339 9.45177C6.21686 9.45177 5.90381 9.13871 5.90381 8.75219V3.85574C5.90381 3.46921 6.21686 3.15616 6.60339 3.15616C6.98992 3.15616 7.30298 3.46921 7.30298 3.85574V8.75219C7.30298 9.13871 6.98992 9.45177 6.60339 9.45177Z" fill="#FFF8E8"/>
<path id="Vector_24" d="M6.60334 4.9048C5.86095 4.9048 5.27701 4.56491 5.04126 3.99566C4.83618 3.5018 4.73523 2.43038 6.35609 0.810158C6.49281 0.673436 6.71387 0.673436 6.85059 0.810158C8.47145 2.43102 8.36987 3.5018 8.16543 3.99566C7.92968 4.56491 7.34573 4.9048 6.60334 4.9048V4.9048Z" fill="#FAAA35"/>
</g>
</g>
</svg>
