<svg width="15" height="24" viewBox="0 0 15 24" fill="none" xmlns="http://www.w3.org/2000/svg">
<g id="Group 50">
<g id="Emoji">
<path id="Vector" d="M1.20874 2.9803L2.56485 21.5162H12.2111L13.6843 2.96684L1.20874 2.9803Z" fill="#D4D4D4"/>
<path id="Vector_2" d="M12.1268 21.0324L2.64142 21.138L1.9563 10.8329H12.89L12.1268 21.0324Z" fill="white"/>
<path id="Vector_3" d="M11.3906 23.653H3.44109C2.2889 23.653 1.47995 22.8771 1.33121 21.6266L0.00202445 2.97357C-0.0289338 2.53813 0.29882 2.1599 0.734929 2.12894C1.17844 2.09866 1.54859 2.42641 1.57955 2.86117L2.9047 21.4765C2.97671 22.0715 3.29033 22.0715 3.44109 22.0715H11.3906C11.7379 22.0715 11.8671 22.0715 11.929 21.4543L13.2522 2.86117C13.2831 2.42641 13.656 2.1 14.0968 2.12894C14.5322 2.1599 14.8607 2.53813 14.8297 2.97357L13.5046 21.5883C13.335 23.2984 12.2615 23.653 11.3906 23.653Z" fill="#969696"/>
<path id="Vector_4" d="M7.41575 22.1893H5.64776C1.92469 22.1893 1.49733 20.3829 1.30014 17.8322C1.0794 14.9847 0.120361 2.9628 0.120361 2.9628L1.46166 2.85579C1.46166 2.85579 2.42204 14.8811 2.64212 17.7286C2.82046 20.043 3.01631 20.8432 5.64776 20.8432H7.41575C7.78725 20.8432 8.08876 21.1441 8.08876 21.5162C8.08876 21.8884 7.78725 22.1893 7.41575 22.1893Z" fill="#969696"/>
<path id="Vector_5" d="M9.18392 22.1893H7.41593C7.04443 22.1893 6.74292 21.8884 6.74292 21.5162C6.74292 21.1441 7.04443 20.8432 7.41593 20.8432H9.18392C11.8154 20.8432 12.0105 20.043 12.1896 17.7286C12.4103 14.8804 13.37 2.85579 13.37 2.85579L14.712 2.9628C14.712 2.9628 13.7523 14.9854 13.5315 17.8322C13.3343 20.3829 12.9077 22.1893 9.18392 22.1893Z" fill="#969696"/>
<path id="Vector_6" d="M14.8188 2.72792C14.8188 3.87405 12.9815 4.8028 7.41577 4.8028C1.85068 4.8028 0.0126953 3.87405 0.0126953 2.72792C0.0126953 1.58179 1.85 0.65304 7.41577 0.65304C12.9815 0.65304 14.8188 1.58179 14.8188 2.72792Z" fill="#D4D4D4"/>
<path id="Vector_7" d="M14.5039 2.7582C14.2972 2.44929 13.88 2.36584 13.5704 2.57245C12.1665 3.50995 8.67495 3.62975 7.44806 3.59744C7.44133 3.59677 7.43527 3.60081 7.42854 3.60014C7.42249 3.60014 7.41777 3.59744 7.41172 3.59744C6.18752 3.63042 2.69529 3.51197 1.28938 2.57245C0.979794 2.36651 0.56253 2.44929 0.355917 2.7582C0.149304 3.06711 0.232756 3.48505 0.541666 3.69166C2.27129 4.84722 5.86986 4.94749 7.06175 4.94749C7.25625 4.94749 7.38278 4.9448 7.42989 4.94346C7.47767 4.9448 7.60353 4.94749 7.79802 4.94749C8.98992 4.94749 12.5885 4.84789 14.3181 3.69166C14.6277 3.48505 14.7111 3.06711 14.5039 2.7582V2.7582Z" fill="white"/>
<path id="Vector_8" d="M7.40996 11.7738C10.3192 11.7738 12.6776 11.3327 12.6776 10.7885C12.6776 10.2444 10.3192 9.80324 7.40996 9.80324C4.50073 9.80324 2.14233 10.2444 2.14233 10.7885C2.14233 11.3327 4.50073 11.7738 7.40996 11.7738Z" fill="#E7E7E7"/>
<path id="Vector_9" d="M2.73315 21.208H12.2676V22.4416H2.73315V21.208Z" fill="#969696"/>
</g>
<g id="Emoji_2">
<path id="Vector_10" d="M1.20874 2.9803L2.56485 21.5162H12.2111L13.6843 2.96684L1.20874 2.9803Z" fill="#CCD6DD"/>
<path id="Vector_11" d="M12.1268 21.0324L2.64142 21.138L1.9563 10.8329H12.89L12.1268 21.0324Z" fill="white"/>
<path id="Vector_12" d="M11.3906 23.653H3.44109C2.2889 23.653 1.47995 22.8771 1.33121 21.6266L0.00202445 2.97357C-0.0289338 2.53813 0.29882 2.1599 0.734929 2.12894C1.17844 2.09866 1.54859 2.42641 1.57955 2.86117L2.9047 21.4765C2.97671 22.0715 3.29033 22.0715 3.44109 22.0715H11.3906C11.7379 22.0715 11.8671 22.0715 11.929 21.4543L13.2522 2.86117C13.2831 2.42641 13.656 2.1 14.0968 2.12894C14.5322 2.1599 14.8607 2.53813 14.8297 2.97357L13.5046 21.5883C13.335 23.2984 12.2615 23.653 11.3906 23.653Z" fill="#8899A6"/>
<path id="Vector_13" d="M7.41575 22.1893H5.64776C1.92469 22.1893 1.49733 20.3829 1.30014 17.8322C1.0794 14.9847 0.120361 2.9628 0.120361 2.9628L1.46166 2.85579C1.46166 2.85579 2.42204 14.8811 2.64212 17.7286C2.82046 20.043 3.01631 20.8432 5.64776 20.8432H7.41575C7.78725 20.8432 8.08876 21.1441 8.08876 21.5162C8.08876 21.8884 7.78725 22.1893 7.41575 22.1893Z" fill="#8899A6"/>
<path id="Vector_14" d="M9.18392 22.1893H7.41593C7.04443 22.1893 6.74292 21.8884 6.74292 21.5162C6.74292 21.1441 7.04443 20.8432 7.41593 20.8432H9.18392C11.8154 20.8432 12.0105 20.043 12.1896 17.7286C12.4103 14.8804 13.37 2.85579 13.37 2.85579L14.712 2.9628C14.712 2.9628 13.7523 14.9854 13.5315 17.8322C13.3343 20.3829 12.9077 22.1893 9.18392 22.1893Z" fill="#8899A6"/>
<path id="Vector_15" d="M14.8188 2.72792C14.8188 3.87405 12.9815 4.8028 7.41577 4.8028C1.85068 4.8028 0.0126953 3.87405 0.0126953 2.72792C0.0126953 1.58179 1.85 0.65304 7.41577 0.65304C12.9815 0.65304 14.8188 1.58179 14.8188 2.72792Z" fill="#CCD6DD"/>
<path id="Vector_16" d="M14.5039 2.7582C14.2972 2.44929 13.88 2.36584 13.5704 2.57245C12.1665 3.50995 8.67495 3.62975 7.44806 3.59744C7.44133 3.59677 7.43527 3.60081 7.42854 3.60014C7.42249 3.60014 7.41777 3.59744 7.41172 3.59744C6.18752 3.63042 2.69529 3.51197 1.28938 2.57245C0.979794 2.36651 0.56253 2.44929 0.355917 2.7582C0.149304 3.06711 0.232756 3.48505 0.541666 3.69166C2.27129 4.84722 5.86986 4.94749 7.06175 4.94749C7.25625 4.94749 7.38278 4.9448 7.42989 4.94346C7.47767 4.9448 7.60353 4.94749 7.79802 4.94749C8.98992 4.94749 12.5885 4.84789 14.3181 3.69166C14.6277 3.48505 14.7111 3.06711 14.5039 2.7582V2.7582Z" fill="white"/>
<path id="Vector_17" d="M7.40996 11.7738C10.3192 11.7738 12.6776 11.3327 12.6776 10.7885C12.6776 10.2444 10.3192 9.80324 7.40996 9.80324C4.50073 9.80324 2.14233 10.2444 2.14233 10.7885C2.14233 11.3327 4.50073 11.7738 7.40996 11.7738Z" fill="#E1E8ED"/>
<path id="Vector_18" d="M2.73315 21.208H12.2676V22.4416H2.73315V21.208Z" fill="#8899A6"/>
</g>
</g>
</svg>
