<svg width="23" height="21" viewBox="0 0 23 21" fill="none" xmlns="http://www.w3.org/2000/svg">
<g id="Group 44">
<g id="Emoji">
<path id="Vector" d="M11.4658 20.3163C1.37724 20.3163 0 10.8739 0 8.17612H22.9315C22.9315 9.52503 21.6109 20.3163 11.4658 20.3163Z" fill="#D4D4D4"/>
<path id="Vector_2" d="M22.9315 8.21389C22.9315 11.7319 17.7982 14.5835 11.4658 14.5835C5.13329 14.5835 0 11.7312 0 8.21389C0 4.69593 5.13329 2.51879 11.4658 2.51879C17.7982 2.51811 22.9315 4.69593 22.9315 8.21389Z" fill="#737373"/>
<path id="Vector_3" d="M1.15193 9.44073C0.606971 8.65768 -0.421575 7.08013 0.674416 4.71953C1.15193 3.48326 2.14473 2.67796 2.27625 3.06172C2.58515 3.96077 3.20363 4.74786 4.131 4.66355C4.11886 4.98257 3.67979 1.75732 5.227 0.897392C5.98576 0.475857 6.8005 1.15031 7.72788 2.63951C9.21303 5.02506 12.9961 3.91019 14.0576 3.28564C15.1327 2.653 16.0743 2.23889 15.793 0.546C15.731 0.174375 16.2941 -0.148015 16.8688 0.159537C17.8339 0.67617 19.228 1.96101 19.4742 3.37062C20.1628 3.5534 20.6788 3.26069 21.076 2.45741C21.273 2.05948 21.9474 1.96573 22.2361 2.48506C22.7446 3.39962 23.5796 6.21278 22.3973 8.62598C21.0484 11.3798 18.9967 12.8413 14.3881 13.4315C9.77957 14.0216 3.84976 13.3189 1.15193 9.44073V9.44073Z" fill="#9F9F9F"/>
<path id="Vector_4" d="M12.4215 3.5534C12.4215 4.9738 11.2008 6.12443 9.69539 6.12443C8.19 6.12443 6.96924 4.97313 6.96924 3.5534C6.96924 2.13367 8.19 0.982373 9.69539 0.982373C11.2008 0.981698 12.4215 2.13367 12.4215 3.5534Z" fill="#808080"/>
<path id="Vector_5" d="M11.7469 3.5534C11.7469 4.62241 10.8283 5.48842 9.69525 5.48842C8.56216 5.48842 7.64355 4.62174 7.64355 3.5534C7.64355 2.48439 8.56216 1.61771 9.69525 1.61771C10.8283 1.61839 11.7469 2.48506 11.7469 3.5534Z" fill="#DBDBDB"/>
<path id="Vector_6" d="M4.83394 7.83889C5.68769 7.83889 6.37979 7.23497 6.37979 6.48998C6.37979 5.745 5.68769 5.14107 4.83394 5.14107C3.98019 5.14107 3.28809 5.745 3.28809 6.48998C3.28809 7.23497 3.98019 7.83889 4.83394 7.83889Z" fill="#2E2E2E"/>
<path id="Vector_7" d="M11.1448 6.94996C11.9993 8.56056 9.72573 7.59137 8.03285 8.49042C6.33929 9.38947 5.86852 11.8148 5.01331 10.2042C4.1581 8.59361 4.83795 6.55945 6.53084 5.6604C8.22439 4.76203 10.2903 5.33936 11.1448 6.94996V6.94996Z" fill="#555555"/>
<path id="Vector_8" d="M15.6252 6.48998C16.479 6.48998 17.1711 5.88605 17.1711 5.14107C17.1711 4.39609 16.479 3.79216 15.6252 3.79216C14.7714 3.79216 14.0793 4.39609 14.0793 5.14107C14.0793 5.88605 14.7714 6.48998 15.6252 6.48998Z" fill="#2E2E2E"/>
<path id="Vector_9" d="M18.9638 10.2865C17.909 11.2847 18.1693 9.33416 17.1199 8.22536C16.0691 7.11655 14.1078 7.271 15.1619 6.27213C16.2161 5.27326 17.9231 5.36229 18.9726 6.47042C20.0227 7.57855 20.0187 9.28763 18.9638 10.2865Z" fill="#777777"/>
<path id="Vector_10" d="M18.2893 10.961C17.2344 11.9591 17.4948 10.0086 16.4453 8.89914C15.3945 7.79101 13.4332 7.94478 14.4874 6.94592C15.5415 5.94705 17.2486 6.03607 18.298 7.14421C19.3482 8.25301 19.3441 9.96208 18.2893 10.961Z" fill="#E7E7E7"/>
<path id="Vector_11" d="M15.5213 10.1509C16.0481 11.5417 14.3087 10.5253 12.8465 11.0797C11.3856 11.6334 10.7556 13.5468 10.2289 12.1568C9.70214 10.7674 10.4602 9.19051 11.9211 8.63678C13.3826 8.08305 14.9939 8.76155 15.5213 10.1509Z" fill="#555555"/>
<path id="Vector_12" d="M5.3674 9.58169C5.25477 8.54168 7.27814 3.90412 10.8757 7.95153C10.0326 8.09182 7.98092 8.09182 7.05354 9.38475C6.12617 10.6777 5.2831 9.52503 5.3674 9.58169" fill="#797979"/>
<path id="Vector_13" d="M2.64178 10.0032C2.15077 9.34833 3.82208 7.83889 5.08668 9.13115C5.62085 8.48502 8.26202 7.19276 9.24605 10.0032C9.69591 9.49738 13.3771 9.38475 13.4331 12.5041C13.4607 12.9256 9.18737 12.8454 6.99741 12.3355C5.78879 12.0542 3.56915 11.2395 2.64178 10.0032V10.0032ZM16.8613 11.8573C16.0742 12.0698 17.3962 8.40072 19.8687 9.01919C19.953 8.34474 20.4865 6.12443 22.0324 6.51831C22.0884 7.16444 22.06 10.4517 16.8613 11.8573Z" fill="#C4C4C4"/>
</g>
<g id="Emoji_2">
<path id="Vector_14" d="M11.4658 20.3163C1.37724 20.3163 0 10.8739 0 8.17612H22.9315C22.9315 9.52503 21.6109 20.3163 11.4658 20.3163Z" fill="#CCD6DD"/>
<path id="Vector_15" d="M22.9315 8.21389C22.9315 11.7319 17.7982 14.5835 11.4658 14.5835C5.13329 14.5835 0 11.7312 0 8.21389C0 4.69593 5.13329 2.51879 11.4658 2.51879C17.7982 2.51811 22.9315 4.69593 22.9315 8.21389Z" fill="#66757F"/>
<path id="Vector_16" d="M1.15193 9.44073C0.606971 8.65768 -0.421575 7.08013 0.674416 4.71953C1.15193 3.48326 2.14473 2.67796 2.27625 3.06172C2.58515 3.96077 3.20363 4.74786 4.131 4.66355C4.11886 4.98257 3.67979 1.75732 5.227 0.897392C5.98576 0.475857 6.8005 1.15031 7.72788 2.63951C9.21303 5.02506 12.9961 3.91019 14.0576 3.28564C15.1327 2.653 16.0743 2.23889 15.793 0.546C15.731 0.174375 16.2941 -0.148015 16.8688 0.159537C17.8339 0.67617 19.228 1.96101 19.4742 3.37062C20.1628 3.5534 20.6788 3.26069 21.076 2.45741C21.273 2.05948 21.9474 1.96573 22.2361 2.48506C22.7446 3.39962 23.5796 6.21278 22.3973 8.62598C21.0484 11.3798 18.9967 12.8413 14.3881 13.4315C9.77957 14.0216 3.84976 13.3189 1.15193 9.44073V9.44073Z" fill="#77B255"/>
<path id="Vector_17" d="M12.4215 3.5534C12.4215 4.9738 11.2008 6.12443 9.69539 6.12443C8.19 6.12443 6.96924 4.97313 6.96924 3.5534C6.96924 2.13367 8.19 0.982373 9.69539 0.982373C11.2008 0.981698 12.4215 2.13367 12.4215 3.5534Z" fill="#5C913B"/>
<path id="Vector_18" d="M11.7469 3.5534C11.7469 4.62241 10.8283 5.48842 9.69525 5.48842C8.56216 5.48842 7.64355 4.62174 7.64355 3.5534C7.64355 2.48439 8.56216 1.61771 9.69525 1.61771C10.8283 1.61839 11.7469 2.48506 11.7469 3.5534Z" fill="#C6E5B3"/>
<path id="Vector_19" d="M4.83394 7.83889C5.68769 7.83889 6.37979 7.23497 6.37979 6.48998C6.37979 5.745 5.68769 5.14107 4.83394 5.14107C3.98019 5.14107 3.28809 5.745 3.28809 6.48998C3.28809 7.23497 3.98019 7.83889 4.83394 7.83889Z" fill="#292F33"/>
<path id="Vector_20" d="M11.1448 6.94996C11.9993 8.56056 9.72573 7.59137 8.03285 8.49042C6.33929 9.38947 5.86852 11.8148 5.01331 10.2042C4.1581 8.59361 4.83795 6.55945 6.53084 5.6604C8.22439 4.76203 10.2903 5.33936 11.1448 6.94996V6.94996Z" fill="#DD2E44"/>
<path id="Vector_21" d="M15.6252 6.48998C16.479 6.48998 17.1711 5.88605 17.1711 5.14107C17.1711 4.39609 16.479 3.79216 15.6252 3.79216C14.7714 3.79216 14.0793 4.39609 14.0793 5.14107C14.0793 5.88605 14.7714 6.48998 15.6252 6.48998Z" fill="#292F33"/>
<path id="Vector_22" d="M18.9638 10.2865C17.909 11.2847 18.1693 9.33416 17.1199 8.22536C16.0691 7.11655 14.1078 7.271 15.1619 6.27213C16.2161 5.27326 17.9231 5.36229 18.9726 6.47042C20.0227 7.57855 20.0187 9.28763 18.9638 10.2865Z" fill="#9266CC"/>
<path id="Vector_23" d="M18.2893 10.961C17.2344 11.9591 17.4948 10.0086 16.4453 8.89914C15.3945 7.79101 13.4332 7.94478 14.4874 6.94592C15.5415 5.94705 17.2486 6.03607 18.298 7.14421C19.3482 8.25301 19.3441 9.96208 18.2893 10.961Z" fill="#E1E8ED"/>
<path id="Vector_24" d="M15.5213 10.1509C16.0481 11.5417 14.3087 10.5253 12.8465 11.0797C11.3856 11.6334 10.7556 13.5468 10.2289 12.1568C9.70214 10.7674 10.4602 9.19051 11.9211 8.63678C13.3826 8.08305 14.9939 8.76155 15.5213 10.1509Z" fill="#DD2E44"/>
<path id="Vector_25" d="M5.3674 9.58169C5.25477 8.54168 7.27814 3.90412 10.8757 7.95153C10.0326 8.09182 7.98092 8.09182 7.05354 9.38475C6.12617 10.6777 5.2831 9.52503 5.3674 9.58169" fill="#EA596E"/>
<path id="Vector_26" d="M2.64178 10.0032C2.15077 9.34833 3.82208 7.83889 5.08668 9.13115C5.62085 8.48502 8.26202 7.19276 9.24605 10.0032C9.69591 9.49738 13.3771 9.38475 13.4331 12.5041C13.4607 12.9256 9.18737 12.8454 6.99741 12.3355C5.78879 12.0542 3.56915 11.2395 2.64178 10.0032V10.0032ZM16.8613 11.8573C16.0742 12.0698 17.3962 8.40072 19.8687 9.01919C19.953 8.34474 20.4865 6.12443 22.0324 6.51831C22.0884 7.16444 22.06 10.4517 16.8613 11.8573Z" fill="#A6D388"/>
</g>
</g>
</svg>
