<svg width="24" height="28" viewBox="0 0 24 28" fill="none" xmlns="http://www.w3.org/2000/svg">
<g id="Group 54">
<g id="Emoji">
<path id="Vector" d="M17.0016 5.7198C14.7016 5.7198 14.7016 6.48647 12.4016 6.48647C10.1016 6.48647 10.1016 5.7198 7.80161 5.7198C4.73494 5.7198 0.901611 7.25313 0.901611 12.6198C0.901611 21.0531 5.50161 27.9531 8.56828 27.9531C10.8683 27.9531 10.8683 27.1865 12.4016 27.1865C13.9349 27.1865 13.9349 27.9531 16.2349 27.9531C19.3016 27.9531 23.9016 21.0531 23.9016 12.6198C23.9016 7.25237 20.0683 5.7198 17.0016 5.7198Z" fill="#555555"/>
<path id="Vector_2" d="M13.1682 5.7198C13.1682 5.7198 15.4682 2.65314 19.3015 2.65314C22.3682 2.65314 23.9015 4.18647 23.9015 4.18647C23.9015 4.18647 20.8349 6.48647 18.5349 6.48647C16.2349 6.48647 13.1682 5.7198 13.1682 5.7198Z" fill="#9F9F9F"/>
<path id="Vector_3" d="M12.4017 8.0198C11.9785 8.0198 11.635 7.67633 11.635 7.25313C11.635 4.61503 12.555 2.18164 14.1596 0.577768C14.4594 0.278002 14.9439 0.278002 15.2437 0.577768C15.5435 0.877535 15.5435 1.36284 15.2437 1.66184C13.9243 2.9805 13.1683 5.0183 13.1683 7.25313C13.1683 7.67633 12.8249 8.0198 12.4017 8.0198Z" fill="#2F2F2F"/>
</g>
<g id="Emoji_2">
<path id="Vector_4" d="M17.0016 5.7198C14.7016 5.7198 14.7016 6.48647 12.4016 6.48647C10.1016 6.48647 10.1016 5.7198 7.80161 5.7198C4.73494 5.7198 0.901611 7.25313 0.901611 12.6198C0.901611 21.0531 5.50161 27.9531 8.56828 27.9531C10.8683 27.9531 10.8683 27.1865 12.4016 27.1865C13.9349 27.1865 13.9349 27.9531 16.2349 27.9531C19.3016 27.9531 23.9016 21.0531 23.9016 12.6198C23.9016 7.25237 20.0683 5.7198 17.0016 5.7198Z" fill="#DD2E44"/>
<path id="Vector_5" d="M13.1682 5.7198C13.1682 5.7198 15.4682 2.65314 19.3015 2.65314C22.3682 2.65314 23.9015 4.18647 23.9015 4.18647C23.9015 4.18647 20.8349 6.48647 18.5349 6.48647C16.2349 6.48647 13.1682 5.7198 13.1682 5.7198Z" fill="#77B255"/>
<path id="Vector_6" d="M12.4017 8.0198C11.9785 8.0198 11.635 7.67633 11.635 7.25313C11.635 4.61503 12.555 2.18164 14.1596 0.577768C14.4594 0.278002 14.9439 0.278002 15.2437 0.577768C15.5435 0.877535 15.5435 1.36284 15.2437 1.66184C13.9243 2.9805 13.1683 5.0183 13.1683 7.25313C13.1683 7.67633 12.8249 8.0198 12.4017 8.0198Z" fill="#662113"/>
</g>
</g>
</svg>
