<svg width="17" height="24" viewBox="0 0 17 24" fill="none" xmlns="http://www.w3.org/2000/svg">
<g id="Group 46">
<g id="Emoji">
<path id="Vector" d="M11.5961 2.30203C10.4799 1.28462 9.27576 0.67647 8.11765 0.67647C4.3125 0.67647 0 7.17803 0 13.5294C0 14.189 0.0534413 14.814 0.136647 15.4174C0.85303 20.6215 4.48026 23.6765 8.11765 23.6765C12.1765 23.6765 16.2353 19.8808 16.2353 13.5294C16.2353 9.11138 14.1477 4.62638 11.5961 2.30203V2.30203Z" fill="#E2E2E2"/>
<path id="Vector_2" d="M11.5961 2.30203C13.5633 4.68253 15.0515 8.40244 15.0515 12.0791C15.0515 18.1734 11.2145 21.8155 7.3776 21.8155C4.30575 21.8155 1.23863 19.4756 0.135986 15.4168C0.853045 20.6215 4.48028 23.6765 8.11766 23.6765C12.1765 23.6765 16.2353 19.8808 16.2353 13.5294C16.2353 9.11138 14.1477 4.62638 11.5961 2.30203V2.30203Z" fill="#B4B4B4"/>
</g>
<g id="Emoji_2">
<path id="Vector_3" d="M11.5961 2.30203C10.4799 1.28462 9.27576 0.67647 8.11765 0.67647C4.3125 0.67647 0 7.17803 0 13.5294C0 14.189 0.0534413 14.814 0.136647 15.4174C0.85303 20.6215 4.48026 23.6765 8.11765 23.6765C12.1765 23.6765 16.2353 19.8808 16.2353 13.5294C16.2353 9.11138 14.1477 4.62638 11.5961 2.30203V2.30203Z" fill="#F7DECE"/>
<path id="Vector_4" d="M11.5961 2.30203C13.5633 4.68253 15.0515 8.40244 15.0515 12.0791C15.0515 18.1734 11.2145 21.8155 7.3776 21.8155C4.30575 21.8155 1.23863 19.4756 0.135986 15.4168C0.853045 20.6215 4.48028 23.6765 8.11766 23.6765C12.1765 23.6765 16.2353 19.8808 16.2353 13.5294C16.2353 9.11138 14.1477 4.62638 11.5961 2.30203V2.30203Z" fill="#E0AA94"/>
</g>
</g>
</svg>
