<svg width="14" height="24" viewBox="0 0 14 24" fill="none" xmlns="http://www.w3.org/2000/svg">
<g id="Group 52">
<g id="Emoji">
<path id="Vector" d="M6.72277 15.3153H1.99976C1.99976 15.3153 2.86752 19.4842 3.50761 21.5699C4.14769 23.6569 6.46045 23.653 6.98509 23.653C8.03372 23.653 9.82249 23.6569 10.4626 21.5699C11.102 19.4842 12.4957 15.3153 12.4957 15.3153H6.72277V15.3153Z" fill="#CECECE"/>
<path id="Vector_2" d="M7.24729 18.5221C9.46641 18.5221 10.9871 18.0405 11.7991 17.4158C12.0229 16.7359 12.2179 16.1478 12.3442 15.7681C12.248 15.6078 12.105 15.4558 11.9145 15.3153H2.58007C2.36137 15.4769 2.20488 15.6527 2.1106 15.8393C2.1805 16.1651 2.27863 16.6179 2.39729 17.1457C3.09573 17.8961 4.7171 18.5221 7.24729 18.5221Z" fill="#B5B5B5"/>
<path id="Vector_3" d="M1.4751 13.3912V15.3153C1.4751 16.378 4.0598 17.2394 7.24739 17.2394C10.435 17.2394 13.0197 16.378 13.0197 15.3153V13.3912H1.4751Z" fill="#CECECE"/>
<path id="Vector_4" d="M12.4957 13.7119C12.4957 14.5976 10.1457 15.3153 7.24741 15.3153C4.34908 15.3153 1.99976 14.5976 1.99976 13.7119C1.99976 12.8262 4.34908 12.1085 7.24741 12.1085C10.1457 12.1085 12.4957 12.8262 12.4957 13.7119Z" fill="#9C9C9C"/>
<path id="Vector_5" d="M12.9568 9.484C13.0967 8.88176 13.0588 8.23911 12.7914 7.5971C12.5323 6.97562 12.082 6.49011 11.5369 6.16108C11.6587 5.70636 11.6356 5.21892 11.422 4.73212C11.1007 3.99776 10.4029 3.5116 9.61725 3.37692C9.71473 3.15821 9.7545 2.88948 9.64226 2.55084C9.26065 1.40793 7.7374 2.17628 6.59513 0.65304C5.64848 1.22065 5.45543 2.06917 5.50032 2.77917C4.6332 2.93373 4.13293 3.12037 4.13293 3.12037V3.12101C3.61471 3.33074 3.24849 3.8387 3.24849 4.43196C3.24849 4.74623 3.35431 5.03421 3.52812 5.26895L3.22027 5.38375L3.22091 5.38503C2.33326 5.71662 1.70729 6.51833 1.70729 7.456C1.70729 7.85493 1.82979 8.22372 2.02797 8.5476C0.946629 9.02863 0.192383 10.0805 0.192383 11.3093C0.192383 12.9095 1.46806 14.207 3.08366 14.3314C4.79161 14.8612 8.20817 14.7163 10.8288 14.2731C12.3495 14.0165 13.9016 13.1058 13.9016 11.5633C13.9016 10.7327 13.5321 9.99517 12.9568 9.484V9.484Z" fill="#E9E9E9"/>
<path id="Vector_6" d="M5.16303 12.2444C3.72637 12.6511 1.5701 12.755 0.42334 12.4458C0.88833 13.5644 2.01264 14.3552 3.33193 14.3552C7.27312 14.3552 11.2958 11.6723 11.2958 11.6723C12.5586 10.886 13.2019 9.64562 12.9947 8.34493C11.6851 10.1972 6.66511 11.8192 5.16303 12.2444V12.2444ZM4.12722 9.69116C7.16665 9.69116 10.2683 7.72281 10.2683 7.72281C11.2836 7.12185 11.7896 6.15916 11.5639 5.1612C7.69899 7.67407 4.14711 8.41292 1.99597 8.49501C2.40195 9.20308 3.19917 9.69116 4.12722 9.69116V9.69116ZM3.29217 4.76804C3.44353 5.38631 3.99767 5.84617 4.66212 5.84617C5.08222 5.84617 5.50359 5.77498 5.90381 5.66852C6.15009 5.59412 6.39381 5.51459 6.63689 5.428C7.57071 5.06563 8.2512 4.6 8.2512 4.6C8.92848 4.1658 9.62565 3.39872 9.62565 3.39872C9.62565 3.39872 9.86231 2.86575 9.46531 2.55276C8.34612 3.67387 4.775 4.78343 3.29217 4.76804V4.76804Z" fill="#DBDBDB"/>
</g>
<g id="Emoji_2">
<path id="Vector_7" d="M6.72277 15.3153H1.99976C1.99976 15.3153 2.86752 19.4842 3.50761 21.5699C4.14769 23.6569 6.46045 23.653 6.98509 23.653C8.03372 23.653 9.82249 23.6569 10.4626 21.5699C11.102 19.4842 12.4957 15.3153 12.4957 15.3153H6.72277V15.3153Z" fill="#FFCC4D"/>
<path id="Vector_8" d="M7.24729 18.5221C9.46641 18.5221 10.9871 18.0405 11.7991 17.4158C12.0229 16.7359 12.2179 16.1478 12.3442 15.7681C12.248 15.6078 12.105 15.4558 11.9145 15.3153H2.58007C2.36137 15.4769 2.20488 15.6527 2.1106 15.8393C2.1805 16.1651 2.27863 16.6179 2.39729 17.1457C3.09573 17.8961 4.7171 18.5221 7.24729 18.5221Z" fill="#FFAC33"/>
<path id="Vector_9" d="M1.4751 13.3912V15.3153C1.4751 16.378 4.0598 17.2394 7.24739 17.2394C10.435 17.2394 13.0197 16.378 13.0197 15.3153V13.3912H1.4751Z" fill="#FFCC4D"/>
<path id="Vector_10" d="M12.4957 13.7119C12.4957 14.5976 10.1457 15.3153 7.24741 15.3153C4.34908 15.3153 1.99976 14.5976 1.99976 13.7119C1.99976 12.8262 4.34908 12.1085 7.24741 12.1085C10.1457 12.1085 12.4957 12.8262 12.4957 13.7119Z" fill="#F4900C"/>
<path id="Vector_11" d="M12.9568 9.484C13.0967 8.88176 13.0588 8.23911 12.7914 7.5971C12.5323 6.97562 12.082 6.49011 11.5369 6.16108C11.6587 5.70636 11.6356 5.21892 11.422 4.73212C11.1007 3.99776 10.4029 3.5116 9.61725 3.37692C9.71473 3.15821 9.7545 2.88948 9.64226 2.55084C9.26065 1.40793 7.7374 2.17628 6.59513 0.65304C5.64848 1.22065 5.45543 2.06917 5.50032 2.77917C4.6332 2.93373 4.13293 3.12037 4.13293 3.12037V3.12101C3.61471 3.33074 3.24849 3.8387 3.24849 4.43196C3.24849 4.74623 3.35431 5.03421 3.52812 5.26895L3.22027 5.38375L3.22091 5.38503C2.33326 5.71662 1.70729 6.51833 1.70729 7.456C1.70729 7.85493 1.82979 8.22372 2.02797 8.5476C0.946629 9.02863 0.192383 10.0805 0.192383 11.3093C0.192383 12.9095 1.46806 14.207 3.08366 14.3314C4.79161 14.8612 8.20817 14.7163 10.8288 14.2731C12.3495 14.0165 13.9016 13.1058 13.9016 11.5633C13.9016 10.7327 13.5321 9.99517 12.9568 9.484V9.484Z" fill="#FFE8B6"/>
<path id="Vector_12" d="M5.16303 12.2444C3.72637 12.6511 1.5701 12.755 0.42334 12.4458C0.88833 13.5644 2.01264 14.3552 3.33193 14.3552C7.27312 14.3552 11.2958 11.6723 11.2958 11.6723C12.5586 10.886 13.2019 9.64562 12.9947 8.34493C11.6851 10.1972 6.66511 11.8192 5.16303 12.2444V12.2444ZM4.12722 9.69116C7.16665 9.69116 10.2683 7.72281 10.2683 7.72281C11.2836 7.12185 11.7896 6.15916 11.5639 5.1612C7.69899 7.67407 4.14711 8.41292 1.99597 8.49501C2.40195 9.20308 3.19917 9.69116 4.12722 9.69116V9.69116ZM3.29217 4.76804C3.44353 5.38631 3.99767 5.84617 4.66212 5.84617C5.08222 5.84617 5.50359 5.77498 5.90381 5.66852C6.15009 5.59412 6.39381 5.51459 6.63689 5.428C7.57071 5.06563 8.2512 4.6 8.2512 4.6C8.92848 4.1658 9.62565 3.39872 9.62565 3.39872C9.62565 3.39872 9.86231 2.86575 9.46531 2.55276C8.34612 3.67387 4.775 4.78343 3.29217 4.76804V4.76804Z" fill="#FFD983"/>
</g>
</g>
</svg>
