<svg width="24" height="25" viewBox="0 0 24 25" fill="none" xmlns="http://www.w3.org/2000/svg">
<g id="Group 47">
<g id="Emoji">
<path id="Vector" d="M21.1209 7.24282L2.34978 7.24282C1.18191 7.24282 0.235352 8.18937 0.235352 9.35724C0.235352 10.5251 1.18191 11.4717 2.34978 11.4717C2.47805 11.4717 2.60139 11.4555 2.72332 11.4343L2.71205 11.4717L3.16101 21.3418C3.23079 22.891 4.55723 24.1582 6.10781 24.1582H17.3847C18.9353 24.1582 20.2618 22.891 20.3322 21.3418L20.7805 11.4717L20.7699 11.4364C20.8848 11.4555 21.0004 11.4717 21.1209 11.4717C22.2888 11.4717 23.2354 10.5251 23.2354 9.35724C23.2354 8.18937 22.2881 7.24282 21.1209 7.24282V7.24282Z" fill="#E7E7E7"/>
<path id="Vector_2" d="M19.2652 11.4717V23.4456C19.8734 22.9283 20.2829 22.1798 20.3167 21.3411L20.796 11.4717H19.2652ZM15.0363 11.4717H17.1507V24.1582H15.0363V11.4717ZM10.8075 24.1582V11.4717H12.9219V24.1582H10.8075ZM6.57862 11.4717H8.69304V24.1582H6.57862V11.4717ZM2.69653 11.4717L3.1758 21.3411C3.21386 22.2869 3.72273 23.1228 4.46419 23.6345V11.4717H2.69653Z" fill="#555555"/>
<path id="Vector_3" opacity="0.6" d="M2.69653 11.4717L2.7649 12.8813H20.7269L20.796 11.4717H2.69653Z" fill="#A7A7A7"/>
<path id="Vector_4" d="M20.8587 7.29215C20.889 7.16247 20.9087 7.02926 20.9087 6.89041C20.9087 6.41537 20.7184 5.98544 20.4125 5.66898C20.71 5.4815 20.9087 5.15306 20.9087 4.77599C20.9087 4.1917 20.4351 3.71877 19.8515 3.71877C19.7127 3.71877 19.5802 3.74697 19.4582 3.7963C19.3603 3.43474 19.0783 3.15281 18.7168 3.05485C18.7661 2.93291 18.7943 2.80111 18.7943 2.66156C18.7943 2.07728 18.3207 1.60435 17.7371 1.60435C17.6025 1.60435 17.4749 1.63184 17.3565 1.67765C17.2219 0.838224 16.5001 0.194735 15.6227 0.194735C14.6493 0.194735 13.8606 0.983415 13.8606 1.95675C13.8606 2.08855 13.8776 2.21612 13.905 2.34017C13.454 2.41981 13.0663 2.67073 12.8034 3.02313C12.482 2.59249 11.9732 2.30916 11.3938 2.30916C10.4205 2.30916 9.63179 3.09784 9.63179 4.07118L9.6325 4.07964C9.41824 3.91753 9.16944 3.80124 8.89457 3.7512C8.74374 2.9308 8.02836 2.30916 7.16497 2.30916C6.29946 2.30916 5.58267 2.93432 5.43466 3.75754C5.3085 3.7378 5.18234 3.71877 5.05054 3.71877C3.68815 3.71877 2.58371 4.82321 2.58371 6.1856C2.58371 6.56972 2.67886 6.92847 2.83533 7.25268C2.29968 7.30413 1.87891 7.75028 1.87891 8.30003C1.87891 8.88431 2.35254 9.35724 2.93612 9.35724H20.5563C21.1399 9.35724 21.6135 8.88431 21.6135 8.30003C21.6135 7.82217 21.2943 7.42254 20.8587 7.29215Z" fill="#DBDBDB"/>
<g id="Group">
<path id="Vector_5" d="M18.7944 5.8332C19.1837 5.8332 19.4992 5.51765 19.4992 5.12839C19.4992 4.73914 19.1837 4.42358 18.7944 4.42358C18.4052 4.42358 18.0896 4.73914 18.0896 5.12839C18.0896 5.51765 18.4052 5.8332 18.7944 5.8332Z" fill="#B5B5B5"/>
<path id="Vector_6" d="M16.3275 4.42358C16.9114 4.42358 17.3847 3.95025 17.3847 3.36637C17.3847 2.78249 16.9114 2.30916 16.3275 2.30916C15.7436 2.30916 15.2703 2.78249 15.2703 3.36637C15.2703 3.95025 15.7436 4.42358 16.3275 4.42358Z" fill="#B5B5B5"/>
<path id="Vector_7" d="M7.51755 5.12839C7.90681 5.12839 8.22236 4.81284 8.22236 4.42358C8.22236 4.03433 7.90681 3.71877 7.51755 3.71877C7.1283 3.71877 6.81274 4.03433 6.81274 4.42358C6.81274 4.81284 7.1283 5.12839 7.51755 5.12839Z" fill="#B5B5B5"/>
<path id="Vector_8" d="M20.9088 8.30003C20.9088 7.71645 20.4351 7.24282 19.8516 7.24282C19.3878 7.24282 18.9973 7.54377 18.855 7.9596C18.8345 7.9582 18.8162 7.94762 18.7944 7.94762C18.4053 7.94762 18.0895 8.26338 18.0895 8.65243H20.8439C20.8834 8.54178 20.9088 8.42407 20.9088 8.30003ZM5.7554 7.94762C5.89495 7.94762 6.02675 7.97582 6.14869 8.02515C6.26991 7.57548 6.67729 7.24282 7.16502 7.24282C7.7486 7.24282 8.22223 7.71574 8.22223 8.30003C8.22223 8.42407 8.19686 8.54178 8.15739 8.65243H11.1063C11.0668 8.54178 11.0415 8.42407 11.0415 8.30003C11.0415 7.71574 11.5151 7.24282 12.0987 7.24282C12.2657 7.24282 12.4222 7.2851 12.5624 7.35417C12.4934 7.21392 12.4511 7.05745 12.4511 6.89041C12.4511 6.30613 12.9247 5.8332 13.5083 5.8332C14.0919 5.8332 14.5655 6.30613 14.5655 6.89041C14.5655 7.02996 14.5373 7.16176 14.488 7.28369C14.9376 7.40492 15.2703 7.8116 15.2703 8.30003C15.2703 8.42407 15.2449 8.54178 15.2055 8.65243H17.2973L16.8984 8.30003C17.1944 8.04136 17.3847 7.6664 17.3847 7.24282C17.3847 6.46471 16.7532 5.8332 15.9751 5.8332C15.7087 5.8332 15.462 5.91143 15.2492 6.04041C15.2597 5.97205 15.2703 5.90438 15.2703 5.8332C15.2703 5.05509 14.6388 4.42358 13.8607 4.42358C13.2912 4.42358 12.8028 4.7633 12.5808 5.24962C12.4356 5.17491 12.2735 5.12839 12.0987 5.12839C11.5151 5.12839 11.0415 5.60202 11.0415 6.1856C11.0415 6.32516 11.0697 6.45695 11.119 6.57889C10.6693 6.70082 10.3367 7.10749 10.3367 7.59522C10.3367 7.73477 10.3648 7.86657 10.4142 7.9885C10.2521 8.0322 10.1055 8.11325 9.98425 8.2225C9.79677 8.05334 9.5515 7.94762 9.27944 7.94762C9.1124 7.94762 8.95594 7.98991 8.81497 8.05969C8.88475 7.91873 8.92704 7.76226 8.92704 7.59522C8.92704 7.01164 8.45341 6.53801 7.86983 6.53801C7.73027 6.53801 7.59848 6.5662 7.47654 6.61554C7.35532 6.16587 6.94794 5.8332 6.46021 5.8332C5.87663 5.8332 5.403 6.30683 5.403 6.89041C5.403 7.02996 5.43119 7.16176 5.48053 7.28369C5.31842 7.32739 5.17182 7.40845 5.05059 7.51769C4.86312 7.34854 4.61784 7.24282 4.34579 7.24282C3.76221 7.24282 3.28857 7.71645 3.28857 8.30003C3.28857 8.42407 3.31395 8.54178 3.35342 8.65243H4.76303C4.90893 8.24294 5.29587 7.94762 5.7554 7.94762V7.94762Z" fill="#B5B5B5"/>
</g>
<path id="Vector_9" d="M1.87891 8.65243V9.35724C1.87891 9.74629 2.19466 10.062 2.58371 10.062H20.9087C21.2985 10.062 21.6135 9.74629 21.6135 9.35724V8.65243H1.87891Z" fill="white"/>
</g>
<g id="Emoji_2">
<path id="Vector_10" d="M21.1209 7.24282L2.34978 7.24282C1.18191 7.24282 0.235352 8.18937 0.235352 9.35724C0.235352 10.5251 1.18191 11.4717 2.34978 11.4717C2.47805 11.4717 2.60139 11.4555 2.72332 11.4343L2.71205 11.4717L3.16101 21.3418C3.23079 22.891 4.55723 24.1582 6.10781 24.1582H17.3847C18.9353 24.1582 20.2618 22.891 20.3322 21.3418L20.7805 11.4717L20.7699 11.4364C20.8848 11.4555 21.0004 11.4717 21.1209 11.4717C22.2888 11.4717 23.2354 10.5251 23.2354 9.35724C23.2354 8.18937 22.2881 7.24282 21.1209 7.24282V7.24282Z" fill="#E1E8ED"/>
<path id="Vector_11" d="M19.2652 11.4717V23.4456C19.8734 22.9283 20.2829 22.1798 20.3167 21.3411L20.796 11.4717H19.2652ZM15.0363 11.4717H17.1507V24.1582H15.0363V11.4717ZM10.8075 24.1582V11.4717H12.9219V24.1582H10.8075ZM6.57862 11.4717H8.69304V24.1582H6.57862V11.4717ZM2.69653 11.4717L3.1758 21.3411C3.21386 22.2869 3.72273 23.1228 4.46419 23.6345V11.4717H2.69653Z" fill="#DA2F47"/>
<path id="Vector_12" opacity="0.6" d="M2.69653 11.4717L2.7649 12.8813H20.7269L20.796 11.4717H2.69653Z" fill="#99AAB5"/>
<path id="Vector_13" d="M20.8587 7.29215C20.889 7.16247 20.9087 7.02926 20.9087 6.89041C20.9087 6.41537 20.7184 5.98544 20.4125 5.66898C20.71 5.4815 20.9087 5.15306 20.9087 4.77599C20.9087 4.1917 20.4351 3.71877 19.8515 3.71877C19.7127 3.71877 19.5802 3.74697 19.4582 3.7963C19.3603 3.43474 19.0783 3.15281 18.7168 3.05485C18.7661 2.93291 18.7943 2.80111 18.7943 2.66156C18.7943 2.07728 18.3207 1.60435 17.7371 1.60435C17.6025 1.60435 17.4749 1.63184 17.3565 1.67765C17.2219 0.838224 16.5001 0.194735 15.6227 0.194735C14.6493 0.194735 13.8606 0.983415 13.8606 1.95675C13.8606 2.08855 13.8776 2.21612 13.905 2.34017C13.454 2.41981 13.0663 2.67073 12.8034 3.02313C12.482 2.59249 11.9732 2.30916 11.3938 2.30916C10.4205 2.30916 9.63179 3.09784 9.63179 4.07118L9.6325 4.07964C9.41824 3.91753 9.16944 3.80124 8.89457 3.7512C8.74374 2.9308 8.02836 2.30916 7.16497 2.30916C6.29946 2.30916 5.58267 2.93432 5.43466 3.75754C5.3085 3.7378 5.18234 3.71877 5.05054 3.71877C3.68815 3.71877 2.58371 4.82321 2.58371 6.1856C2.58371 6.56972 2.67886 6.92847 2.83533 7.25268C2.29968 7.30413 1.87891 7.75028 1.87891 8.30003C1.87891 8.88431 2.35254 9.35724 2.93612 9.35724H20.5563C21.1399 9.35724 21.6135 8.88431 21.6135 8.30003C21.6135 7.82217 21.2943 7.42254 20.8587 7.29215Z" fill="#FFD983"/>
<g id="Group_2">
<path id="Vector_14" d="M18.7944 5.8332C19.1837 5.8332 19.4992 5.51765 19.4992 5.12839C19.4992 4.73914 19.1837 4.42358 18.7944 4.42358C18.4052 4.42358 18.0896 4.73914 18.0896 5.12839C18.0896 5.51765 18.4052 5.8332 18.7944 5.8332Z" fill="#FFAC33"/>
<path id="Vector_15" d="M16.3275 4.42358C16.9114 4.42358 17.3847 3.95025 17.3847 3.36637C17.3847 2.78249 16.9114 2.30916 16.3275 2.30916C15.7436 2.30916 15.2703 2.78249 15.2703 3.36637C15.2703 3.95025 15.7436 4.42358 16.3275 4.42358Z" fill="#FFAC33"/>
<path id="Vector_16" d="M7.51755 5.12839C7.90681 5.12839 8.22236 4.81284 8.22236 4.42358C8.22236 4.03433 7.90681 3.71877 7.51755 3.71877C7.1283 3.71877 6.81274 4.03433 6.81274 4.42358C6.81274 4.81284 7.1283 5.12839 7.51755 5.12839Z" fill="#FFAC33"/>
<path id="Vector_17" d="M20.9088 8.30003C20.9088 7.71645 20.4351 7.24282 19.8516 7.24282C19.3878 7.24282 18.9973 7.54377 18.855 7.9596C18.8345 7.9582 18.8162 7.94762 18.7944 7.94762C18.4053 7.94762 18.0895 8.26338 18.0895 8.65243H20.8439C20.8834 8.54178 20.9088 8.42407 20.9088 8.30003ZM5.7554 7.94762C5.89495 7.94762 6.02675 7.97582 6.14869 8.02515C6.26991 7.57548 6.67729 7.24282 7.16502 7.24282C7.7486 7.24282 8.22223 7.71574 8.22223 8.30003C8.22223 8.42407 8.19686 8.54178 8.15739 8.65243H11.1063C11.0668 8.54178 11.0415 8.42407 11.0415 8.30003C11.0415 7.71574 11.5151 7.24282 12.0987 7.24282C12.2657 7.24282 12.4222 7.2851 12.5624 7.35417C12.4934 7.21392 12.4511 7.05745 12.4511 6.89041C12.4511 6.30613 12.9247 5.8332 13.5083 5.8332C14.0919 5.8332 14.5655 6.30613 14.5655 6.89041C14.5655 7.02996 14.5373 7.16176 14.488 7.28369C14.9376 7.40492 15.2703 7.8116 15.2703 8.30003C15.2703 8.42407 15.2449 8.54178 15.2055 8.65243H17.2973L16.8984 8.30003C17.1944 8.04136 17.3847 7.6664 17.3847 7.24282C17.3847 6.46471 16.7532 5.8332 15.9751 5.8332C15.7087 5.8332 15.462 5.91143 15.2492 6.04041C15.2597 5.97205 15.2703 5.90438 15.2703 5.8332C15.2703 5.05509 14.6388 4.42358 13.8607 4.42358C13.2912 4.42358 12.8028 4.7633 12.5808 5.24962C12.4356 5.17491 12.2735 5.12839 12.0987 5.12839C11.5151 5.12839 11.0415 5.60202 11.0415 6.1856C11.0415 6.32516 11.0697 6.45695 11.119 6.57889C10.6693 6.70082 10.3367 7.10749 10.3367 7.59522C10.3367 7.73477 10.3648 7.86657 10.4142 7.9885C10.2521 8.0322 10.1055 8.11325 9.98425 8.2225C9.79677 8.05334 9.5515 7.94762 9.27944 7.94762C9.1124 7.94762 8.95594 7.98991 8.81497 8.05969C8.88475 7.91873 8.92704 7.76226 8.92704 7.59522C8.92704 7.01164 8.45341 6.53801 7.86983 6.53801C7.73027 6.53801 7.59848 6.5662 7.47654 6.61554C7.35532 6.16587 6.94794 5.8332 6.46021 5.8332C5.87663 5.8332 5.403 6.30683 5.403 6.89041C5.403 7.02996 5.43119 7.16176 5.48053 7.28369C5.31842 7.32739 5.17182 7.40845 5.05059 7.51769C4.86312 7.34854 4.61784 7.24282 4.34579 7.24282C3.76221 7.24282 3.28857 7.71645 3.28857 8.30003C3.28857 8.42407 3.31395 8.54178 3.35342 8.65243H4.76303C4.90893 8.24294 5.29587 7.94762 5.7554 7.94762V7.94762Z" fill="#FFAC33"/>
</g>
<path id="Vector_18" d="M1.87891 8.65243V9.35724C1.87891 9.74629 2.19466 10.062 2.58371 10.062H20.9087C21.2985 10.062 21.6135 9.74629 21.6135 9.35724V8.65243H1.87891Z" fill="white"/>
</g>
</g>
</svg>
