<svg width="23" height="24" viewBox="0 0 23 24" fill="none" xmlns="http://www.w3.org/2000/svg">
<g id="Group 45">
<g id="Emoji">
<path id="Vector" d="M8.71832 7.26321L4.91928 3.46417C5.4699 2.80304 5.44259 1.82273 4.82177 1.20256C4.16454 0.545332 3.09907 0.545332 2.4412 1.20256C2.0375 1.60625 1.88473 2.16337 1.97639 2.68603C1.45373 2.59437 0.896616 2.74714 0.49292 3.15083C-0.164307 3.80806 -0.164307 4.87418 0.49292 5.53141C1.11309 6.15223 2.0934 6.17888 2.75453 5.62892L6.55357 9.42796L8.71832 7.26321V7.26321Z" fill="#DBDBDB"/>
<path id="Vector_2" d="M21.0289 21.7391C22.1112 20.6567 24.8474 16.0119 21.0588 12.2246C18.4201 9.58658 16.295 9.7374 12.3374 8.75643C10.7141 8.21557 8.59877 6.26534 8.05726 5.72383C7.51575 6.26534 7.70492 8.24157 7.70492 8.24157C7.70492 8.24157 5.3484 8.43269 4.80688 8.97421C5.3484 9.51572 7.86159 11.8924 8.30104 13.0092C9.48483 16.7628 9.34961 18.672 11.9876 21.3107C16.3171 25.6395 19.9471 22.8208 21.0289 21.7391Z" fill="#7A7A7A"/>
</g>
<g id="Emoji_2">
<path id="Vector_3" d="M8.71832 7.26321L4.91928 3.46417C5.4699 2.80304 5.44259 1.82273 4.82177 1.20256C4.16454 0.545332 3.09907 0.545332 2.4412 1.20256C2.0375 1.60625 1.88473 2.16337 1.97639 2.68603C1.45373 2.59437 0.896616 2.74714 0.49292 3.15083C-0.164307 3.80806 -0.164307 4.87418 0.49292 5.53141C1.11309 6.15223 2.0934 6.17888 2.75453 5.62892L6.55357 9.42796L8.71832 7.26321V7.26321Z" fill="#FFD983"/>
<path id="Vector_4" d="M21.0289 21.7391C22.1112 20.6567 24.8474 16.0119 21.0588 12.2246C18.4201 9.58658 16.295 9.7374 12.3374 8.75643C10.7141 8.21557 8.59877 6.26534 8.05726 5.72383C7.51575 6.26534 7.70492 8.24157 7.70492 8.24157C7.70492 8.24157 5.3484 8.43269 4.80688 8.97421C5.3484 9.51572 7.86159 11.8924 8.30104 13.0092C9.48483 16.7628 9.34961 18.672 11.9876 21.3107C16.3171 25.6395 19.9471 22.8208 21.0289 21.7391Z" fill="#C1694F"/>
</g>
</g>
</svg>
