<svg width="20" height="24" viewBox="0 0 20 24" fill="none" xmlns="http://www.w3.org/2000/svg">
<g id="Group 51">
<g id="Emoji">
<g id="Group">
<path id="Vector" d="M7.79723 14.9722H7.75625C6.40053 14.928 4.60616 14.328 3.75636 11.7209C3.6699 11.4565 3.81335 11.1676 4.07847 11.0812C4.3436 10.9947 4.62729 11.1356 4.71374 11.4007L4.71566 11.4078C4.91547 12.0219 5.52448 13.8899 7.78955 13.9636C8.06812 13.9732 8.28649 14.2057 8.27752 14.4836C8.26856 14.7494 8.05723 14.9594 7.79723 14.9722V14.9722ZM4.37241 18.5821C4.46911 18.4406 4.63561 18.3522 4.81941 18.3631C6.76236 18.479 7.75112 17.122 8.07644 16.6763C8.24038 16.4509 8.55609 16.4016 8.78087 16.5655C9.00629 16.7294 9.04599 17.0439 8.89166 17.2699C7.80427 18.7621 6.41398 19.469 4.75921 19.3704C4.48128 19.3538 4.26867 19.1149 4.28532 18.8363C4.29172 18.7416 4.3231 18.6545 4.37241 18.5821V18.5821Z" fill="#3E3E3E"/>
<path id="Vector_2" d="M7.48665 15.9744C7.75625 15.9334 7.97783 15.8841 8.14113 15.8463L8.25576 15.8207C8.52856 15.7618 8.70083 15.4935 8.64191 15.2207C8.583 14.9485 8.31211 14.7737 8.04187 14.8345L7.91827 14.8621C7.22216 15.019 5.59044 15.3897 3.77942 14.1263C3.5508 13.9674 3.23572 14.0231 3.07755 14.2511C2.91809 14.4797 2.97444 14.7942 3.20242 14.953C4.90907 16.1441 6.51005 16.1224 7.48665 15.9744V15.9744Z" fill="#3E3E3E"/>
<path id="Vector_3" d="M8.15335 16.8268C8.39413 16.6994 8.82768 16.4272 8.82768 16.4272C9.06526 16.2812 9.13955 15.9712 8.99354 15.733C8.84817 15.4961 8.53374 15.4205 8.29936 15.5671L8.19177 15.6344C7.58724 16.0129 6.17069 16.903 4.04267 16.3113C3.77435 16.237 3.49577 16.3939 3.42149 16.6622C3.34656 16.9305 3.5041 17.2091 3.77242 17.2834C5.77749 17.8405 7.28113 17.2892 8.15335 16.8268V16.8268Z" fill="#3E3E3E"/>
</g>
<g id="Group_2">
<path id="Vector_4" d="M12.271 14.9722H12.312C13.6677 14.928 15.4621 14.328 16.3119 11.7209C16.3983 11.4565 16.2549 11.1676 15.9898 11.0812C15.7246 10.9947 15.441 11.1356 15.3545 11.4007L15.3526 11.4078C15.1528 12.0219 14.5438 13.8899 12.2787 13.9636C12.0001 13.9732 11.7818 14.2057 11.7907 14.4836C11.8003 14.7494 12.011 14.9594 12.271 14.9722V14.9722ZM15.6958 18.5821C15.5991 18.4406 15.4326 18.3522 15.2488 18.3631C13.3059 18.479 12.3171 17.122 11.9918 16.6763C11.8279 16.4509 11.5121 16.4016 11.2874 16.5655C11.062 16.7294 11.0222 17.0439 11.1766 17.2699C12.264 18.7621 13.6543 19.469 15.309 19.3704C15.587 19.3538 15.7996 19.1149 15.7829 18.8363C15.7772 18.7416 15.7458 18.6545 15.6958 18.5821V18.5821Z" fill="#3E3E3E"/>
<path id="Vector_5" d="M12.5816 15.9744C12.312 15.9334 12.0904 15.8841 11.9271 15.8463L11.8125 15.8207C11.5397 15.7618 11.3674 15.4935 11.4263 15.2207C11.4853 14.9485 11.7561 14.7737 12.0264 14.8345L12.15 14.8621C12.8461 15.019 14.4778 15.3897 16.2888 14.1263C16.5175 13.9674 16.8325 14.0231 16.9907 14.2511C17.1502 14.4797 17.0938 14.7942 16.8658 14.953C15.1598 16.1441 13.5582 16.1224 12.5816 15.9744V15.9744Z" fill="#3E3E3E"/>
<path id="Vector_6" d="M11.915 16.8268C11.6742 16.6994 11.2407 16.4272 11.2407 16.4272C11.0031 16.2812 10.9288 15.9712 11.0748 15.733C11.2202 15.4961 11.5346 15.4205 11.769 15.5671L11.8766 15.6344C12.4811 16.0129 13.8976 16.903 16.0257 16.3113C16.294 16.237 16.5726 16.3939 16.6469 16.6622C16.7218 16.9305 16.5642 17.2091 16.2959 17.2834C14.2908 17.8405 12.7872 17.2892 11.915 16.8268V16.8268Z" fill="#3E3E3E"/>
</g>
<path id="Vector_7" d="M4.04199 5.05894C4.52357 4.56007 5.52514 3.48293 5.06022 2.52683C5.66795 2.57614 9.38735 6.471 5.02179 8.33711C4.33529 8.24937 4.04199 5.05894 4.04199 5.05894V5.05894ZM9.65951 20.0403C9.19459 20.251 6.93785 21.4306 6.87124 23.5368C6.91543 24.0421 8.61951 22.7363 10.0796 22.7363V20.5244L9.65951 20.0403V20.0403Z" fill="#3E3E3E"/>
<path id="Vector_8" d="M10.4792 20.0403C10.9441 20.251 13.2009 21.4306 13.2675 23.5368C13.2233 24.0421 11.5192 22.7363 10.0591 22.7363V20.5244L10.4792 20.0403V20.0403ZM3.17874 8.31917C3.26391 9.2343 5.08391 10.1693 6.39543 10.3857C6.56321 10.0207 5.52834 8.95316 4.96928 8.30701C4.65676 7.94583 4.52036 7.0877 3.57002 7.46105C2.61968 7.8344 3.17874 8.31917 3.17874 8.31917V8.31917Z" fill="#3E3E3E"/>
<path id="Vector_9" d="M5.80898 9.45907C5.38953 9.45907 5.27746 10.5823 7.40292 11.0882C9.52838 11.5941 8.40193 10.526 8.07405 10.0207C7.65395 9.37454 5.80898 9.45907 5.80898 9.45907Z" fill="#3E3E3E"/>
<path id="Vector_10" d="M8.19325 16.8806C8.0735 17.5126 8.14522 20.8619 10.0895 21.1148V16.6283L8.19325 16.8806V16.8806Z" fill="#212121"/>
<path id="Vector_11" d="M15.983 5.05894C15.5014 4.56007 14.4998 3.48293 14.9648 2.52683C14.357 2.57614 10.6376 6.471 15.0032 8.33711C15.6897 8.24937 15.983 5.05894 15.983 5.05894V5.05894Z" fill="#3E3E3E"/>
<path id="Vector_12" d="M16.8455 8.31917C16.7603 9.2343 14.9403 10.1693 13.6288 10.3857C13.461 10.0207 14.4959 8.95316 15.0549 8.30701C15.3674 7.94583 15.5038 7.0877 16.4542 7.46105C17.4045 7.8344 16.8455 8.31917 16.8455 8.31917Z" fill="#3E3E3E"/>
<path id="Vector_13" d="M14.216 9.45907C14.6354 9.45907 14.7475 10.5823 12.622 11.0882C10.4966 11.5941 11.623 10.526 11.9509 10.0207C12.3703 9.37454 14.216 9.45907 14.216 9.45907V9.45907Z" fill="#3E3E3E"/>
<path id="Vector_14" d="M16.4707 0.65304C18.1569 1.0821 19.4645 3.91392 19.1437 5.6782C18.6429 8.43316 17.2276 9.38415 15.6676 9.62558C15.1886 9.58843 13.5588 7.40085 15.2988 5.60904C17.0387 3.81722 16.903 1.8589 16.4707 0.65304V0.65304Z" fill="#555555"/>
<path id="Vector_15" d="M9.52249 8.63105C9.35727 8.63105 9.21639 8.50361 9.20358 8.33583C8.88466 4.26934 7.51614 1.89092 5.3497 1.63796C5.17423 1.61747 5.04807 1.45865 5.06921 1.28255C5.0897 1.10772 5.24467 0.982843 5.42462 1.00205C6.87447 1.17112 9.37584 2.3424 9.84205 8.28588C9.8555 8.46198 9.72422 8.61632 9.54811 8.63041L9.52249 8.63105ZM10.4306 8.63105L10.405 8.63041C10.2288 8.61696 10.0969 8.46262 10.111 8.28588C10.5772 2.3424 13.0792 1.17112 14.5291 1.00205C14.702 0.97772 14.8634 1.10708 14.8845 1.28255C14.9043 1.45801 14.7788 1.61747 14.6034 1.63796C12.4369 1.89092 11.0684 4.26934 10.7495 8.33583C10.7367 8.50361 10.5964 8.63105 10.4306 8.63105Z" fill="#3E3E3E"/>
<path id="Vector_16" d="M10.0606 15.3808C10.0606 16.0212 10.0728 17.5107 10.0728 18.5033C9.70395 18.5033 9.11799 18.4931 8.51154 18.3112C7.55287 18.023 7.79878 15.813 8.11834 15.3007L10.0606 15.3808V15.3808Z" fill="#272727"/>
<path id="Vector_17" d="M10.0311 12.9466C10.0311 13.6594 10.0451 15.3174 10.0451 16.4227C9.62568 16.4227 8.95904 16.4118 8.26933 16.2088C7.17875 15.888 7.4586 13.4282 7.8217 12.8576L10.0311 12.9466Z" fill="#3E3E3E"/>
<path id="Vector_18" d="M10.0312 8.13858C10.0312 9.52759 10.2098 13.7881 10.2098 14.2204C9.31522 14.2204 6.81513 14.4362 6.95538 12.2134C7.09498 9.99124 8.46542 8.13858 10.0312 8.13858V8.13858Z" fill="#555555"/>
<path id="Vector_19" d="M11.8349 16.8806C11.9547 17.5126 11.883 20.8619 9.93872 21.1148V16.6283L11.8349 16.8806V16.8806Z" fill="#212121"/>
<path id="Vector_20" d="M9.96697 15.3808C9.96697 16.0212 9.86963 17.5107 9.86963 18.5033C10.2385 18.5033 10.9096 18.4931 11.5154 18.3112C12.4741 18.023 12.2282 15.813 11.9086 15.3007L9.96697 15.3808Z" fill="#272727"/>
<path id="Vector_21" d="M9.99702 12.9466C9.99702 13.6594 9.89136 15.3174 9.89136 16.4227C10.3108 16.4227 11.0697 16.4118 11.7587 16.2088C12.8493 15.888 12.5695 13.4282 12.2064 12.8576L9.99702 12.9466V12.9466Z" fill="#3E3E3E"/>
<path id="Vector_22" d="M9.99708 8.13858C9.99708 9.52759 9.8626 13.7881 9.8626 14.2204C10.7572 14.2204 13.2125 14.4362 13.0729 12.2134C12.9333 9.9906 11.5628 8.13858 9.99708 8.13858V8.13858ZM3.55346 0.65304C1.86731 1.0821 0.559625 3.91392 0.880462 5.6782C1.38125 8.43316 2.79651 9.38415 4.35651 9.62557C4.83552 9.58843 6.46532 7.40085 4.72538 5.60903C2.98543 3.81722 3.12183 1.8589 3.55346 0.65304Z" fill="#555555"/>
<path id="Vector_23" d="M9.06627 9.81719C9.41973 9.75444 9.63433 9.29846 9.54561 8.79875C9.45688 8.29904 9.09842 7.94481 8.74497 8.00757C8.39151 8.07033 8.17691 8.5263 8.26563 9.02601C8.35436 9.52573 8.71281 9.87995 9.06627 9.81719Z" fill="#3E3E3E"/>
<path id="Vector_24" d="M11.6573 8.99819C11.746 8.49847 11.5313 8.04252 11.1779 7.97981C10.8244 7.9171 10.466 8.27136 10.3773 8.77109C10.2887 9.27081 10.5033 9.72676 10.8568 9.78947C11.2103 9.85218 11.5687 9.49792 11.6573 8.99819Z" fill="#3E3E3E"/>
<path id="Vector_25" d="M8.98644 9.36391C9.33989 9.30115 9.5545 8.84518 9.46577 8.34547C9.37705 7.84575 9.01859 7.49153 8.66513 7.55428C8.31168 7.61704 8.09707 8.07301 8.1858 8.57273C8.27452 9.07244 8.63298 9.42666 8.98644 9.36391Z" fill="#2E2E2E"/>
<path id="Vector_26" d="M11.7308 8.57297C11.8195 8.07325 11.6048 7.6173 11.2514 7.55459C10.8979 7.49188 10.5395 7.84614 10.4508 8.34587C10.3622 8.84559 10.5768 9.30154 10.9303 9.36425C11.2837 9.42697 11.6422 9.0727 11.7308 8.57297Z" fill="#2E2E2E"/>
<path id="Vector_27" d="M7.49512 12.7334C7.67507 13.2739 8.03561 13.8541 9.95678 13.8541C11.2978 13.8541 12.6183 13.6139 12.5786 12.6335C12.0784 13.0536 11.4579 13.2342 9.95678 13.2342C8.3558 13.2342 7.49512 12.7334 7.49512 12.7334V12.7334Z" fill="#797979"/>
<path id="Vector_28" d="M8.06958 15.3059C8.20919 15.6869 8.48776 16.0961 9.97475 16.0961C11.0122 16.0961 12.0349 15.927 12.0035 15.2354C11.6161 15.5319 11.1364 15.6587 9.97475 15.6587C8.73559 15.6581 8.06958 15.3059 8.06958 15.3059Z" fill="#555555"/>
<path id="Vector_29" d="M8.13599 17.3333C8.26727 17.7144 8.52983 18.1236 9.93101 18.1236C10.9089 18.1236 11.872 17.9545 11.8432 17.2629C11.4782 17.5594 11.0261 17.6862 9.93101 17.6862C8.76357 17.6862 8.13599 17.3333 8.13599 17.3333V17.3333Z" fill="#3E3E3E"/>
<path id="Vector_30" d="M3.93252 8.811C3.86464 8.811 3.79548 8.79691 3.73016 8.76617C2.43272 8.16164 1.70844 7.08834 1.5778 5.57702C1.55474 5.31317 1.7475 5.05702 2.01134 5.03396C2.27582 5.01091 2.50637 5.18189 2.53006 5.44574L2.5339 5.49441C2.57489 5.96637 2.68311 7.21898 4.13552 7.89588C4.37567 8.00794 4.48005 8.29356 4.36799 8.53435C4.28666 8.70853 4.11375 8.811 3.93252 8.811V8.811ZM16.0603 8.811C15.8797 8.811 15.7061 8.70853 15.6248 8.53371C15.5127 8.29356 15.6165 8.0073 15.8573 7.89524C17.3097 7.21834 17.4179 5.96573 17.4582 5.49376L17.9411 5.48864L18.4156 5.57638C18.2843 7.0877 17.5601 8.161 16.2626 8.76553C16.1973 8.79691 16.1281 8.811 16.0603 8.811V8.811Z" fill="#797979"/>
</g>
<g id="Emoji_2">
<g id="Group_3">
<path id="Vector_31" d="M7.79723 14.9722H7.75625C6.40053 14.928 4.60616 14.328 3.75636 11.7209C3.6699 11.4565 3.81335 11.1676 4.07847 11.0812C4.3436 10.9947 4.62729 11.1356 4.71374 11.4007L4.71566 11.4078C4.91547 12.0219 5.52448 13.8899 7.78955 13.9636C8.06812 13.9732 8.28649 14.2057 8.27752 14.4836C8.26856 14.7494 8.05723 14.9594 7.79723 14.9722V14.9722ZM4.37241 18.5821C4.46911 18.4406 4.63561 18.3522 4.81941 18.3631C6.76236 18.479 7.75112 17.122 8.07644 16.6763C8.24038 16.4509 8.55609 16.4016 8.78087 16.5655C9.00629 16.7294 9.04599 17.0439 8.89166 17.2699C7.80427 18.7621 6.41398 19.469 4.75921 19.3704C4.48128 19.3538 4.26867 19.1149 4.28532 18.8363C4.29172 18.7416 4.3231 18.6545 4.37241 18.5821V18.5821Z" fill="#BE1931"/>
<path id="Vector_32" d="M7.48665 15.9744C7.75625 15.9334 7.97783 15.8841 8.14113 15.8463L8.25576 15.8207C8.52856 15.7618 8.70083 15.4935 8.64191 15.2207C8.583 14.9485 8.31211 14.7737 8.04187 14.8345L7.91827 14.8621C7.22216 15.019 5.59044 15.3897 3.77942 14.1263C3.5508 13.9674 3.23572 14.0231 3.07755 14.2511C2.91809 14.4797 2.97444 14.7942 3.20242 14.953C4.90907 16.1441 6.51005 16.1224 7.48665 15.9744V15.9744Z" fill="#BE1931"/>
<path id="Vector_33" d="M8.15335 16.8268C8.39413 16.6994 8.82768 16.4272 8.82768 16.4272C9.06526 16.2812 9.13955 15.9712 8.99354 15.733C8.84817 15.4961 8.53374 15.4205 8.29936 15.5671L8.19177 15.6344C7.58724 16.0129 6.17069 16.903 4.04267 16.3113C3.77435 16.237 3.49577 16.3939 3.42149 16.6622C3.34656 16.9305 3.5041 17.2091 3.77242 17.2834C5.77749 17.8405 7.28113 17.2892 8.15335 16.8268V16.8268Z" fill="#BE1931"/>
</g>
<g id="Group_4">
<path id="Vector_34" d="M12.271 14.9722H12.312C13.6677 14.928 15.4621 14.328 16.3119 11.7209C16.3983 11.4565 16.2549 11.1676 15.9898 11.0812C15.7246 10.9947 15.441 11.1356 15.3545 11.4007L15.3526 11.4078C15.1528 12.0219 14.5438 13.8899 12.2787 13.9636C12.0001 13.9732 11.7818 14.2057 11.7907 14.4836C11.8003 14.7494 12.011 14.9594 12.271 14.9722V14.9722ZM15.6958 18.5821C15.5991 18.4406 15.4326 18.3522 15.2488 18.3631C13.3059 18.479 12.3171 17.122 11.9918 16.6763C11.8279 16.4509 11.5121 16.4016 11.2874 16.5655C11.062 16.7294 11.0222 17.0439 11.1766 17.2699C12.264 18.7621 13.6543 19.469 15.309 19.3704C15.587 19.3538 15.7996 19.1149 15.7829 18.8363C15.7772 18.7416 15.7458 18.6545 15.6958 18.5821V18.5821Z" fill="#BE1931"/>
<path id="Vector_35" d="M12.5816 15.9744C12.312 15.9334 12.0904 15.8841 11.9271 15.8463L11.8125 15.8207C11.5397 15.7618 11.3674 15.4935 11.4263 15.2207C11.4853 14.9485 11.7561 14.7737 12.0264 14.8345L12.15 14.8621C12.8461 15.019 14.4778 15.3897 16.2888 14.1263C16.5175 13.9674 16.8325 14.0231 16.9907 14.2511C17.1502 14.4797 17.0938 14.7942 16.8658 14.953C15.1598 16.1441 13.5582 16.1224 12.5816 15.9744V15.9744Z" fill="#BE1931"/>
<path id="Vector_36" d="M11.915 16.8268C11.6742 16.6994 11.2407 16.4272 11.2407 16.4272C11.0031 16.2812 10.9288 15.9712 11.0748 15.733C11.2202 15.4961 11.5346 15.4205 11.769 15.5671L11.8766 15.6344C12.4811 16.0129 13.8976 16.903 16.0257 16.3113C16.294 16.237 16.5726 16.3939 16.6469 16.6622C16.7218 16.9305 16.5642 17.2091 16.2959 17.2834C14.2908 17.8405 12.7872 17.2892 11.915 16.8268V16.8268Z" fill="#BE1931"/>
</g>
<path id="Vector_37" d="M4.04199 5.05894C4.52357 4.56007 5.52514 3.48293 5.06022 2.52683C5.66795 2.57614 9.38735 6.471 5.02179 8.33711C4.33529 8.24937 4.04199 5.05894 4.04199 5.05894V5.05894ZM9.65951 20.0403C9.19459 20.251 6.93785 21.4306 6.87124 23.5368C6.91543 24.0421 8.61951 22.7363 10.0796 22.7363V20.5244L9.65951 20.0403V20.0403Z" fill="#BE1931"/>
<path id="Vector_38" d="M10.4792 20.0403C10.9441 20.251 13.2009 21.4306 13.2675 23.5368C13.2233 24.0421 11.5192 22.7363 10.0591 22.7363V20.5244L10.4792 20.0403V20.0403ZM3.17874 8.31917C3.26391 9.2343 5.08391 10.1693 6.39543 10.3857C6.56321 10.0207 5.52834 8.95316 4.96928 8.30701C4.65676 7.94583 4.52036 7.0877 3.57002 7.46105C2.61968 7.8344 3.17874 8.31917 3.17874 8.31917V8.31917Z" fill="#BE1931"/>
<path id="Vector_39" d="M5.80898 9.45907C5.38953 9.45907 5.27746 10.5823 7.40292 11.0882C9.52838 11.5941 8.40193 10.526 8.07405 10.0207C7.65395 9.37454 5.80898 9.45907 5.80898 9.45907Z" fill="#BE1931"/>
<path id="Vector_40" d="M8.19325 16.8806C8.0735 17.5126 8.14522 20.8619 10.0895 21.1148V16.6283L8.19325 16.8806V16.8806Z" fill="#89021F"/>
<path id="Vector_41" d="M15.983 5.05894C15.5014 4.56007 14.4998 3.48293 14.9648 2.52683C14.357 2.57614 10.6376 6.471 15.0032 8.33711C15.6897 8.24937 15.983 5.05894 15.983 5.05894V5.05894Z" fill="#BE1931"/>
<path id="Vector_42" d="M16.8455 8.31917C16.7603 9.2343 14.9403 10.1693 13.6288 10.3857C13.461 10.0207 14.4959 8.95316 15.0549 8.30701C15.3674 7.94583 15.5038 7.0877 16.4542 7.46105C17.4045 7.8344 16.8455 8.31917 16.8455 8.31917Z" fill="#BE1931"/>
<path id="Vector_43" d="M14.216 9.45907C14.6354 9.45907 14.7475 10.5823 12.622 11.0882C10.4966 11.5941 11.623 10.526 11.9509 10.0207C12.3703 9.37454 14.216 9.45907 14.216 9.45907V9.45907Z" fill="#BE1931"/>
<path id="Vector_44" d="M16.4707 0.65304C18.1569 1.0821 19.4645 3.91392 19.1437 5.6782C18.6429 8.43316 17.2276 9.38415 15.6676 9.62558C15.1886 9.58843 13.5588 7.40085 15.2988 5.60904C17.0387 3.81722 16.903 1.8589 16.4707 0.65304V0.65304Z" fill="#DD2E44"/>
<path id="Vector_45" d="M9.52249 8.63105C9.35727 8.63105 9.21639 8.50361 9.20358 8.33583C8.88466 4.26934 7.51614 1.89092 5.3497 1.63796C5.17423 1.61747 5.04807 1.45865 5.06921 1.28255C5.0897 1.10772 5.24467 0.982843 5.42462 1.00205C6.87447 1.17112 9.37584 2.3424 9.84205 8.28588C9.8555 8.46198 9.72422 8.61632 9.54811 8.63041L9.52249 8.63105ZM10.4306 8.63105L10.405 8.63041C10.2288 8.61696 10.0969 8.46262 10.111 8.28588C10.5772 2.3424 13.0792 1.17112 14.5291 1.00205C14.702 0.97772 14.8634 1.10708 14.8845 1.28255C14.9043 1.45801 14.7788 1.61747 14.6034 1.63796C12.4369 1.89092 11.0684 4.26934 10.7495 8.33583C10.7367 8.50361 10.5964 8.63105 10.4306 8.63105Z" fill="#BE1931"/>
<path id="Vector_46" d="M10.0606 15.3808C10.0606 16.0212 10.0728 17.5107 10.0728 18.5033C9.70395 18.5033 9.11799 18.4931 8.51154 18.3112C7.55287 18.023 7.79878 15.813 8.11834 15.3007L10.0606 15.3808V15.3808Z" fill="#A0041E"/>
<path id="Vector_47" d="M10.0311 12.9466C10.0311 13.6594 10.0451 15.3174 10.0451 16.4227C9.62568 16.4227 8.95904 16.4118 8.26933 16.2088C7.17875 15.888 7.4586 13.4282 7.8217 12.8576L10.0311 12.9466Z" fill="#BE1931"/>
<path id="Vector_48" d="M10.0312 8.13858C10.0312 9.52759 10.2098 13.7881 10.2098 14.2204C9.31522 14.2204 6.81513 14.4362 6.95538 12.2134C7.09498 9.99124 8.46542 8.13858 10.0312 8.13858V8.13858Z" fill="#DD2E44"/>
<path id="Vector_49" d="M11.8349 16.8806C11.9547 17.5126 11.883 20.8619 9.93872 21.1148V16.6283L11.8349 16.8806V16.8806Z" fill="#89021F"/>
<path id="Vector_50" d="M9.96697 15.3808C9.96697 16.0212 9.86963 17.5107 9.86963 18.5033C10.2385 18.5033 10.9096 18.4931 11.5154 18.3112C12.4741 18.023 12.2282 15.813 11.9086 15.3007L9.96697 15.3808Z" fill="#A0041E"/>
<path id="Vector_51" d="M9.99702 12.9466C9.99702 13.6594 9.89136 15.3174 9.89136 16.4227C10.3108 16.4227 11.0697 16.4118 11.7587 16.2088C12.8493 15.888 12.5695 13.4282 12.2064 12.8576L9.99702 12.9466V12.9466Z" fill="#BE1931"/>
<path id="Vector_52" d="M9.99708 8.13858C9.99708 9.52759 9.8626 13.7881 9.8626 14.2204C10.7572 14.2204 13.2125 14.4362 13.0729 12.2134C12.9333 9.9906 11.5628 8.13858 9.99708 8.13858V8.13858ZM3.55346 0.65304C1.86731 1.0821 0.559625 3.91392 0.880462 5.6782C1.38125 8.43316 2.79651 9.38415 4.35651 9.62557C4.83552 9.58843 6.46532 7.40085 4.72538 5.60903C2.98543 3.81722 3.12183 1.8589 3.55346 0.65304Z" fill="#DD2E44"/>
<path id="Vector_53" d="M9.06627 9.81719C9.41973 9.75444 9.63433 9.29846 9.54561 8.79875C9.45688 8.29904 9.09842 7.94481 8.74497 8.00757C8.39151 8.07033 8.17691 8.5263 8.26563 9.02601C8.35436 9.52573 8.71281 9.87995 9.06627 9.81719Z" fill="#BE1931"/>
<path id="Vector_54" d="M11.6573 8.99819C11.746 8.49847 11.5313 8.04252 11.1779 7.97981C10.8244 7.9171 10.466 8.27136 10.3773 8.77109C10.2887 9.27081 10.5033 9.72676 10.8568 9.78947C11.2103 9.85218 11.5687 9.49792 11.6573 8.99819Z" fill="#BE1931"/>
<path id="Vector_55" d="M8.98644 9.36391C9.33989 9.30115 9.5545 8.84518 9.46577 8.34547C9.37705 7.84575 9.01859 7.49153 8.66513 7.55428C8.31168 7.61704 8.09707 8.07301 8.1858 8.57273C8.27452 9.07244 8.63298 9.42666 8.98644 9.36391Z" fill="#292F33"/>
<path id="Vector_56" d="M11.7308 8.57297C11.8195 8.07325 11.6048 7.6173 11.2514 7.55459C10.8979 7.49188 10.5395 7.84614 10.4508 8.34587C10.3622 8.84559 10.5768 9.30154 10.9303 9.36425C11.2837 9.42697 11.6422 9.0727 11.7308 8.57297Z" fill="#292F33"/>
<path id="Vector_57" d="M7.49512 12.7334C7.67507 13.2739 8.03561 13.8541 9.95678 13.8541C11.2978 13.8541 12.6183 13.6139 12.5786 12.6335C12.0784 13.0536 11.4579 13.2342 9.95678 13.2342C8.3558 13.2342 7.49512 12.7334 7.49512 12.7334V12.7334Z" fill="#EA596E"/>
<path id="Vector_58" d="M8.06958 15.3059C8.20919 15.6869 8.48776 16.0961 9.97475 16.0961C11.0122 16.0961 12.0349 15.927 12.0035 15.2354C11.6161 15.5319 11.1364 15.6587 9.97475 15.6587C8.73559 15.6581 8.06958 15.3059 8.06958 15.3059Z" fill="#DD2E44"/>
<path id="Vector_59" d="M8.13599 17.3333C8.26727 17.7144 8.52983 18.1236 9.93101 18.1236C10.9089 18.1236 11.872 17.9545 11.8432 17.2629C11.4782 17.5594 11.0261 17.6862 9.93101 17.6862C8.76357 17.6862 8.13599 17.3333 8.13599 17.3333V17.3333Z" fill="#BE1931"/>
<path id="Vector_60" d="M3.93252 8.811C3.86464 8.811 3.79548 8.79691 3.73016 8.76617C2.43272 8.16164 1.70844 7.08834 1.5778 5.57702C1.55474 5.31317 1.7475 5.05702 2.01134 5.03396C2.27582 5.01091 2.50637 5.18189 2.53006 5.44574L2.5339 5.49441C2.57489 5.96637 2.68311 7.21898 4.13552 7.89588C4.37567 8.00794 4.48005 8.29356 4.36799 8.53435C4.28666 8.70853 4.11375 8.811 3.93252 8.811V8.811ZM16.0603 8.811C15.8797 8.811 15.7061 8.70853 15.6248 8.53371C15.5127 8.29356 15.6165 8.0073 15.8573 7.89524C17.3097 7.21834 17.4179 5.96573 17.4582 5.49376L17.9411 5.48864L18.4156 5.57638C18.2843 7.0877 17.5601 8.161 16.2626 8.76553C16.1973 8.79691 16.1281 8.811 16.0603 8.811V8.811Z" fill="#EA596E"/>
</g>
</g>
</svg>
