<svg width="24" height="15" viewBox="0 0 24 15" fill="none" xmlns="http://www.w3.org/2000/svg">
<g id="Group 53">
<g id="Emoji">
<path id="Vector" d="M8.56828 0.125261C4.335 0.125261 0.901611 4.70226 0.901611 10.3475H4.73494V14.1808H15.6721C16.0324 12.9963 16.2349 11.7038 16.2349 10.3475C16.2349 4.70226 12.8022 0.125261 8.56828 0.125261Z" fill="#E9E9E9"/>
<path id="Vector_2" d="M19.4294 9.06971H22.5574C22.0846 4.02887 18.8659 0.125261 14.9572 0.125261C10.7233 0.125261 7.29053 4.70226 7.29053 10.3475C7.29053 11.7038 7.49306 12.9963 7.85275 14.1808H19.4294V9.06971Z" fill="#E9E9E9"/>
<path id="Vector_3" d="M23.9017 10.3475C23.9017 4.70226 20.4689 0.125261 16.235 0.125261C12.0017 0.125261 8.56836 4.70226 8.56836 10.3475C8.56836 11.7038 8.77089 12.9963 9.13058 14.1808H20.0684C22.1856 14.1808 23.9017 12.4654 23.9017 10.3475Z" fill="#B5B5B5"/>
<path id="Vector_4" d="M4.73486 10.3475H11.1238V14.1808H4.73486V10.3475Z" fill="#B5B5B5"/>
<path id="Vector_5" d="M0.901611 10.3475C0.901611 8.23148 2.61831 6.51415 4.73494 6.51415C6.85158 6.51415 8.56828 8.23084 8.56828 10.3475C8.56828 12.4654 6.85158 14.1808 4.73494 14.1808C2.61831 14.1808 0.901611 12.4654 0.901611 10.3475Z" fill="#E9E9E9"/>
<path id="Vector_6" d="M9.84611 0.125261C5.61283 0.125261 2.17944 4.70226 2.17944 10.3475C2.17944 11.7594 3.32369 12.903 4.735 12.903C6.1463 12.903 7.29055 11.7594 7.29055 10.3475C7.29055 5.8989 9.42572 2.12434 12.4017 0.720067C11.6011 0.341845 10.7437 0.125261 9.84611 0.125261Z" fill="#B5B5B5"/>
<path id="Vector_7" d="M3.45725 10.9864C3.8101 10.9864 4.09614 10.7003 4.09614 10.3475C4.09614 9.99464 3.8101 9.7086 3.45725 9.7086C3.1044 9.7086 2.81836 9.99464 2.81836 10.3475C2.81836 10.7003 3.1044 10.9864 3.45725 10.9864Z" fill="#A9A9A9"/>
<path id="Vector_8" d="M7.27464 10.5072C7.19797 10.0542 6.80697 9.70859 6.33228 9.70859C6.21728 9.70859 6.10866 9.73223 6.00644 9.76929C6.00772 9.74821 6.01283 9.72904 6.01283 9.70859C6.01283 9.00326 5.44039 8.43082 4.73505 8.43082C4.02972 8.43082 3.45728 9.00326 3.45728 9.70859C3.45728 10.044 3.58953 10.3475 3.80164 10.5756C3.59272 10.7519 3.45728 11.0113 3.45728 11.3058C3.45728 11.739 3.74669 12.1006 4.14089 12.2194C4.24758 12.5753 4.5568 12.834 4.93375 12.8832C6.19747 12.7836 7.19541 11.776 7.27464 10.5072Z" fill="#7A7A7A"/>
<path id="Vector_9" d="M6.97103 9.06971C6.44203 9.06971 6.0127 9.49904 6.0127 10.028C6.0127 10.557 6.44203 10.9864 6.97103 10.9864C7.05408 10.9864 7.13331 10.973 7.21061 10.9525C7.25853 10.7577 7.29047 10.557 7.29047 10.3475C7.29047 9.94051 7.31411 9.54184 7.34861 9.14765C7.23297 9.09782 7.10583 9.06971 6.97103 9.06971Z" fill="#A9A9A9"/>
<path id="Vector_10" d="M5.05428 9.06971C5.58355 9.06971 6.01261 8.78366 6.01261 8.43082C6.01261 8.07797 5.58355 7.79193 5.05428 7.79193C4.52501 7.79193 4.09595 8.07797 4.09595 8.43082C4.09595 8.78366 4.52501 9.06971 5.05428 9.06971Z" fill="#CECECE"/>
<path id="Vector_11" d="M5.37375 9.70859C5.7266 9.70859 6.01264 9.42255 6.01264 9.06971C6.01264 8.71686 5.7266 8.43082 5.37375 8.43082C5.0209 8.43082 4.73486 8.71686 4.73486 9.06971C4.73486 9.42255 5.0209 9.70859 5.37375 9.70859Z" fill="#CECECE"/>
<path id="Vector_12" d="M6.65158 9.70859C7.00443 9.70859 7.29047 9.42255 7.29047 9.06971C7.29047 8.71686 7.00443 8.43082 6.65158 8.43082C6.29874 8.43082 6.0127 8.71686 6.0127 9.06971C6.0127 9.42255 6.29874 9.70859 6.65158 9.70859Z" fill="#7A7A7A"/>
<path id="Vector_13" d="M4.09616 10.3475C4.44901 10.3475 4.73505 10.0614 4.73505 9.70859C4.73505 9.35575 4.44901 9.06971 4.09616 9.06971C3.74332 9.06971 3.45728 9.35575 3.45728 9.70859C3.45728 10.0614 3.74332 10.3475 4.09616 10.3475Z" fill="#A9A9A9"/>
<path id="Vector_14" d="M5.37375 10.3475C5.7266 10.3475 6.01264 10.0614 6.01264 9.70859C6.01264 9.35575 5.7266 9.06971 5.37375 9.06971C5.0209 9.06971 4.73486 9.35575 4.73486 9.70859C4.73486 10.0614 5.0209 10.3475 5.37375 10.3475Z" fill="#A9A9A9"/>
<path id="Vector_15" d="M6.01267 9.06971C6.36552 9.06971 6.65156 8.78366 6.65156 8.43082C6.65156 8.07797 6.36552 7.79193 6.01267 7.79193C5.65982 7.79193 5.37378 8.07797 5.37378 8.43082C5.37378 8.78366 5.65982 9.06971 6.01267 9.06971Z" fill="#DBDBDB"/>
<path id="Vector_16" d="M5.37375 7.79193C5.7266 7.79193 6.01264 7.50589 6.01264 7.15304C6.01264 6.80019 5.7266 6.51415 5.37375 6.51415C5.0209 6.51415 4.73486 6.80019 4.73486 7.15304C4.73486 7.50589 5.0209 7.79193 5.37375 7.79193Z" fill="#E9E9E9"/>
<path id="Vector_17" d="M4.73484 9.06971C5.08768 9.06971 5.37373 8.78366 5.37373 8.43082C5.37373 8.07797 5.08768 7.79193 4.73484 7.79193C4.38199 7.79193 4.09595 8.07797 4.09595 8.43082C4.09595 8.78366 4.38199 9.06971 4.73484 9.06971Z" fill="#E9E9E9"/>
<path id="Vector_18" d="M6.65158 7.79193C7.00443 7.79193 7.29047 7.50589 7.29047 7.15304C7.29047 6.80019 7.00443 6.51415 6.65158 6.51415C6.29874 6.51415 6.0127 6.80019 6.0127 7.15304C6.0127 7.50589 6.29874 7.79193 6.65158 7.79193Z" fill="#DBDBDB"/>
<path id="Vector_19" d="M6.65158 9.06971C7.00443 9.06971 7.29047 8.78366 7.29047 8.43082C7.29047 8.07797 7.00443 7.79193 6.65158 7.79193C6.29874 7.79193 6.0127 8.07797 6.0127 8.43082C6.0127 8.78366 6.29874 9.06971 6.65158 9.06971Z" fill="#DBDBDB"/>
<path id="Vector_20" d="M6.65158 8.43082C7.00443 8.43082 7.29047 8.14478 7.29047 7.79193C7.29047 7.43908 7.00443 7.15304 6.65158 7.15304C6.29874 7.15304 6.0127 7.43908 6.0127 7.79193C6.0127 8.14478 6.29874 8.43082 6.65158 8.43082Z" fill="#DBDBDB"/>
<path id="Vector_21" d="M6.65158 8.43082C7.00443 8.43082 7.29047 8.14478 7.29047 7.79193C7.29047 7.43908 7.00443 7.15304 6.65158 7.15304C6.29874 7.15304 6.0127 7.43908 6.0127 7.79193C6.0127 8.14478 6.29874 8.43082 6.65158 8.43082Z" fill="#E9E9E9"/>
<path id="Vector_22" d="M7.65584 3.60912C7.48206 3.43087 7.23992 3.31971 6.97095 3.31971C6.49945 3.31971 6.10973 3.66023 6.02986 4.10873C5.8925 4.01993 5.72448 3.95859 5.53345 3.95859C5.09261 3.95859 4.73484 4.24482 4.73484 4.59748C4.73484 4.71887 4.7885 4.82621 4.86261 4.92332C4.78403 5.0166 4.73484 5.12201 4.73484 5.23637C4.38217 5.23637 4.09595 5.52259 4.09595 5.87526C4.09595 6.00432 4.14386 6.1174 4.20967 6.21835C4.13939 6.30715 4.09595 6.40682 4.09595 6.51415C4.09595 6.86682 4.52464 7.15304 5.05428 7.15304C5.329 7.15304 5.57498 7.07509 5.75003 6.95115C5.91231 7.07573 6.11228 7.15304 6.33206 7.15304C6.45856 7.15304 6.57803 7.12684 6.68856 7.08276C6.7927 7.46737 7.12939 7.74848 7.53892 7.77979C7.85517 6.15446 8.46531 4.69076 9.2882 3.48646C9.08311 3.38168 8.83586 3.31971 8.56817 3.31971C8.21039 3.31971 7.88775 3.43087 7.65584 3.60912Z" fill="#9F9F9F"/>
<path id="Vector_23" d="M6.01267 5.87526C6.36552 5.87526 6.65156 5.58922 6.65156 5.23637C6.65156 4.88352 6.36552 4.59748 6.01267 4.59748C5.65982 4.59748 5.37378 4.88352 5.37378 5.23637C5.37378 5.58922 5.65982 5.87526 6.01267 5.87526Z" fill="#C4C4C4"/>
<path id="Vector_24" d="M7.2905 4.27804C7.2905 4.45437 7.14739 4.59748 6.97106 4.59748C6.79472 4.59748 6.65161 4.45501 6.65161 4.27804C6.65161 4.10171 6.79472 3.9586 6.97106 3.9586C7.14739 3.9586 7.2905 4.10171 7.2905 4.27804Z" fill="#C4C4C4"/>
<path id="Vector_25" d="M5.05431 6.51415C5.23073 6.51415 5.37375 6.37113 5.37375 6.1947C5.37375 6.01828 5.23073 5.87526 5.05431 5.87526C4.87788 5.87526 4.73486 6.01828 4.73486 6.1947C4.73486 6.37113 4.87788 6.51415 5.05431 6.51415Z" fill="#C4C4C4"/>
<path id="Vector_26" d="M7.2905 6.1947C7.2905 6.37104 7.14739 6.51415 6.97106 6.51415C6.79472 6.51415 6.65161 6.37168 6.65161 6.1947C6.65161 6.01773 6.79472 5.87526 6.97106 5.87526C7.14739 5.87526 7.2905 6.01837 7.2905 6.1947Z" fill="#C4C4C4"/>
<path id="Vector_27" d="M7.2905 5.87526C7.64335 5.87526 7.92939 5.58922 7.92939 5.23637C7.92939 4.88352 7.64335 4.59748 7.2905 4.59748C6.93765 4.59748 6.65161 4.88352 6.65161 5.23637C6.65161 5.58922 6.93765 5.87526 7.2905 5.87526Z" fill="#C4C4C4"/>
<path id="Vector_28" d="M6.65158 3.95859C7.00443 3.95859 7.29047 3.67255 7.29047 3.31971C7.29047 2.96686 7.00443 2.68082 6.65158 2.68082C6.29874 2.68082 6.0127 2.96686 6.0127 3.31971C6.0127 3.67255 6.29874 3.95859 6.65158 3.95859Z" fill="#555555"/>
<path id="Vector_29" d="M7.92942 3.95859C8.28226 3.95859 8.56831 3.67255 8.56831 3.31971C8.56831 2.96686 8.28226 2.68082 7.92942 2.68082C7.57657 2.68082 7.29053 2.96686 7.29053 3.31971C7.29053 3.67255 7.57657 3.95859 7.92942 3.95859Z" fill="#DBDBDB"/>
<path id="Vector_30" d="M8.56833 2.68082C8.92118 2.68082 9.20722 2.39478 9.20722 2.04193C9.20722 1.68908 8.92118 1.40304 8.56833 1.40304C8.21548 1.40304 7.92944 1.68908 7.92944 2.04193C7.92944 2.39478 8.21548 2.68082 8.56833 2.68082Z" fill="#DBDBDB"/>
<path id="Vector_31" d="M6.65158 5.23637C7.00443 5.23637 7.29047 4.95033 7.29047 4.59748C7.29047 4.24464 7.00443 3.9586 6.65158 3.9586C6.29874 3.9586 6.0127 4.24464 6.0127 4.59748C6.0127 4.95033 6.29874 5.23637 6.65158 5.23637Z" fill="#DBDBDB"/>
<path id="Vector_32" d="M10.485 1.40304C10.1324 1.40304 9.84614 1.68926 9.84614 2.04193C9.84614 2.06429 9.85636 2.08282 9.85892 2.10454C9.75542 2.06621 9.64425 2.04193 9.52669 2.04193C8.99705 2.04193 8.56836 2.47062 8.56836 3.00026C8.56836 3.35868 8.76705 3.66662 9.05839 3.83146C9.59825 2.9664 10.2442 2.22593 10.968 1.63623C10.8511 1.49696 10.6818 1.40304 10.485 1.40304Z" fill="#C4C4C4"/>
<path id="Vector_33" d="M8.56833 3.31971C8.92118 3.31971 9.20722 3.03366 9.20722 2.68082C9.20722 2.32797 8.92118 2.04193 8.56833 2.04193C8.21548 2.04193 7.92944 2.32797 7.92944 2.68082C7.92944 3.03366 8.21548 3.31971 8.56833 3.31971Z" fill="#555555"/>
<path id="Vector_34" d="M10.4767 1.50539C10.5332 1.1571 10.2967 0.828932 9.94838 0.772403C9.60009 0.715873 9.27192 0.952393 9.21539 1.30068C9.15886 1.64897 9.39538 1.97715 9.74367 2.03368C10.092 2.0902 10.4201 1.85369 10.4767 1.50539Z" fill="#555555"/>
<path id="Vector_35" d="M11.7627 12.2642C12.1155 12.2642 12.4016 11.9781 12.4016 11.6253C12.4016 11.2724 12.1155 10.9864 11.7627 10.9864C11.4098 10.9864 11.1238 11.2724 11.1238 11.6253C11.1238 11.9781 11.4098 12.2642 11.7627 12.2642Z" fill="#9C9C9C"/>
<path id="Vector_36" d="M9.20725 14.1808C9.5601 14.1808 9.84614 13.8948 9.84614 13.5419C9.84614 13.1891 9.5601 12.903 9.20725 12.903C8.8544 12.903 8.56836 13.1891 8.56836 13.5419C8.56836 13.8948 8.8544 14.1808 9.20725 14.1808Z" fill="#9C9C9C"/>
<path id="Vector_37" d="M13.0405 14.1808C13.3933 14.1808 13.6794 13.8948 13.6794 13.5419C13.6794 13.1891 13.3933 12.903 13.0405 12.903C12.6877 12.903 12.4016 13.1891 12.4016 13.5419C12.4016 13.8948 12.6877 14.1808 13.0405 14.1808Z" fill="#9C9C9C"/>
<path id="Vector_38" d="M14.9572 13.5419C15.3101 13.5419 15.5961 13.2559 15.5961 12.903C15.5961 12.5502 15.3101 12.2642 14.9572 12.2642C14.6044 12.2642 14.3184 12.5502 14.3184 12.903C14.3184 13.2559 14.6044 13.5419 14.9572 13.5419Z" fill="#9C9C9C"/>
<path id="Vector_39" d="M17.5127 13.5419C17.8655 13.5419 18.1516 13.2559 18.1516 12.903C18.1516 12.5502 17.8655 12.2642 17.5127 12.2642C17.1598 12.2642 16.8738 12.5502 16.8738 12.903C16.8738 13.2559 17.1598 13.5419 17.5127 13.5419Z" fill="#9C9C9C"/>
<path id="Vector_40" d="M19.4294 14.1808C19.7823 14.1808 20.0683 13.8948 20.0683 13.5419C20.0683 13.1891 19.7823 12.903 19.4294 12.903C19.0766 12.903 18.7905 13.1891 18.7905 13.5419C18.7905 13.8948 19.0766 14.1808 19.4294 14.1808Z" fill="#9C9C9C"/>
<path id="Vector_41" d="M20.7072 12.903C21.0601 12.903 21.3461 12.617 21.3461 12.2641C21.3461 11.9113 21.0601 11.6253 20.7072 11.6253C20.3544 11.6253 20.0684 11.9113 20.0684 12.2641C20.0684 12.617 20.3544 12.903 20.7072 12.903Z" fill="#9C9C9C"/>
<path id="Vector_42" d="M14.3183 10.3475C14.6712 10.3475 14.9572 10.0614 14.9572 9.70859C14.9572 9.35575 14.6712 9.06971 14.3183 9.06971C13.9655 9.06971 13.6794 9.35575 13.6794 9.70859C13.6794 10.0614 13.9655 10.3475 14.3183 10.3475Z" fill="#9C9C9C"/>
<path id="Vector_43" d="M10.4848 10.3475C10.8377 10.3475 11.1237 10.0614 11.1237 9.70859C11.1237 9.35575 10.8377 9.06971 10.4848 9.06971C10.132 9.06971 9.84595 9.35575 9.84595 9.70859C9.84595 10.0614 10.132 10.3475 10.4848 10.3475Z" fill="#9C9C9C"/>
<path id="Vector_44" d="M22.6238 11.6253C22.9766 11.6253 23.2626 11.3392 23.2626 10.9864C23.2626 10.6335 22.9766 10.3475 22.6238 10.3475C22.2709 10.3475 21.9849 10.6335 21.9849 10.9864C21.9849 11.3392 22.2709 11.6253 22.6238 11.6253Z" fill="#9C9C9C"/>
<path id="Vector_45" d="M11.7627 7.79193C12.1155 7.79193 12.4016 7.50589 12.4016 7.15304C12.4016 6.80019 12.1155 6.51415 11.7627 6.51415C11.4098 6.51415 11.1238 6.80019 11.1238 7.15304C11.1238 7.50589 11.4098 7.79193 11.7627 7.79193Z" fill="#9C9C9C"/>
<path id="Vector_46" d="M14.9572 6.51415C15.3101 6.51415 15.5961 6.22811 15.5961 5.87526C15.5961 5.52241 15.3101 5.23637 14.9572 5.23637C14.6044 5.23637 14.3184 5.52241 14.3184 5.87526C14.3184 6.22811 14.6044 6.51415 14.9572 6.51415Z" fill="#9C9C9C"/>
<path id="Vector_47" d="M13.6794 3.31971C13.6794 3.67237 13.3938 3.95859 13.0405 3.95859C12.6878 3.95859 12.4016 3.67237 12.4016 3.31971C12.4016 2.96704 12.6878 2.68082 13.0405 2.68082C13.3938 2.68082 13.6794 2.96704 13.6794 3.31971Z" fill="#9C9C9C"/>
<path id="Vector_48" d="M18.1516 4.59748C18.5044 4.59748 18.7905 4.31144 18.7905 3.95859C18.7905 3.60575 18.5044 3.31971 18.1516 3.31971C17.7987 3.31971 17.5127 3.60575 17.5127 3.95859C17.5127 4.31144 17.7987 4.59748 18.1516 4.59748Z" fill="#9C9C9C"/>
<path id="Vector_49" d="M16.2348 2.68082C16.5877 2.68082 16.8737 2.39478 16.8737 2.04193C16.8737 1.68908 16.5877 1.40304 16.2348 1.40304C15.882 1.40304 15.5959 1.68908 15.5959 2.04193C15.5959 2.39478 15.882 2.68082 16.2348 2.68082Z" fill="#9C9C9C"/>
<path id="Vector_50" d="M20.7072 8.43082C21.0601 8.43082 21.3461 8.14478 21.3461 7.79193C21.3461 7.43908 21.0601 7.15304 20.7072 7.15304C20.3544 7.15304 20.0684 7.43908 20.0684 7.79193C20.0684 8.14478 20.3544 8.43082 20.7072 8.43082Z" fill="#9C9C9C"/>
<path id="Vector_51" d="M17.5127 8.43082C17.8655 8.43082 18.1516 8.14478 18.1516 7.79193C18.1516 7.43908 17.8655 7.15304 17.5127 7.15304C17.1598 7.15304 16.8738 7.43908 16.8738 7.79193C16.8738 8.14478 17.1598 8.43082 17.5127 8.43082Z" fill="#9C9C9C"/>
<path id="Vector_52" d="M16.2348 10.9864C16.5877 10.9864 16.8737 10.7003 16.8737 10.3475C16.8737 9.99464 16.5877 9.7086 16.2348 9.7086C15.882 9.7086 15.5959 9.99464 15.5959 10.3475C15.5959 10.7003 15.882 10.9864 16.2348 10.9864Z" fill="#9C9C9C"/>
<path id="Vector_53" d="M19.4294 10.3475C19.7823 10.3475 20.0683 10.0614 20.0683 9.70859C20.0683 9.35575 19.7823 9.06971 19.4294 9.06971C19.0766 9.06971 18.7905 9.35575 18.7905 9.70859C18.7905 10.0614 19.0766 10.3475 19.4294 10.3475Z" fill="#9C9C9C"/>
</g>
<g id="Emoji_2">
<path id="Vector_54" d="M8.56828 0.125261C4.335 0.125261 0.901611 4.70226 0.901611 10.3475H4.73494V14.1808H15.6721C16.0324 12.9963 16.2349 11.7038 16.2349 10.3475C16.2349 4.70226 12.8022 0.125261 8.56828 0.125261Z" fill="#FFE8B6"/>
<path id="Vector_55" d="M19.4294 9.06971H22.5574C22.0846 4.02887 18.8659 0.125261 14.9572 0.125261C10.7233 0.125261 7.29053 4.70226 7.29053 10.3475C7.29053 11.7038 7.49306 12.9963 7.85275 14.1808H19.4294V9.06971Z" fill="#FFE8B6"/>
<path id="Vector_56" d="M23.9017 10.3475C23.9017 4.70226 20.4689 0.125261 16.235 0.125261C12.0017 0.125261 8.56836 4.70226 8.56836 10.3475C8.56836 11.7038 8.77089 12.9963 9.13058 14.1808H20.0684C22.1856 14.1808 23.9017 12.4654 23.9017 10.3475Z" fill="#FFAC33"/>
<path id="Vector_57" d="M4.73486 10.3475H11.1238V14.1808H4.73486V10.3475Z" fill="#FFAC33"/>
<path id="Vector_58" d="M0.901611 10.3475C0.901611 8.23148 2.61831 6.51415 4.73494 6.51415C6.85158 6.51415 8.56828 8.23084 8.56828 10.3475C8.56828 12.4654 6.85158 14.1808 4.73494 14.1808C2.61831 14.1808 0.901611 12.4654 0.901611 10.3475Z" fill="#FFE8B6"/>
<path id="Vector_59" d="M9.84611 0.125261C5.61283 0.125261 2.17944 4.70226 2.17944 10.3475C2.17944 11.7594 3.32369 12.903 4.735 12.903C6.1463 12.903 7.29055 11.7594 7.29055 10.3475C7.29055 5.8989 9.42572 2.12434 12.4017 0.720067C11.6011 0.341845 10.7437 0.125261 9.84611 0.125261Z" fill="#FFAC33"/>
<path id="Vector_60" d="M3.45725 10.9864C3.8101 10.9864 4.09614 10.7003 4.09614 10.3475C4.09614 9.99464 3.8101 9.7086 3.45725 9.7086C3.1044 9.7086 2.81836 9.99464 2.81836 10.3475C2.81836 10.7003 3.1044 10.9864 3.45725 10.9864Z" fill="#D99E82"/>
<path id="Vector_61" d="M7.27464 10.5072C7.19797 10.0542 6.80697 9.70859 6.33228 9.70859C6.21728 9.70859 6.10866 9.73223 6.00644 9.76929C6.00772 9.74821 6.01283 9.72904 6.01283 9.70859C6.01283 9.00326 5.44039 8.43082 4.73505 8.43082C4.02972 8.43082 3.45728 9.00326 3.45728 9.70859C3.45728 10.044 3.58953 10.3475 3.80164 10.5756C3.59272 10.7519 3.45728 11.0113 3.45728 11.3058C3.45728 11.739 3.74669 12.1006 4.14089 12.2194C4.24758 12.5753 4.5568 12.834 4.93375 12.8832C6.19747 12.7836 7.19541 11.776 7.27464 10.5072Z" fill="#C1694F"/>
<path id="Vector_62" d="M6.97103 9.06971C6.44203 9.06971 6.0127 9.49904 6.0127 10.028C6.0127 10.557 6.44203 10.9864 6.97103 10.9864C7.05408 10.9864 7.13331 10.973 7.21061 10.9525C7.25853 10.7577 7.29047 10.557 7.29047 10.3475C7.29047 9.94051 7.31411 9.54184 7.34861 9.14765C7.23297 9.09782 7.10583 9.06971 6.97103 9.06971Z" fill="#D99E82"/>
<path id="Vector_63" d="M5.05428 9.06971C5.58355 9.06971 6.01261 8.78366 6.01261 8.43082C6.01261 8.07797 5.58355 7.79193 5.05428 7.79193C4.52501 7.79193 4.09595 8.07797 4.09595 8.43082C4.09595 8.78366 4.52501 9.06971 5.05428 9.06971Z" fill="#FFCC4D"/>
<path id="Vector_64" d="M5.37375 9.70859C5.7266 9.70859 6.01264 9.42255 6.01264 9.06971C6.01264 8.71686 5.7266 8.43082 5.37375 8.43082C5.0209 8.43082 4.73486 8.71686 4.73486 9.06971C4.73486 9.42255 5.0209 9.70859 5.37375 9.70859Z" fill="#FFCC4D"/>
<path id="Vector_65" d="M6.65158 9.70859C7.00443 9.70859 7.29047 9.42255 7.29047 9.06971C7.29047 8.71686 7.00443 8.43082 6.65158 8.43082C6.29874 8.43082 6.0127 8.71686 6.0127 9.06971C6.0127 9.42255 6.29874 9.70859 6.65158 9.70859Z" fill="#C1694F"/>
<path id="Vector_66" d="M4.09616 10.3475C4.44901 10.3475 4.73505 10.0614 4.73505 9.70859C4.73505 9.35575 4.44901 9.06971 4.09616 9.06971C3.74332 9.06971 3.45728 9.35575 3.45728 9.70859C3.45728 10.0614 3.74332 10.3475 4.09616 10.3475Z" fill="#D99E82"/>
<path id="Vector_67" d="M5.37375 10.3475C5.7266 10.3475 6.01264 10.0614 6.01264 9.70859C6.01264 9.35575 5.7266 9.06971 5.37375 9.06971C5.0209 9.06971 4.73486 9.35575 4.73486 9.70859C4.73486 10.0614 5.0209 10.3475 5.37375 10.3475Z" fill="#D99E82"/>
<path id="Vector_68" d="M6.01267 9.06971C6.36552 9.06971 6.65156 8.78366 6.65156 8.43082C6.65156 8.07797 6.36552 7.79193 6.01267 7.79193C5.65982 7.79193 5.37378 8.07797 5.37378 8.43082C5.37378 8.78366 5.65982 9.06971 6.01267 9.06971Z" fill="#FFD983"/>
<path id="Vector_69" d="M5.37375 7.79193C5.7266 7.79193 6.01264 7.50589 6.01264 7.15304C6.01264 6.80019 5.7266 6.51415 5.37375 6.51415C5.0209 6.51415 4.73486 6.80019 4.73486 7.15304C4.73486 7.50589 5.0209 7.79193 5.37375 7.79193Z" fill="#FFE8B6"/>
<path id="Vector_70" d="M4.73484 9.06971C5.08768 9.06971 5.37373 8.78366 5.37373 8.43082C5.37373 8.07797 5.08768 7.79193 4.73484 7.79193C4.38199 7.79193 4.09595 8.07797 4.09595 8.43082C4.09595 8.78366 4.38199 9.06971 4.73484 9.06971Z" fill="#FFE8B6"/>
<path id="Vector_71" d="M6.65158 7.79193C7.00443 7.79193 7.29047 7.50589 7.29047 7.15304C7.29047 6.80019 7.00443 6.51415 6.65158 6.51415C6.29874 6.51415 6.0127 6.80019 6.0127 7.15304C6.0127 7.50589 6.29874 7.79193 6.65158 7.79193Z" fill="#FFD983"/>
<path id="Vector_72" d="M6.65158 9.06971C7.00443 9.06971 7.29047 8.78366 7.29047 8.43082C7.29047 8.07797 7.00443 7.79193 6.65158 7.79193C6.29874 7.79193 6.0127 8.07797 6.0127 8.43082C6.0127 8.78366 6.29874 9.06971 6.65158 9.06971Z" fill="#FFD983"/>
<path id="Vector_73" d="M6.65158 8.43082C7.00443 8.43082 7.29047 8.14478 7.29047 7.79193C7.29047 7.43908 7.00443 7.15304 6.65158 7.15304C6.29874 7.15304 6.0127 7.43908 6.0127 7.79193C6.0127 8.14478 6.29874 8.43082 6.65158 8.43082Z" fill="#FFD983"/>
<path id="Vector_74" d="M6.65158 8.43082C7.00443 8.43082 7.29047 8.14478 7.29047 7.79193C7.29047 7.43908 7.00443 7.15304 6.65158 7.15304C6.29874 7.15304 6.0127 7.43908 6.0127 7.79193C6.0127 8.14478 6.29874 8.43082 6.65158 8.43082Z" fill="#FFE8B6"/>
<path id="Vector_75" d="M7.65584 3.60912C7.48206 3.43087 7.23992 3.31971 6.97095 3.31971C6.49945 3.31971 6.10973 3.66023 6.02986 4.10873C5.8925 4.01993 5.72448 3.95859 5.53345 3.95859C5.09261 3.95859 4.73484 4.24482 4.73484 4.59748C4.73484 4.71887 4.7885 4.82621 4.86261 4.92332C4.78403 5.0166 4.73484 5.12201 4.73484 5.23637C4.38217 5.23637 4.09595 5.52259 4.09595 5.87526C4.09595 6.00432 4.14386 6.1174 4.20967 6.21835C4.13939 6.30715 4.09595 6.40682 4.09595 6.51415C4.09595 6.86682 4.52464 7.15304 5.05428 7.15304C5.329 7.15304 5.57498 7.07509 5.75003 6.95115C5.91231 7.07573 6.11228 7.15304 6.33206 7.15304C6.45856 7.15304 6.57803 7.12684 6.68856 7.08276C6.7927 7.46737 7.12939 7.74848 7.53892 7.77979C7.85517 6.15446 8.46531 4.69076 9.2882 3.48646C9.08311 3.38168 8.83586 3.31971 8.56817 3.31971C8.21039 3.31971 7.88775 3.43087 7.65584 3.60912Z" fill="#77B255"/>
<path id="Vector_76" d="M6.01267 5.87526C6.36552 5.87526 6.65156 5.58922 6.65156 5.23637C6.65156 4.88352 6.36552 4.59748 6.01267 4.59748C5.65982 4.59748 5.37378 4.88352 5.37378 5.23637C5.37378 5.58922 5.65982 5.87526 6.01267 5.87526Z" fill="#A6D388"/>
<path id="Vector_77" d="M7.2905 4.27804C7.2905 4.45437 7.14739 4.59748 6.97106 4.59748C6.79472 4.59748 6.65161 4.45501 6.65161 4.27804C6.65161 4.10171 6.79472 3.9586 6.97106 3.9586C7.14739 3.9586 7.2905 4.10171 7.2905 4.27804Z" fill="#A6D388"/>
<path id="Vector_78" d="M5.05431 6.51415C5.23073 6.51415 5.37375 6.37113 5.37375 6.1947C5.37375 6.01828 5.23073 5.87526 5.05431 5.87526C4.87788 5.87526 4.73486 6.01828 4.73486 6.1947C4.73486 6.37113 4.87788 6.51415 5.05431 6.51415Z" fill="#A6D388"/>
<path id="Vector_79" d="M7.2905 6.1947C7.2905 6.37104 7.14739 6.51415 6.97106 6.51415C6.79472 6.51415 6.65161 6.37168 6.65161 6.1947C6.65161 6.01773 6.79472 5.87526 6.97106 5.87526C7.14739 5.87526 7.2905 6.01837 7.2905 6.1947Z" fill="#A6D388"/>
<path id="Vector_80" d="M7.2905 5.87526C7.64335 5.87526 7.92939 5.58922 7.92939 5.23637C7.92939 4.88352 7.64335 4.59748 7.2905 4.59748C6.93765 4.59748 6.65161 4.88352 6.65161 5.23637C6.65161 5.58922 6.93765 5.87526 7.2905 5.87526Z" fill="#A6D388"/>
<path id="Vector_81" d="M6.65158 3.95859C7.00443 3.95859 7.29047 3.67255 7.29047 3.31971C7.29047 2.96686 7.00443 2.68082 6.65158 2.68082C6.29874 2.68082 6.0127 2.96686 6.0127 3.31971C6.0127 3.67255 6.29874 3.95859 6.65158 3.95859Z" fill="#DD2E44"/>
<path id="Vector_82" d="M7.92942 3.95859C8.28226 3.95859 8.56831 3.67255 8.56831 3.31971C8.56831 2.96686 8.28226 2.68082 7.92942 2.68082C7.57657 2.68082 7.29053 2.96686 7.29053 3.31971C7.29053 3.67255 7.57657 3.95859 7.92942 3.95859Z" fill="#FFD983"/>
<path id="Vector_83" d="M8.56833 2.68082C8.92118 2.68082 9.20722 2.39478 9.20722 2.04193C9.20722 1.68908 8.92118 1.40304 8.56833 1.40304C8.21548 1.40304 7.92944 1.68908 7.92944 2.04193C7.92944 2.39478 8.21548 2.68082 8.56833 2.68082Z" fill="#FFD983"/>
<path id="Vector_84" d="M6.65158 5.23637C7.00443 5.23637 7.29047 4.95033 7.29047 4.59748C7.29047 4.24464 7.00443 3.9586 6.65158 3.9586C6.29874 3.9586 6.0127 4.24464 6.0127 4.59748C6.0127 4.95033 6.29874 5.23637 6.65158 5.23637Z" fill="#FFD983"/>
<path id="Vector_85" d="M10.485 1.40304C10.1324 1.40304 9.84614 1.68926 9.84614 2.04193C9.84614 2.06429 9.85636 2.08282 9.85892 2.10454C9.75542 2.06621 9.64425 2.04193 9.52669 2.04193C8.99705 2.04193 8.56836 2.47062 8.56836 3.00026C8.56836 3.35868 8.76705 3.66662 9.05839 3.83146C9.59825 2.9664 10.2442 2.22593 10.968 1.63623C10.8511 1.49696 10.6818 1.40304 10.485 1.40304Z" fill="#A6D388"/>
<path id="Vector_86" d="M8.56833 3.31971C8.92118 3.31971 9.20722 3.03366 9.20722 2.68082C9.20722 2.32797 8.92118 2.04193 8.56833 2.04193C8.21548 2.04193 7.92944 2.32797 7.92944 2.68082C7.92944 3.03366 8.21548 3.31971 8.56833 3.31971Z" fill="#DD2E44"/>
<path id="Vector_87" d="M10.4767 1.50539C10.5332 1.1571 10.2967 0.828932 9.94838 0.772403C9.60009 0.715873 9.27192 0.952393 9.21539 1.30068C9.15886 1.64897 9.39538 1.97715 9.74367 2.03368C10.092 2.0902 10.4201 1.85369 10.4767 1.50539Z" fill="#DD2E44"/>
<path id="Vector_88" d="M11.7627 12.2642C12.1155 12.2642 12.4016 11.9781 12.4016 11.6253C12.4016 11.2724 12.1155 10.9864 11.7627 10.9864C11.4098 10.9864 11.1238 11.2724 11.1238 11.6253C11.1238 11.9781 11.4098 12.2642 11.7627 12.2642Z" fill="#F4900C"/>
<path id="Vector_89" d="M9.20725 14.1808C9.5601 14.1808 9.84614 13.8948 9.84614 13.5419C9.84614 13.1891 9.5601 12.903 9.20725 12.903C8.8544 12.903 8.56836 13.1891 8.56836 13.5419C8.56836 13.8948 8.8544 14.1808 9.20725 14.1808Z" fill="#F4900C"/>
<path id="Vector_90" d="M13.0405 14.1808C13.3933 14.1808 13.6794 13.8948 13.6794 13.5419C13.6794 13.1891 13.3933 12.903 13.0405 12.903C12.6877 12.903 12.4016 13.1891 12.4016 13.5419C12.4016 13.8948 12.6877 14.1808 13.0405 14.1808Z" fill="#F4900C"/>
<path id="Vector_91" d="M14.9572 13.5419C15.3101 13.5419 15.5961 13.2559 15.5961 12.903C15.5961 12.5502 15.3101 12.2642 14.9572 12.2642C14.6044 12.2642 14.3184 12.5502 14.3184 12.903C14.3184 13.2559 14.6044 13.5419 14.9572 13.5419Z" fill="#F4900C"/>
<path id="Vector_92" d="M17.5127 13.5419C17.8655 13.5419 18.1516 13.2559 18.1516 12.903C18.1516 12.5502 17.8655 12.2642 17.5127 12.2642C17.1598 12.2642 16.8738 12.5502 16.8738 12.903C16.8738 13.2559 17.1598 13.5419 17.5127 13.5419Z" fill="#F4900C"/>
<path id="Vector_93" d="M19.4294 14.1808C19.7823 14.1808 20.0683 13.8948 20.0683 13.5419C20.0683 13.1891 19.7823 12.903 19.4294 12.903C19.0766 12.903 18.7905 13.1891 18.7905 13.5419C18.7905 13.8948 19.0766 14.1808 19.4294 14.1808Z" fill="#F4900C"/>
<path id="Vector_94" d="M20.7072 12.903C21.0601 12.903 21.3461 12.617 21.3461 12.2641C21.3461 11.9113 21.0601 11.6253 20.7072 11.6253C20.3544 11.6253 20.0684 11.9113 20.0684 12.2641C20.0684 12.617 20.3544 12.903 20.7072 12.903Z" fill="#F4900C"/>
<path id="Vector_95" d="M14.3183 10.3475C14.6712 10.3475 14.9572 10.0614 14.9572 9.70859C14.9572 9.35575 14.6712 9.06971 14.3183 9.06971C13.9655 9.06971 13.6794 9.35575 13.6794 9.70859C13.6794 10.0614 13.9655 10.3475 14.3183 10.3475Z" fill="#F4900C"/>
<path id="Vector_96" d="M10.4848 10.3475C10.8377 10.3475 11.1237 10.0614 11.1237 9.70859C11.1237 9.35575 10.8377 9.06971 10.4848 9.06971C10.132 9.06971 9.84595 9.35575 9.84595 9.70859C9.84595 10.0614 10.132 10.3475 10.4848 10.3475Z" fill="#F4900C"/>
<path id="Vector_97" d="M22.6238 11.6253C22.9766 11.6253 23.2626 11.3392 23.2626 10.9864C23.2626 10.6335 22.9766 10.3475 22.6238 10.3475C22.2709 10.3475 21.9849 10.6335 21.9849 10.9864C21.9849 11.3392 22.2709 11.6253 22.6238 11.6253Z" fill="#F4900C"/>
<path id="Vector_98" d="M11.7627 7.79193C12.1155 7.79193 12.4016 7.50589 12.4016 7.15304C12.4016 6.80019 12.1155 6.51415 11.7627 6.51415C11.4098 6.51415 11.1238 6.80019 11.1238 7.15304C11.1238 7.50589 11.4098 7.79193 11.7627 7.79193Z" fill="#F4900C"/>
<path id="Vector_99" d="M14.9572 6.51415C15.3101 6.51415 15.5961 6.22811 15.5961 5.87526C15.5961 5.52241 15.3101 5.23637 14.9572 5.23637C14.6044 5.23637 14.3184 5.52241 14.3184 5.87526C14.3184 6.22811 14.6044 6.51415 14.9572 6.51415Z" fill="#F4900C"/>
<path id="Vector_100" d="M13.6794 3.31971C13.6794 3.67237 13.3938 3.95859 13.0405 3.95859C12.6878 3.95859 12.4016 3.67237 12.4016 3.31971C12.4016 2.96704 12.6878 2.68082 13.0405 2.68082C13.3938 2.68082 13.6794 2.96704 13.6794 3.31971Z" fill="#F4900C"/>
<path id="Vector_101" d="M18.1516 4.59748C18.5044 4.59748 18.7905 4.31144 18.7905 3.95859C18.7905 3.60575 18.5044 3.31971 18.1516 3.31971C17.7987 3.31971 17.5127 3.60575 17.5127 3.95859C17.5127 4.31144 17.7987 4.59748 18.1516 4.59748Z" fill="#F4900C"/>
<path id="Vector_102" d="M16.2348 2.68082C16.5877 2.68082 16.8737 2.39478 16.8737 2.04193C16.8737 1.68908 16.5877 1.40304 16.2348 1.40304C15.882 1.40304 15.5959 1.68908 15.5959 2.04193C15.5959 2.39478 15.882 2.68082 16.2348 2.68082Z" fill="#F4900C"/>
<path id="Vector_103" d="M20.7072 8.43082C21.0601 8.43082 21.3461 8.14478 21.3461 7.79193C21.3461 7.43908 21.0601 7.15304 20.7072 7.15304C20.3544 7.15304 20.0684 7.43908 20.0684 7.79193C20.0684 8.14478 20.3544 8.43082 20.7072 8.43082Z" fill="#F4900C"/>
<path id="Vector_104" d="M17.5127 8.43082C17.8655 8.43082 18.1516 8.14478 18.1516 7.79193C18.1516 7.43908 17.8655 7.15304 17.5127 7.15304C17.1598 7.15304 16.8738 7.43908 16.8738 7.79193C16.8738 8.14478 17.1598 8.43082 17.5127 8.43082Z" fill="#F4900C"/>
<path id="Vector_105" d="M16.2348 10.9864C16.5877 10.9864 16.8737 10.7003 16.8737 10.3475C16.8737 9.99464 16.5877 9.7086 16.2348 9.7086C15.882 9.7086 15.5959 9.99464 15.5959 10.3475C15.5959 10.7003 15.882 10.9864 16.2348 10.9864Z" fill="#F4900C"/>
<path id="Vector_106" d="M19.4294 10.3475C19.7823 10.3475 20.0683 10.0614 20.0683 9.70859C20.0683 9.35575 19.7823 9.06971 19.4294 9.06971C19.0766 9.06971 18.7905 9.35575 18.7905 9.70859C18.7905 10.0614 19.0766 10.3475 19.4294 10.3475Z" fill="#F4900C"/>
</g>
</g>
</svg>
