<svg width="23" height="24" viewBox="0 0 23 24" fill="none" xmlns="http://www.w3.org/2000/svg">
<g id="Group 49">
<g id="Emoji">
<path id="Vector" d="M19.2583 5.38997C18.9914 5.23458 18.6408 5.16228 18.155 5.16228C14.3843 5.16228 1.54648 9.95121 1.00192 10.1552C0.882327 10.1998 0.777603 10.2775 0.700581 10.3796C-0.13721 11.4836 0.028321 15.5455 1.3796 17.5724C3.24098 20.3648 5.98812 21.156 7.31035 21.285C7.33197 21.2871 7.38331 21.2898 7.40493 21.2898C9.06565 21.2898 19.7907 14.0192 20.5961 12.3484C21.5224 10.4275 21.4616 6.67301 19.2583 5.38997V5.38997Z" fill="#EEEEEE"/>
<path id="Vector_2" d="M16.9191 6.76219C14.2166 8.78911 8.13583 12.8429 8.13583 12.8429C7.65343 14.2895 6.83658 18.4798 7.63046 21.2573C9.8533 20.754 19.8203 13.9571 20.5959 12.3484C21.2952 10.8991 21.4304 8.4067 20.5081 6.71895C19.3271 6.0217 18.063 5.90413 16.9191 6.76219Z" fill="#D4D4D4"/>
<path id="Vector_3" d="M20.9851 4.41165C20.8317 4.26774 20.6196 4.20288 20.4135 4.23801L0.565985 7.50337C0.232896 7.5581 -0.00830683 7.85065 0.000476457 8.18779C0.018043 8.87018 0.0133136 9.36745 0.00723283 9.92621C0.00385464 10.237 0.000476457 10.5667 0.000476457 10.9566C0.000476457 11.1572 0.0896607 11.3484 0.244382 11.4768C1.61795 12.6166 6.13189 15.6367 7.15818 16.1502C7.25345 16.1975 7.3575 16.2211 7.46019 16.2211C7.60613 16.2211 7.75207 16.1738 7.87233 16.0813C9.59926 14.7523 19.0089 9.37218 20.4818 8.73371C20.7081 8.63574 20.8635 8.42089 20.8858 8.17495C20.9702 7.24798 21.1952 4.97176 21.1952 4.97176C21.2155 4.76163 21.1385 4.55489 20.9851 4.41165V4.41165Z" fill="#272727"/>
<path id="Vector_4" d="M21.0305 4.45759C19.6657 2.90701 14.5261 0.691589 13.6546 0.653753C13.5999 0.651051 13.5472 0.655105 13.4938 0.665915C6.66578 2.02665 2.19779 5.93994 0.51545 7.41351L0.234385 7.65809C0.0776368 7.79322 -0.00816921 7.99321 0.000614081 8.19995C0.010073 8.4067 0.113446 8.5979 0.281679 8.71884C0.510721 8.88302 5.90028 12.7456 7.2117 13.4875C7.31574 13.5456 7.42993 13.5747 7.54411 13.5747C7.70626 13.5747 7.86774 13.5159 7.99476 13.403C10.6399 11.039 19.5482 5.99737 20.7636 5.53591C20.9711 5.45686 21.1258 5.28187 21.1792 5.06702C21.2325 4.85149 21.1771 4.6238 21.0305 4.45759Z" fill="#555555"/>
<path id="Vector_5" d="M5.54558 11.7734C5.22263 11.7734 4.93751 11.5417 4.88075 11.2126L4.84967 11.0322C4.58077 9.47285 4.27606 7.70471 3.72203 6.01561C3.60515 5.66158 3.79906 5.27984 4.15309 5.16296C4.50713 5.04607 4.88954 5.23998 5.00575 5.59469C5.59085 7.3777 5.90434 9.19719 6.18068 10.8025L6.21176 10.9822C6.27527 11.3498 6.02866 11.6998 5.66112 11.7626C5.6226 11.77 5.58342 11.7734 5.54558 11.7734V11.7734ZM9.62779 11.6045C9.27037 11.6045 8.97174 11.3234 8.9535 10.9626C8.90147 9.92215 8.15219 5.57577 7.47385 3.72993C7.34548 3.37928 7.52452 2.99146 7.8745 2.86241C8.22719 2.73337 8.61365 2.91309 8.74202 3.26307C9.4609 5.21904 10.2399 9.63771 10.3027 10.8944C10.3217 11.2667 10.0345 11.5842 9.66157 11.6025C9.65076 11.6038 9.63927 11.6045 9.62779 11.6045ZM13.4282 9.04247C13.0992 9.04247 12.8114 8.80262 12.7607 8.46683L12.6844 7.9351C12.4864 6.54261 12.1175 3.95087 11.5493 2.24623C11.4311 1.8922 11.6223 1.50979 11.9763 1.39155C12.3317 1.27331 12.7127 1.46519 12.831 1.81855C13.4377 3.6394 13.8181 6.30952 14.0221 7.74457L14.0978 8.26616C14.1532 8.63506 13.8985 8.97896 13.5296 9.03436C13.4958 9.04044 13.4614 9.04247 13.4282 9.04247V9.04247ZM17.2564 6.73382C16.9132 6.73382 16.62 6.4737 16.5848 6.12507C16.4592 4.86635 16.2653 3.94951 15.9166 2.96038C15.7923 2.60837 15.9774 2.22258 16.3288 2.09894C16.6821 1.97462 17.0666 2.15907 17.1909 2.51108C17.5726 3.5948 17.7942 4.63529 17.9293 5.99062C17.9665 6.36154 17.6949 6.6926 17.324 6.72976C17.301 6.73314 17.2787 6.73382 17.2564 6.73382V6.73382Z" fill="#797979"/>
<path id="Vector_6" d="M21.0649 15.5455C19.9069 14.7111 18.3252 14.1942 16.5814 14.1942C14.8376 14.1942 13.2559 14.7111 12.0979 15.5455H10.1628V18.9237C10.1628 21.531 13.0424 23.6531 16.5814 23.6531C20.1204 23.6531 23 21.531 23 18.9237V15.5455H21.0649Z" fill="#2E2E2E"/>
<path id="Vector_7" d="M16.5814 20.275C20.1263 20.275 23 18.1575 23 15.5455C23 12.9335 20.1263 10.816 16.5814 10.816C13.0365 10.816 10.1628 12.9335 10.1628 15.5455C10.1628 18.1575 13.0365 20.275 16.5814 20.275Z" fill="#2E2E2E"/>
<g id="Group">
<path id="Vector_8" d="M21.367 15.5455C21.367 17.4116 19.2245 18.9237 16.5814 18.9237C13.9383 18.9237 11.7959 17.4116 11.7959 15.5455C11.7959 13.6794 13.9383 12.1673 16.5814 12.1673C19.2245 12.1673 21.367 13.6794 21.367 15.5455Z" fill="#E7E7E7"/>
<path id="Vector_9" d="M16.5814 19.4865C13.6323 19.4865 11.2324 17.719 11.2324 15.5455C11.2324 13.372 13.6323 11.6045 16.5814 11.6045C19.5306 11.6045 21.9298 13.3726 21.9298 15.5455C21.9298 17.7183 19.5306 19.4865 16.5814 19.4865V19.4865ZM16.5814 12.7301C14.2532 12.7301 12.3587 13.9929 12.3587 15.5455C12.3587 17.0981 14.2532 18.3609 16.5814 18.3609C18.9097 18.3609 20.8042 17.0981 20.8042 15.5455C20.8042 13.9929 18.9097 12.7301 16.5814 12.7301Z" fill="#E7E7E7"/>
</g>
<g id="Group_2">
<path id="Vector_10" d="M13.6824 15.236C13.6824 14.9509 14.9026 15.0097 16.5815 15.0097C18.2605 15.0097 19.4253 14.6408 19.4253 14.9259C19.4253 16.1252 18.2605 17.3258 16.5815 17.3258C14.9026 17.3258 13.6824 16.4353 13.6824 15.236Z" fill="#9F9F9F"/>
<path id="Vector_11" d="M16.5815 17.6636C14.7059 17.6636 13.3445 16.6427 13.3445 15.236C13.3445 15.1198 13.3911 15.009 13.4762 14.9246C13.7316 14.6699 14.285 14.6591 15.843 14.6692L16.5815 14.6719C17.3206 14.6719 17.9692 14.5976 18.4435 14.5428C19.1144 14.4665 19.4185 14.4314 19.6232 14.6131L19.7367 14.7138L19.763 14.9253C19.763 16.2421 18.5462 17.6636 16.5815 17.6636V17.6636ZM14.0296 15.3948C14.1357 16.3272 15.1761 16.9873 16.5815 16.9873C17.9638 16.9873 18.9286 16.0799 19.0698 15.1583C18.9212 15.1671 18.7131 15.1915 18.5212 15.2131C18.0307 15.2698 17.3598 15.3469 16.5821 15.3469L15.8396 15.3441C15.1302 15.3401 14.3404 15.3367 14.0296 15.3948V15.3948Z" fill="#9F9F9F"/>
</g>
<g id="Group_3">
<path id="Vector_12" d="M19.6218 14.8698C19.6218 14.8698 18.2705 14.1942 16.2436 14.8698C14.6511 15.4009 13.541 16.5995 13.541 15.4002C13.541 14.201 14.9024 13.2294 16.5814 13.2294C18.2603 13.2294 19.6218 14.1942 19.6218 14.8698Z" fill="#9C9C9C"/>
<path id="Vector_13" d="M13.8425 16.2549C13.7297 16.2549 13.625 16.2286 13.5263 16.1691C13.2034 15.9745 13.2034 15.5421 13.2034 15.4002C13.2034 14.0172 14.7188 12.8916 16.5816 12.8916C18.4531 12.8916 19.9597 13.974 19.9597 14.8698C19.9597 14.9867 19.8989 15.0955 19.7996 15.1577C19.701 15.2178 19.5767 15.2246 19.4726 15.1725C19.4503 15.161 18.1977 14.5739 16.3512 15.1901C15.8397 15.3604 15.3816 15.6022 14.9783 15.8164C14.5175 16.0603 14.1506 16.2549 13.8425 16.2549ZM16.5816 13.5672C15.0911 13.5672 13.879 14.3895 13.879 15.4002C13.879 15.486 13.8858 15.5408 13.8932 15.5739C14.0499 15.5435 14.3992 15.359 14.6621 15.2198C15.0681 15.0057 15.5735 14.7374 16.1377 14.5496C17.2835 14.1679 18.2301 14.1922 18.8693 14.3023C18.4125 13.9354 17.6058 13.5672 16.5816 13.5672Z" fill="#9C9C9C"/>
</g>
</g>
<g id="Emoji_2">
<path id="Vector_14" d="M19.2583 5.38997C18.9914 5.23458 18.6408 5.16228 18.155 5.16228C14.3843 5.16228 1.54648 9.95121 1.00192 10.1552C0.882327 10.1998 0.777603 10.2775 0.700581 10.3796C-0.13721 11.4836 0.028321 15.5455 1.3796 17.5724C3.24098 20.3648 5.98812 21.156 7.31035 21.285C7.33197 21.2871 7.38331 21.2898 7.40493 21.2898C9.06565 21.2898 19.7907 14.0192 20.5961 12.3484C21.5224 10.4275 21.4616 6.67301 19.2583 5.38997V5.38997Z" fill="#EEEEEE"/>
<path id="Vector_15" d="M16.9191 6.76219C14.2166 8.78911 8.13583 12.8429 8.13583 12.8429C7.65343 14.2895 6.83658 18.4798 7.63046 21.2573C9.8533 20.754 19.8203 13.9571 20.5959 12.3484C21.2952 10.8991 21.4304 8.4067 20.5081 6.71895C19.3271 6.0217 18.063 5.90413 16.9191 6.76219Z" fill="#CCD6DD"/>
<path id="Vector_16" d="M20.9851 4.41165C20.8317 4.26774 20.6196 4.20288 20.4135 4.23801L0.565985 7.50337C0.232896 7.5581 -0.00830683 7.85065 0.000476457 8.18779C0.018043 8.87018 0.0133136 9.36745 0.00723283 9.92621C0.00385464 10.237 0.000476457 10.5667 0.000476457 10.9566C0.000476457 11.1572 0.0896607 11.3484 0.244382 11.4768C1.61795 12.6166 6.13189 15.6367 7.15818 16.1502C7.25345 16.1975 7.3575 16.2211 7.46019 16.2211C7.60613 16.2211 7.75207 16.1738 7.87233 16.0813C9.59926 14.7523 19.0089 9.37218 20.4818 8.73371C20.7081 8.63574 20.8635 8.42089 20.8858 8.17495C20.9702 7.24798 21.1952 4.97176 21.1952 4.97176C21.2155 4.76163 21.1385 4.55489 20.9851 4.41165V4.41165Z" fill="#A0041E"/>
<path id="Vector_17" d="M21.0305 4.45759C19.6657 2.90701 14.5261 0.691589 13.6546 0.653753C13.5999 0.651051 13.5472 0.655105 13.4938 0.665915C6.66578 2.02665 2.19779 5.93994 0.51545 7.41351L0.234385 7.65809C0.0776368 7.79322 -0.00816921 7.99321 0.000614081 8.19995C0.010073 8.4067 0.113446 8.5979 0.281679 8.71884C0.510721 8.88302 5.90028 12.7456 7.2117 13.4875C7.31574 13.5456 7.42993 13.5747 7.54411 13.5747C7.70626 13.5747 7.86774 13.5159 7.99476 13.403C10.6399 11.039 19.5482 5.99737 20.7636 5.53591C20.9711 5.45686 21.1258 5.28187 21.1792 5.06702C21.2325 4.85149 21.1771 4.6238 21.0305 4.45759Z" fill="#DD2E44"/>
<path id="Vector_18" d="M5.54558 11.7734C5.22263 11.7734 4.93751 11.5417 4.88075 11.2126L4.84967 11.0322C4.58077 9.47285 4.27606 7.70471 3.72203 6.01561C3.60515 5.66158 3.79906 5.27984 4.15309 5.16296C4.50713 5.04607 4.88954 5.23998 5.00575 5.59469C5.59085 7.3777 5.90434 9.19719 6.18068 10.8025L6.21176 10.9822C6.27527 11.3498 6.02866 11.6998 5.66112 11.7626C5.6226 11.77 5.58342 11.7734 5.54558 11.7734V11.7734ZM9.62779 11.6045C9.27037 11.6045 8.97174 11.3234 8.9535 10.9626C8.90147 9.92215 8.15219 5.57577 7.47385 3.72993C7.34548 3.37928 7.52452 2.99146 7.8745 2.86241C8.22719 2.73337 8.61365 2.91309 8.74202 3.26307C9.4609 5.21904 10.2399 9.63771 10.3027 10.8944C10.3217 11.2667 10.0345 11.5842 9.66157 11.6025C9.65076 11.6038 9.63927 11.6045 9.62779 11.6045ZM13.4282 9.04247C13.0992 9.04247 12.8114 8.80262 12.7607 8.46683L12.6844 7.9351C12.4864 6.54261 12.1175 3.95087 11.5493 2.24623C11.4311 1.8922 11.6223 1.50979 11.9763 1.39155C12.3317 1.27331 12.7127 1.46519 12.831 1.81855C13.4377 3.6394 13.8181 6.30952 14.0221 7.74457L14.0978 8.26616C14.1532 8.63506 13.8985 8.97896 13.5296 9.03436C13.4958 9.04044 13.4614 9.04247 13.4282 9.04247V9.04247ZM17.2564 6.73382C16.9132 6.73382 16.62 6.4737 16.5848 6.12507C16.4592 4.86635 16.2653 3.94951 15.9166 2.96038C15.7923 2.60837 15.9774 2.22258 16.3288 2.09894C16.6821 1.97462 17.0666 2.15907 17.1909 2.51108C17.5726 3.5948 17.7942 4.63529 17.9293 5.99062C17.9665 6.36154 17.6949 6.6926 17.324 6.72976C17.301 6.73314 17.2787 6.73382 17.2564 6.73382V6.73382Z" fill="#EA596E"/>
<path id="Vector_19" d="M21.0649 15.5455C19.9069 14.7111 18.3252 14.1942 16.5814 14.1942C14.8376 14.1942 13.2559 14.7111 12.0979 15.5455H10.1628V18.9237C10.1628 21.531 13.0424 23.6531 16.5814 23.6531C20.1204 23.6531 23 21.531 23 18.9237V15.5455H21.0649Z" fill="#292F33"/>
<path id="Vector_20" d="M16.5814 20.275C20.1263 20.275 23 18.1575 23 15.5455C23 12.9335 20.1263 10.816 16.5814 10.816C13.0365 10.816 10.1628 12.9335 10.1628 15.5455C10.1628 18.1575 13.0365 20.275 16.5814 20.275Z" fill="#292F33"/>
<g id="Group_4">
<path id="Vector_21" d="M21.367 15.5455C21.367 17.4116 19.2245 18.9237 16.5814 18.9237C13.9383 18.9237 11.7959 17.4116 11.7959 15.5455C11.7959 13.6794 13.9383 12.1673 16.5814 12.1673C19.2245 12.1673 21.367 13.6794 21.367 15.5455Z" fill="#E1E8ED"/>
<path id="Vector_22" d="M16.5814 19.4865C13.6323 19.4865 11.2324 17.719 11.2324 15.5455C11.2324 13.372 13.6323 11.6045 16.5814 11.6045C19.5306 11.6045 21.9298 13.3726 21.9298 15.5455C21.9298 17.7183 19.5306 19.4865 16.5814 19.4865V19.4865ZM16.5814 12.7301C14.2532 12.7301 12.3587 13.9929 12.3587 15.5455C12.3587 17.0981 14.2532 18.3609 16.5814 18.3609C18.9097 18.3609 20.8042 17.0981 20.8042 15.5455C20.8042 13.9929 18.9097 12.7301 16.5814 12.7301Z" fill="#E1E8ED"/>
</g>
<g id="Group_5">
<path id="Vector_23" d="M13.6824 15.236C13.6824 14.9509 14.9026 15.0097 16.5815 15.0097C18.2605 15.0097 19.4253 14.6408 19.4253 14.9259C19.4253 16.1252 18.2605 17.3258 16.5815 17.3258C14.9026 17.3258 13.6824 16.4353 13.6824 15.236Z" fill="#77B255"/>
<path id="Vector_24" d="M16.5815 17.6636C14.7059 17.6636 13.3445 16.6427 13.3445 15.236C13.3445 15.1198 13.3911 15.009 13.4762 14.9246C13.7316 14.6699 14.285 14.6591 15.843 14.6692L16.5815 14.6719C17.3206 14.6719 17.9692 14.5976 18.4435 14.5428C19.1144 14.4665 19.4185 14.4314 19.6232 14.6131L19.7367 14.7138L19.763 14.9253C19.763 16.2421 18.5462 17.6636 16.5815 17.6636V17.6636ZM14.0296 15.3948C14.1357 16.3272 15.1761 16.9873 16.5815 16.9873C17.9638 16.9873 18.9286 16.0799 19.0698 15.1583C18.9212 15.1671 18.7131 15.1915 18.5212 15.2131C18.0307 15.2698 17.3598 15.3469 16.5821 15.3469L15.8396 15.3441C15.1302 15.3401 14.3404 15.3367 14.0296 15.3948V15.3948Z" fill="#77B255"/>
</g>
<g id="Group_6">
<path id="Vector_25" d="M19.6218 14.8698C19.6218 14.8698 18.2705 14.1942 16.2436 14.8698C14.6511 15.4009 13.541 16.5995 13.541 15.4002C13.541 14.201 14.9024 13.2294 16.5814 13.2294C18.2603 13.2294 19.6218 14.1942 19.6218 14.8698Z" fill="#F4900C"/>
<path id="Vector_26" d="M13.8425 16.2549C13.7297 16.2549 13.625 16.2286 13.5263 16.1691C13.2034 15.9745 13.2034 15.5421 13.2034 15.4002C13.2034 14.0172 14.7188 12.8916 16.5816 12.8916C18.4531 12.8916 19.9597 13.974 19.9597 14.8698C19.9597 14.9867 19.8989 15.0955 19.7996 15.1577C19.701 15.2178 19.5767 15.2246 19.4726 15.1725C19.4503 15.161 18.1977 14.5739 16.3512 15.1901C15.8397 15.3604 15.3816 15.6022 14.9783 15.8164C14.5175 16.0603 14.1506 16.2549 13.8425 16.2549ZM16.5816 13.5672C15.0911 13.5672 13.879 14.3895 13.879 15.4002C13.879 15.486 13.8858 15.5408 13.8932 15.5739C14.0499 15.5435 14.3992 15.359 14.6621 15.2198C15.0681 15.0057 15.5735 14.7374 16.1377 14.5496C17.2835 14.1679 18.2301 14.1922 18.8693 14.3023C18.4125 13.9354 17.6058 13.5672 16.5816 13.5672Z" fill="#F4900C"/>
</g>
</g>
</g>
</svg>
