<svg width="23" height="24" viewBox="0 0 23 24" fill="none" xmlns="http://www.w3.org/2000/svg">
<g id="Group 43">
<g id="Emoji">
<path id="Vector" d="M8.25506 2.96558C7.90681 0.293046 4.56466 0.145483 4.15738 1.57193L3.54549 4.22217L0.895246 4.83407C-0.531201 5.24134 -0.382982 8.58349 2.2889 8.93174L4.29183 9.19342C6.96371 9.54167 8.86499 7.64105 8.51608 4.96917L8.25506 2.96558V2.96558ZM20.7114 15.4206C23.3833 15.7688 23.5308 19.1123 22.105 19.5189L19.4548 20.1308L18.8422 22.7817C18.4356 24.2075 15.0928 24.0593 14.7446 21.3874L14.4835 19.3838C14.1353 16.7119 16.0359 14.8107 18.7078 15.1596L20.7114 15.4206Z" fill="#555555"/>
<path id="Vector_2" d="M19.5303 15.2665L18.7078 15.1589C16.036 14.8107 14.1347 16.7113 14.4836 19.3832L14.5407 19.8206C15.6044 19.6448 16.8033 19.01 17.829 17.9843C18.6751 17.1395 19.2535 16.1755 19.5303 15.2665V15.2665ZM4.06299 9.16325L4.29188 9.19342C6.96376 9.54167 8.86503 7.64105 8.51613 4.96917L8.43808 4.37236C7.57434 4.66552 6.66929 5.22757 5.87048 6.02704C4.89328 7.00358 4.2722 8.13818 4.06299 9.16325V9.16325Z" fill="#3E3E3E"/>
<path id="Vector_3" d="M11.8496 18.9916C15.7075 18.9916 18.8349 15.8642 18.8349 12.0063C18.8349 8.14842 15.7075 5.02098 11.8496 5.02098C7.99169 5.02098 4.86426 8.14842 4.86426 12.0063C4.86426 15.8642 7.99169 18.9916 11.8496 18.9916Z" fill="#555555"/>
<g id="Group">
<path id="Vector_4" d="M11.8307 11.7945C12.0865 13.7246 11.4162 16.2148 10.1301 17.7573C10.681 17.9213 11.2582 18.0072 11.8491 18.0072C12.3285 18.0072 12.7981 17.9449 13.2526 17.836C13.6218 16.1401 13.4205 13.9489 11.8307 11.7945ZM11.8307 11.7945C14.0652 12.2109 15.9179 13.9496 16.2766 16.0469C17.1463 15.096 17.6821 13.9148 17.8159 12.6431C16.5954 11.4042 14.601 10.5392 11.8307 11.7945ZM11.8307 11.7945C12.5187 10.3064 14.7879 8.94945 16.9699 8.88386C16.7239 8.48184 16.4347 8.10342 16.093 7.76173C15.59 7.2587 15.0168 6.8711 14.4068 6.5845C12.8505 7.39839 11.4871 8.97634 11.8307 11.7945V11.7945Z" fill="#F8F8F8"/>
<path id="Vector_5" d="M11.8583 11.822C10.0154 10.8507 8.85654 8.51659 9.35497 6.55498C8.72144 6.84355 8.12593 7.24165 7.60586 7.76172C7.23662 8.13096 6.93231 8.5402 6.67981 8.97109C7.52388 10.2559 9.14183 11.4823 11.8583 11.822ZM11.8032 11.822C10.1177 12.8432 7.71669 13.3901 5.92822 12.9258C6.08234 13.9364 6.49355 14.913 7.16513 15.7518C8.72209 15.2862 10.487 14.1102 11.8032 11.822Z" fill="#F8F8F8"/>
</g>
</g>
<g id="Emoji_2">
<path id="Vector_6" d="M8.25506 2.96558C7.90681 0.293046 4.56466 0.145483 4.15738 1.57193L3.54549 4.22217L0.895246 4.83407C-0.531201 5.24134 -0.382982 8.58349 2.2889 8.93174L4.29183 9.19342C6.96371 9.54167 8.86499 7.64105 8.51608 4.96917L8.25506 2.96558V2.96558ZM20.7114 15.4206C23.3833 15.7688 23.5308 19.1123 22.105 19.5189L19.4548 20.1308L18.8422 22.7817C18.4356 24.2075 15.0928 24.0593 14.7446 21.3874L14.4835 19.3838C14.1353 16.7119 16.0359 14.8107 18.7078 15.1596L20.7114 15.4206Z" fill="#DD2E44"/>
<path id="Vector_7" d="M19.5303 15.2665L18.7078 15.1589C16.036 14.8107 14.1347 16.7113 14.4836 19.3832L14.5407 19.8206C15.6044 19.6448 16.8033 19.01 17.829 17.9843C18.6751 17.1395 19.2535 16.1755 19.5303 15.2665V15.2665ZM4.06299 9.16325L4.29188 9.19342C6.96376 9.54167 8.86503 7.64105 8.51613 4.96917L8.43808 4.37236C7.57434 4.66552 6.66929 5.22757 5.87048 6.02704C4.89328 7.00358 4.2722 8.13818 4.06299 9.16325V9.16325Z" fill="#BE1931"/>
<path id="Vector_8" d="M11.8496 18.9916C15.7075 18.9916 18.8349 15.8642 18.8349 12.0063C18.8349 8.14842 15.7075 5.02098 11.8496 5.02098C7.99169 5.02098 4.86426 8.14842 4.86426 12.0063C4.86426 15.8642 7.99169 18.9916 11.8496 18.9916Z" fill="#DD2E44"/>
<g id="Group_2">
<path id="Vector_9" d="M11.8307 11.7945C12.0865 13.7246 11.4162 16.2148 10.1301 17.7573C10.681 17.9213 11.2582 18.0072 11.8491 18.0072C12.3285 18.0072 12.7981 17.9449 13.2526 17.836C13.6218 16.1401 13.4205 13.9489 11.8307 11.7945ZM11.8307 11.7945C14.0652 12.2109 15.9179 13.9496 16.2766 16.0469C17.1463 15.096 17.6821 13.9148 17.8159 12.6431C16.5954 11.4042 14.601 10.5392 11.8307 11.7945ZM11.8307 11.7945C12.5187 10.3064 14.7879 8.94945 16.9699 8.88386C16.7239 8.48184 16.4347 8.10342 16.093 7.76173C15.59 7.2587 15.0168 6.8711 14.4068 6.5845C12.8505 7.39839 11.4871 8.97634 11.8307 11.7945V11.7945Z" fill="#F5F8FA"/>
<path id="Vector_10" d="M11.8583 11.822C10.0154 10.8507 8.85654 8.51659 9.35497 6.55498C8.72144 6.84355 8.12593 7.24165 7.60586 7.76172C7.23662 8.13096 6.93231 8.5402 6.67981 8.97109C7.52388 10.2559 9.14183 11.4823 11.8583 11.822ZM11.8032 11.822C10.1177 12.8432 7.71669 13.3901 5.92822 12.9258C6.08234 13.9364 6.49355 14.913 7.16513 15.7518C8.72209 15.2862 10.487 14.1102 11.8032 11.822Z" fill="#F5F8FA"/>
</g>
</g>
</g>
</svg>
