<svg width="109" height="41" viewBox="0 0 109 41" fill="none" xmlns="http://www.w3.org/2000/svg">
<g id="Emoji">
<path id="Vector" d="M108.326 2.16758C106.782 0.577631 87.5231 -1.16461 67.929 1.04365C64.0212 1.48226 63.7775 2.59705 54.451 2.96255C45.1276 2.60009 44.884 1.4853 40.9731 1.04365C21.379 -1.16461 2.11993 0.580677 0.57567 2.16758C-0.19189 2.96255 -0.19189 8.49385 0.57567 9.28882C1.34932 10.0838 3.72815 11.1346 4.84903 14.8536C5.5709 17.2507 6.35673 32.7146 11.7967 37.323C17.1818 41.8857 34.5249 41.0299 40.2024 38.121C47.9268 34.1675 49.0111 20.5007 50.2295 14.8536C50.8478 11.9936 53.7688 11.759 54.448 11.759C55.1272 11.759 58.0482 11.9936 58.6665 14.8536C59.8879 20.4976 60.9722 34.1645 68.6935 38.121C74.3741 41.0299 91.7142 41.8857 97.0993 37.323C102.539 32.7146 103.325 17.2507 104.047 14.8536C105.168 11.1377 107.547 10.0838 108.32 9.28882C109.094 8.4969 109.094 2.96255 108.326 2.16758Z" fill="#31373D"/>
<path id="Vector_2" d="M44.2353 13.6444C43.9368 17.467 42.6484 28.7702 38.8837 32.1725C34.6926 35.9585 19.847 36.9484 15.1564 32.3065C12.6953 29.8728 10.3835 20.0682 10.5784 11.5458C10.6941 6.4318 17.5047 5.39316 27.215 5.39316C36.8034 5.39316 44.7683 6.81863 44.2353 13.6444ZM64.6639 13.6444C64.9624 17.467 66.2508 28.7702 70.0155 32.1725C74.2066 35.9585 89.0522 36.9484 93.7429 32.3065C96.2039 29.8728 98.5157 20.0682 98.3208 11.5458C98.2051 6.4318 91.3945 5.39316 81.6843 5.39316C72.0989 5.39316 64.1309 6.81863 64.6639 13.6444Z" fill="#55ACEE"/>
</g>
</svg>
