<svg width="60" height="60" viewBox="0 0 60 60" fill="none" xmlns="http://www.w3.org/2000/svg">
<g id="Emoji">
<path id="Vector" d="M28.3333 60C43.9814 60 56.6667 47.3147 56.6667 31.6667C56.6667 16.0186 43.9814 3.33334 28.3333 3.33334C12.6853 3.33334 0 16.0186 0 31.6667C0 47.3147 12.6853 60 28.3333 60Z" fill="#FFCC4D"/>
<path id="Vector_2" d="M29.9984 47.5C31.8393 47.5 33.3317 45.6345 33.3317 43.3333C33.3317 41.0321 31.8393 39.1667 29.9984 39.1667C28.1574 39.1667 26.665 41.0321 26.665 43.3333C26.665 45.6345 28.1574 47.5 29.9984 47.5Z" fill="#664500"/>
<path id="Vector_3" d="M13.5182 35.6383C13.2149 35.6383 12.9065 35.555 12.6315 35.3817C11.8532 34.8917 11.6199 33.8633 12.1099 33.0833C13.6365 30.6617 18.2782 26.52 24.9265 28.1467C25.8199 28.365 26.3665 29.2683 26.1482 30.1617C25.9282 31.055 25.0215 31.5983 24.1332 31.3833C18.1265 29.9133 14.9632 34.81 14.9315 34.86C14.6132 35.3633 14.0715 35.6383 13.5182 35.6383ZM33.4732 29.4017C32.9899 29.4017 32.5132 29.1933 32.1832 28.7917C31.5999 28.08 31.7032 27.0283 32.4165 26.445C37.7099 22.105 43.6865 23.8417 46.1082 25.3683C46.8865 25.8583 47.1199 26.8883 46.6282 27.6667C46.1399 28.4417 45.1149 28.6783 44.3349 28.1917C44.1049 28.0517 39.2482 25.1533 34.5282 29.0233C34.2182 29.2783 33.8449 29.4017 33.4732 29.4017Z" fill="#664500"/>
<path id="Vector_4" d="M22.2433 52.1217C22.13 52.1217 22.015 52.1067 21.9017 52.075C21.2383 51.8867 20.8517 51.1967 21.04 50.5317C21.7683 47.965 21.47 45.4833 20.2233 43.7217C19.395 42.5517 18.215 41.8367 16.985 41.7583C16.295 41.7167 15.7717 41.1217 15.815 40.4333C15.8583 39.745 16.45 39.1817 17.14 39.265C19.1283 39.3883 20.995 40.4867 22.2617 42.2767C23.9467 44.6583 24.3783 47.915 23.4433 51.2117C23.2883 51.7633 22.7867 52.1217 22.2433 52.1217ZM40.6383 47.02C40.4017 47.02 40.1633 46.9533 39.9517 46.8133C38.0067 45.53 36.9183 43.285 36.965 40.655C37.0133 37.93 38.3133 35.4 40.2717 34.2067C40.86 33.8467 41.6283 34.0333 41.9883 34.625C42.3483 35.215 42.1617 35.9817 41.57 36.3417C40.345 37.0883 39.4967 38.84 39.4633 40.6983C39.43 42.4567 40.1117 43.925 41.3267 44.7267C41.9033 45.1067 42.0617 45.8817 41.6817 46.4583C41.4417 46.8233 41.045 47.02 40.6383 47.02Z" fill="#E2A62D"/>
<path id="Vector_5" d="M28.6319 4.53333C28.5602 4.45167 28.4485 4.40667 28.3169 4.38167C28.3169 4.38167 1.77687 -0.656668 0.628537 0.356665C-0.518129 1.37167 1.23354 28.33 1.23354 28.33C1.24187 28.465 1.27187 28.58 1.3452 28.6617C2.35187 29.8017 9.2752 25.3217 16.8102 18.66C24.3469 11.9967 29.6385 5.67333 28.6319 4.53333Z" fill="#DD2E44"/>
<path id="Vector_6" d="M0.580911 0.451665C0.555911 0.501665 0.534245 0.569998 0.517578 0.656665C0.782578 2.94166 3.34258 21.7433 4.93758 27.62C7.33091 26.2817 9.76258 24.4633 12.6192 22.1983C10.1926 17.7567 1.92924 0.243331 0.580911 0.451665Z" fill="#EA596E"/>
<path id="Vector_7" d="M49.8375 48.715L32.2159 46.5433C30.3325 46.3733 27.0209 46.3567 27.1909 43.3733C27.3459 40.6683 30.5909 41.085 32.9892 41.44L50.7192 44.3967L49.8375 48.715Z" fill="#3B88C3"/>
<path id="Vector_8" d="M50.7158 44.3983L43.6792 43.1917C42.8558 43.0433 42.1225 44.27 42.0858 45.5683C42.0442 47.0117 42.4642 47.7417 43.2958 47.9117L50.2025 48.765L50.7158 44.3983Z" fill="#88C9F9"/>
<path id="Vector_9" d="M58.1973 43.9017L53.8273 47.92L46.0156 39.425L50.3856 35.4067C52.654 33.32 56.2173 33.47 58.304 35.7383L58.529 35.9833C60.614 38.2533 60.4656 41.815 58.1973 43.9017Z" fill="#3B88C3"/>
<path id="Vector_10" d="M53.8244 47.9223C55.7013 46.1965 55.4744 42.8959 53.3175 40.5501C51.1607 38.2042 47.8906 37.7016 46.0137 39.4273C44.1368 41.1531 44.3637 44.4537 46.5206 46.7995C48.6775 49.1454 51.9475 49.648 53.8244 47.9223Z" fill="#88C9F9"/>
<path id="Vector_11" d="M52.2612 46.223C53.1997 45.3602 52.9114 43.5198 51.6174 42.1124C50.3234 40.7051 48.5137 40.2637 47.5752 41.1266C46.6368 41.9894 46.925 43.8298 48.219 45.2372C49.513 46.6445 51.3227 47.0859 52.2612 46.223Z" fill="#226699"/>
<path id="Vector_12" d="M4.16699 58.3333C5.5477 58.3333 6.66699 57.214 6.66699 55.8333C6.66699 54.4526 5.5477 53.3333 4.16699 53.3333C2.78628 53.3333 1.66699 54.4526 1.66699 55.8333C1.66699 57.214 2.78628 58.3333 4.16699 58.3333Z" fill="#55ACEE"/>
<path id="Vector_13" d="M48.3333 6.66667C50.1743 6.66667 51.6667 5.17428 51.6667 3.33333C51.6667 1.49238 50.1743 0 48.3333 0C46.4924 0 45 1.49238 45 3.33333C45 5.17428 46.4924 6.66667 48.3333 6.66667Z" fill="#55ACEE"/>
<path id="Vector_14" d="M8.10652 48.7433L4.20986 39.3833L0.686523 49.4583L8.10652 48.7433ZM43.3332 8.33334L36.6665 10L38.3332 3.33334L43.3332 8.33334Z" fill="#EA596E"/>
<path id="Vector_15" d="M53.332 21.6667L60.0004 13.3317L55.0004 10L53.332 21.6667Z" fill="#77B255"/>
</g>
</svg>
