<svg width="36" height="36" viewBox="0 0 36 36" fill="none" xmlns="http://www.w3.org/2000/svg">
<g id="Emoji">
<path id="Vector" d="M13.4173 19.524L16.2453 22.352L11.2953 27.302L8.46729 24.473L13.4173 19.524Z" fill="#9AAAB4"/>
<path id="Vector_2" d="M1.17125 28.9409L7.05125 23.0619C7.83225 22.2809 9.09825 22.2809 9.87925 23.0619L12.7073 25.8899C13.4883 26.6709 13.4883 27.9369 12.7073 28.7179L6.82825 34.5969C5.26625 36.1599 2.73225 36.1599 1.17025 34.5969C-0.39075 33.0359 -0.38975 30.5029 1.17125 28.9409Z" fill="#66757F"/>
<path id="Vector_3" d="M22.269 27C29.7249 27 35.769 20.9558 35.769 13.5C35.769 6.04416 29.7249 0 22.269 0C14.8132 0 8.76904 6.04416 8.76904 13.5C8.76904 20.9558 14.8132 27 22.269 27Z" fill="#8899A6"/>
<path id="Vector_4" d="M22.269 23C27.5157 23 31.769 18.7467 31.769 13.5C31.769 8.25329 27.5157 4 22.269 4C17.0223 4 12.769 8.25329 12.769 13.5C12.769 18.7467 17.0223 23 22.269 23Z" fill="#BBDDF5"/>
</g>
</svg>
