<svg width="36" height="36" viewBox="0 0 36 36" fill="none" xmlns="http://www.w3.org/2000/svg">
<g id="Emoji">
<path id="Vector" d="M36 18C36 27.941 27.941 36 18 36C8.059 36 0 27.941 0 18C0 8.059 8.059 0 18 0C27.941 0 36 8.059 36 18Z" fill="#FFCC4D"/>
<path id="Vector_2" fill-rule="evenodd" clip-rule="evenodd" d="M1.24004 11.018C1.48004 11.257 2.67804 11.975 2.91704 12.693C3.15704 13.41 3.63704 17.477 5.07504 18.674C6.55804 19.906 12.152 19.448 13.223 18.914C15.62 17.719 15.914 14.383 16.338 12.693C16.577 11.736 18.015 11.736 18.015 11.736C18.015 11.736 19.453 11.736 19.693 12.692C20.117 14.383 20.413 17.719 22.808 18.913C23.88 19.448 29.474 19.907 30.959 18.675C32.395 17.478 32.874 13.411 33.114 12.693C33.352 11.976 34.552 11.258 34.791 11.019C35.032 10.78 35.032 9.823 34.791 9.583C34.312 9.105 28.657 8.679 22.568 9.344C21.353 9.477 20.891 9.822 18.014 9.822C15.139 9.822 14.675 9.476 13.461 9.344C7.37604 8.678 1.72004 9.104 1.24004 9.582C1.00104 9.821 1.00104 10.779 1.24004 11.018Z" fill="#292F33"/>
<path id="Vector_3" d="M27.335 23.629C27.157 23.468 26.891 23.458 26.7 23.6C26.661 23.629 22.778 26.5 18 26.5C13.234 26.5 9.33795 23.629 9.29995 23.6C9.10895 23.458 8.84295 23.47 8.66495 23.629C8.48795 23.789 8.44795 24.053 8.57095 24.257C8.69995 24.472 11.788 29.5 18 29.5C24.212 29.5 27.301 24.472 27.429 24.257C27.552 24.052 27.513 23.789 27.335 23.629Z" fill="#664500"/>
</g>
</svg>
