<svg width="60" height="61" viewBox="0 0 60 61" fill="none" xmlns="http://www.w3.org/2000/svg">
<g id="Emoji">
<path id="Vector" d="M60 53.111C60 53.111 60 60.1699 52.9412 60.1699H7.05882C0 60.1699 0 53.111 0 53.111V19.5816C0 12.5228 7.05882 12.5228 7.05882 12.5228H52.9412C52.9412 12.5228 60 12.5228 60 19.5816V53.111Z" fill="#31373D"/>
<path id="Vector_2" d="M35.8277 16.7387C36.5177 17.4287 36.5177 18.544 35.8277 19.234C35.1377 19.924 34.0224 19.924 33.3324 19.234L17.1112 3.01279C16.4212 2.32279 16.4212 1.2075 17.1112 0.5175C17.8012 -0.1725 18.9165 -0.1725 19.6065 0.5175L35.8277 16.7387Z" fill="#31373D"/>
<path id="Vector_3" d="M24.1708 16.7387C23.4808 17.4287 23.4808 18.544 24.1708 19.234C24.8608 19.924 25.9761 19.924 26.6661 19.234L42.8873 3.01279C43.5773 2.32279 43.5773 1.2075 42.8873 0.5175C42.1973 -0.1725 41.082 -0.1725 40.392 0.5175L24.1708 16.7387Z" fill="#31373D"/>
<path id="Vector_4" d="M29.9998 17.8169C44.1174 17.8169 47.6468 19.5816 49.4115 21.3463C51.1762 23.111 52.9409 26.6404 52.9409 35.464C52.9409 44.2875 51.1762 47.8169 49.4115 49.5816C47.6468 51.3463 44.1174 53.111 29.9998 53.111C15.8821 53.111 12.3527 51.3463 10.588 49.5816C8.8233 47.8169 7.05859 44.2875 7.05859 35.464C7.05859 26.6404 8.8233 23.111 10.588 21.3463C12.3527 19.5816 15.8821 17.8169 29.9998 17.8169Z" fill="#55ACEE"/>
<path id="Vector_5" d="M53.8238 56.6404C55.2857 56.6404 56.4709 55.4553 56.4709 53.9934C56.4709 52.5315 55.2857 51.3463 53.8238 51.3463C52.3619 51.3463 51.1768 52.5315 51.1768 53.9934C51.1768 55.4553 52.3619 56.6404 53.8238 56.6404Z" fill="#66757F"/>
<path id="Vector_6" d="M6.17636 56.6404C7.63829 56.6404 8.82341 55.4553 8.82341 53.9934C8.82341 52.5315 7.63829 51.3463 6.17636 51.3463C4.71443 51.3463 3.5293 52.5315 3.5293 53.9934C3.5293 55.4553 4.71443 56.6404 6.17636 56.6404Z" fill="#66757F"/>
</g>
</svg>
