<svg width="23" height="24" viewBox="0 0 23 24" fill="none" xmlns="http://www.w3.org/2000/svg">
<g id="Group 41">
<g id="Emoji">
<path id="Vector" d="M16.7572 22.005C15.7474 23.0141 14.1099 23.0141 13.1 22.005L0.757357 9.66229C-0.252452 8.65248 -0.252452 7.92906 0.757357 6.91925L6.24278 1.43383C7.25259 0.424019 7.97601 0.424019 8.98582 1.43383L21.3285 13.7765C22.3383 14.7863 22.3383 16.4239 21.3285 17.4337L16.7572 22.005Z" fill="#7A7A7A"/>
<path id="Vector_2" d="M10.4494 10.2112L7.29133 7.05308L10.9485 3.39591L10.0337 2.48178L6.3772 6.13895L3.95741 3.71915L3.04328 4.63393L5.46307 7.05308L1.80591 10.7102L2.72004 11.6244L6.3772 7.96721L9.53528 11.1253L10.4494 10.2112Z" fill="#575757"/>
<path id="Vector_3" d="M16.7572 22.9191C15.7474 23.9289 14.1098 23.9289 13.1 22.9191L6.70044 16.5196L15.843 7.37697L22.2426 13.7765C23.2524 14.7863 23.2524 16.4239 22.2426 17.4337L16.7572 22.9191Z" fill="#555555"/>
<path id="Vector_4" d="M8.02051 17.8397L11.0415 20.8614L16.1843 7.71831L15.843 7.37632L14.8707 6.7738L8.02051 17.8397Z" fill="#3E3E3E"/>
<path id="Vector_5" d="M14.4719 6.00512L15.8431 7.37632C15.3861 8.74816 10.3577 17.4337 9.44294 19.2619C9.44294 19.2619 8.98587 20.6331 7.84289 19.4908L4.41393 16.0618C3.97497 15.6229 3.97109 14.6771 4.41393 14.2336L12.643 6.00512C13.5572 5.09099 14.4719 6.00512 14.4719 6.00512V6.00512Z" fill="#D4D4D4"/>
</g>
<g id="Emoji_2">
<path id="Vector_6" d="M16.7572 22.005C15.7474 23.0141 14.1099 23.0141 13.1 22.005L0.757357 9.66229C-0.252452 8.65248 -0.252452 7.92906 0.757357 6.91925L6.24278 1.43383C7.25259 0.424019 7.97601 0.424019 8.98582 1.43383L21.3285 13.7765C22.3383 14.7863 22.3383 16.4239 21.3285 17.4337L16.7572 22.005Z" fill="#C1694F"/>
<path id="Vector_7" d="M10.4494 10.2112L7.29133 7.05308L10.9485 3.39591L10.0337 2.48178L6.3772 6.13895L3.95741 3.71915L3.04328 4.63393L5.46307 7.05308L1.80591 10.7102L2.72004 11.6244L6.3772 7.96721L9.53528 11.1253L10.4494 10.2112Z" fill="#8A4B38"/>
<path id="Vector_8" d="M16.7572 22.9191C15.7474 23.9289 14.1098 23.9289 13.1 22.9191L6.70044 16.5196L15.843 7.37697L22.2426 13.7765C23.2524 14.7863 23.2524 16.4239 22.2426 17.4337L16.7572 22.9191Z" fill="#DD2E44"/>
<path id="Vector_9" d="M8.02051 17.8397L11.0415 20.8614L16.1843 7.71831L15.843 7.37632L14.8707 6.7738L8.02051 17.8397Z" fill="#BE1931"/>
<path id="Vector_10" d="M14.4719 6.00512L15.8431 7.37632C15.3861 8.74816 10.3577 17.4337 9.44294 19.2619C9.44294 19.2619 8.98587 20.6331 7.84289 19.4908L4.41393 16.0618C3.97497 15.6229 3.97109 14.6771 4.41393 14.2336L12.643 6.00512C13.5572 5.09099 14.4719 6.00512 14.4719 6.00512V6.00512Z" fill="#CCD6DD"/>
</g>
</g>
</svg>
