<svg width="16" height="24" viewBox="0 0 16 24" fill="none" xmlns="http://www.w3.org/2000/svg">
<g id="Group 56">
<g id="Emoji">
<path id="Vector" d="M13.2906 21.451L11.6383 23.4256C11.2846 23.7799 10.512 23.4301 10.512 23.0764V8.27719C10.512 7.92353 12.0317 5.39346 13.7154 5.39346L13.6975 20.1337C13.6975 20.8603 13.6379 20.9718 13.2906 21.451Z" fill="#ABABAB"/>
<path id="Vector_2" d="M11.7933 7.28605H0.901611L1.0259 7.06309L3.29778 5.39346C3.60915 5.15064 3.83019 5.07311 4.18385 5.07311H13.386C13.5065 5.07311 13.7154 5.25058 13.6064 5.37424L11.7933 7.28605Z" fill="#DBDBDB"/>
<path id="Vector_3" d="M11.1526 23.653H1.5423C1.18864 23.653 0.901611 23.366 0.901611 23.0124L0.901611 7.28605C0.901611 7.28605 1.18864 6.99518 1.5423 6.99518H11.1526C11.5063 6.99518 11.7933 7.28605 11.7933 7.28605V23.0124C11.7933 23.366 11.5063 23.653 11.1526 23.653Z" fill="#CECECE"/>
<path id="Vector_4" d="M4.74579 19.8089C5.80732 19.8089 6.66785 18.9484 6.66785 17.8869C6.66785 16.8253 5.80732 15.9648 4.74579 15.9648C3.68427 15.9648 2.82373 16.8253 2.82373 17.8869C2.82373 18.9484 3.68427 19.8089 4.74579 19.8089Z" fill="#9C9C9C"/>
<path id="Vector_5" d="M4.74585 16.6055C6.16122 16.6055 7.3086 15.4581 7.3086 14.0427C7.3086 12.6274 6.16122 11.48 4.74585 11.48C3.33049 11.48 2.18311 12.6274 2.18311 14.0427C2.18311 15.4581 3.33049 16.6055 4.74585 16.6055Z" fill="#797979"/>
<path id="Vector_6" d="M7.62894 18.5275C9.22123 18.5275 10.512 17.2367 10.512 15.6445C10.512 14.0522 9.22123 12.7614 7.62894 12.7614C6.03665 12.7614 4.74585 14.0522 4.74585 15.6445C4.74585 17.2367 6.03665 18.5275 7.62894 18.5275Z" fill="#E9E9E9"/>
<path id="Vector_7" d="M7.62882 17.2462C8.51342 17.2462 9.23054 16.5291 9.23054 15.6444C9.23054 14.7598 8.51342 14.0427 7.62882 14.0427C6.74421 14.0427 6.0271 14.7598 6.0271 15.6444C6.0271 16.5291 6.74421 17.2462 7.62882 17.2462Z" fill="#CECECE"/>
<path id="Vector_8" d="M9.87049 6.01108C9.87049 6.01108 9.73594 6.28722 9.25094 6.28722C8.76594 6.28722 8.58911 6.01108 8.58911 6.01108V3.37017C8.58911 2.09328 8.92996 1.25013 9.60268 0.864441C10.2466 0.495405 11.0929 0.609448 12.1155 1.20721C12.9317 1.68324 14.9479 3.11133 14.996 3.15105C14.996 3.15105 15.1017 3.51304 14.8019 3.85581C14.502 4.19858 14.1836 4.1422 14.1836 4.1422C14.1721 4.13323 12.1968 2.73845 11.4696 2.31303C10.9052 1.98308 10.4548 1.91389 10.2498 2.03369C10.071 2.1362 9.87049 2.49883 9.87049 3.37017V6.01108V6.01108Z" fill="#D4D4D4"/>
<path id="Vector_9" d="M11.4305 0.870208C10.7104 0.584462 10.0966 0.581258 9.60263 0.863801C9.09585 1.15467 8.77807 1.70566 8.65186 2.50524L9.91721 2.74037C9.98641 2.31496 10.1235 2.10673 10.2504 2.0337C10.3913 1.95105 10.654 1.96642 10.9846 2.08623L11.4305 0.870208Z" fill="#A7A7A7"/>
<path id="Vector_10" d="M11.7491 7.63586H1.22195C1.04577 7.63586 0.901611 7.49171 0.901611 7.31552C0.901611 7.13933 1.04577 6.99518 1.22195 6.99518H11.7491C11.9253 6.99518 12.0694 7.13933 12.0694 7.31552C12.0694 7.49171 11.9253 7.63586 11.7491 7.63586Z" fill="#E9E9E9"/>
<path id="Vector_11" d="M13.6565 5.5831L12.0317 7.52823C11.9272 7.65701 11.7299 7.6711 11.5934 7.56026C11.4563 7.44942 11.4301 7.25337 11.5339 7.12459L13.1586 5.17947C13.2631 5.05069 13.4604 5.0366 13.5969 5.14743C13.734 5.25891 13.7602 5.45432 13.6565 5.5831V5.5831Z" fill="#E9E9E9"/>
</g>
<g id="Emoji_2">
<path id="Vector_12" d="M13.2906 21.451L11.6383 23.4256C11.2846 23.7799 10.512 23.4301 10.512 23.0764V8.27719C10.512 7.92353 12.0317 5.39346 13.7154 5.39346L13.6975 20.1337C13.6975 20.8603 13.6379 20.9718 13.2906 21.451Z" fill="#E3A919"/>
<path id="Vector_13" d="M11.7933 7.28605H0.901611L1.0259 7.06309L3.29778 5.39346C3.60915 5.15064 3.83019 5.07311 4.18385 5.07311H13.386C13.5065 5.07311 13.7154 5.25058 13.6064 5.37424L11.7933 7.28605Z" fill="#FFD983"/>
<path id="Vector_14" d="M11.1526 23.653H1.5423C1.18864 23.653 0.901611 23.366 0.901611 23.0124L0.901611 7.28605C0.901611 7.28605 1.18864 6.99518 1.5423 6.99518H11.1526C11.5063 6.99518 11.7933 7.28605 11.7933 7.28605V23.0124C11.7933 23.366 11.5063 23.653 11.1526 23.653Z" fill="#FFCC4D"/>
<path id="Vector_15" d="M4.74579 19.8089C5.80732 19.8089 6.66785 18.9484 6.66785 17.8869C6.66785 16.8253 5.80732 15.9648 4.74579 15.9648C3.68427 15.9648 2.82373 16.8253 2.82373 17.8869C2.82373 18.9484 3.68427 19.8089 4.74579 19.8089Z" fill="#F4900C"/>
<path id="Vector_16" d="M4.74585 16.6055C6.16122 16.6055 7.3086 15.4581 7.3086 14.0427C7.3086 12.6274 6.16122 11.48 4.74585 11.48C3.33049 11.48 2.18311 12.6274 2.18311 14.0427C2.18311 15.4581 3.33049 16.6055 4.74585 16.6055Z" fill="#EA596E"/>
<path id="Vector_17" d="M7.62894 18.5275C9.22123 18.5275 10.512 17.2367 10.512 15.6445C10.512 14.0522 9.22123 12.7614 7.62894 12.7614C6.03665 12.7614 4.74585 14.0522 4.74585 15.6445C4.74585 17.2367 6.03665 18.5275 7.62894 18.5275Z" fill="#FFE8B6"/>
<path id="Vector_18" d="M7.62882 17.2462C8.51342 17.2462 9.23054 16.5291 9.23054 15.6444C9.23054 14.7598 8.51342 14.0427 7.62882 14.0427C6.74421 14.0427 6.0271 14.7598 6.0271 15.6444C6.0271 16.5291 6.74421 17.2462 7.62882 17.2462Z" fill="#FFCC4D"/>
<path id="Vector_19" d="M9.87049 6.01108C9.87049 6.01108 9.73594 6.28722 9.25094 6.28722C8.76594 6.28722 8.58911 6.01108 8.58911 6.01108V3.37017C8.58911 2.09328 8.92996 1.25013 9.60268 0.864441C10.2466 0.495405 11.0929 0.609448 12.1155 1.20721C12.9317 1.68324 14.9479 3.11133 14.996 3.15105C14.996 3.15105 15.1017 3.51304 14.8019 3.85581C14.502 4.19858 14.1836 4.1422 14.1836 4.1422C14.1721 4.13323 12.1968 2.73845 11.4696 2.31303C10.9052 1.98308 10.4548 1.91389 10.2498 2.03369C10.071 2.1362 9.87049 2.49883 9.87049 3.37017V6.01108V6.01108Z" fill="#CCD6DD"/>
<path id="Vector_20" d="M11.4305 0.870208C10.7104 0.584462 10.0966 0.581258 9.60263 0.863801C9.09585 1.15467 8.77807 1.70566 8.65186 2.50524L9.91721 2.74037C9.98641 2.31496 10.1235 2.10673 10.2504 2.0337C10.3913 1.95105 10.654 1.96642 10.9846 2.08623L11.4305 0.870208Z" fill="#99AAB5"/>
<path id="Vector_21" d="M11.7491 7.63586H1.22195C1.04577 7.63586 0.901611 7.49171 0.901611 7.31552C0.901611 7.13933 1.04577 6.99518 1.22195 6.99518H11.7491C11.9253 6.99518 12.0694 7.13933 12.0694 7.31552C12.0694 7.49171 11.9253 7.63586 11.7491 7.63586Z" fill="#FFE8B6"/>
<path id="Vector_22" d="M13.6565 5.5831L12.0317 7.52823C11.9272 7.65701 11.7299 7.6711 11.5934 7.56026C11.4563 7.44942 11.4301 7.25337 11.5339 7.12459L13.1586 5.17947C13.2631 5.05069 13.4604 5.0366 13.5969 5.14743C13.734 5.25891 13.7602 5.45432 13.6565 5.5831V5.5831Z" fill="#FFE8B6"/>
</g>
</g>
</svg>
