<svg width="23" height="24" viewBox="0 0 23 24" fill="none" xmlns="http://www.w3.org/2000/svg">
<g id="Group 58">
<g id="Emoji">
<path id="Vector" d="M11.5392 13.9113C5.40225 13.9113 0.427734 13.7639 0.427734 18.1202C0.427734 22.4746 5.40225 23.4654 11.5392 23.4654C17.6761 23.4654 22.6507 22.4746 22.6507 18.1202C22.6507 13.7646 17.6761 13.9113 11.5392 13.9113Z" fill="#A9A9A9"/>
<path id="Vector_2" d="M22.3252 14.242C22.3252 14.242 16.9427 13.5976 11.5393 13.5701C6.13579 13.5976 0.753279 14.242 0.753279 14.242C0.220856 18.4817 4.64134 20.2283 11.5393 20.2283C18.4372 20.2283 22.8577 18.4817 22.3252 14.242V14.242Z" fill="#2F2F2F"/>
<path id="Vector_3" d="M21.943 12.5471L1.08156 12.9702C0.361189 12.9702 -0.241962 14.4299 0.522291 14.8117C6.22504 16.5852 10.8093 18.3796 10.8093 18.3796C11.4393 18.728 11.6521 18.7293 12.2827 18.3815C12.2827 18.3815 18.6129 15.8484 22.6791 14.7842C23.256 14.6336 22.6627 12.5471 21.943 12.5471Z" fill="#CECECE"/>
<path id="Vector_4" d="M22.4923 12.6021C21.248 11.4554 21.32 12.0658 20.3665 11.7966C20.0044 11.6945 17.413 8.34473 11.5066 8.34473H11.4935C5.58704 8.34473 2.99565 11.6945 2.6335 11.7966C1.67998 12.0658 1.75202 11.4554 0.507734 12.6021C-0.0633274 13.1287 -0.217881 13.4024 0.384615 13.5386C1.29229 13.7436 1.20977 14.2931 1.86007 14.4843C2.64725 14.7155 2.97076 14.2931 4.23993 14.466C5.32246 14.6133 5.39319 16.0174 6.48554 16.0174C7.57789 16.0174 7.57789 15.4935 8.66959 15.4935C9.76128 15.4935 10.407 16.8989 11.4994 16.8989C12.5917 16.8989 13.2368 15.4935 14.3291 15.4935C15.4215 15.4935 15.4215 16.0174 16.5132 16.0174C17.6055 16.0174 17.6762 14.6133 18.7588 14.466C20.0279 14.2937 20.3521 14.7155 21.1386 14.4843C21.7889 14.2931 21.7064 13.7443 22.6141 13.5386C23.2179 13.4031 23.064 13.1287 22.4923 12.6021V12.6021Z" fill="#9F9F9F"/>
<path id="Vector_5" d="M22.068 11.3631C22.068 13.3173 17.3541 14.24 11.5394 14.24C5.72462 14.24 1.01074 13.3173 1.01074 11.3631C1.01074 7.82475 1.64336 7.82475 11.5394 7.82475C21.4353 7.82475 22.068 7.8254 22.068 11.3631Z" fill="#555555"/>
<path id="Vector_6" d="M11.5392 0.887533C5.40225 0.887533 0.427734 3.76314 0.427734 8.11879C0.427734 12.13 5.40225 12.2937 11.5392 12.2937C17.6761 12.2937 22.6507 12.13 22.6507 8.11879C22.6507 3.76249 17.6761 0.887533 11.5392 0.887533Z" fill="#A9A9A9"/>
<path id="Vector_7" d="M6.81358 2.96418C6.48745 2.75527 6.05457 2.85088 5.84632 3.17702C5.63806 3.50315 5.73302 3.93669 6.05915 4.14429C6.38529 4.35319 7.21175 4.50906 7.42066 4.18292C7.62892 3.85679 7.13972 3.17243 6.81358 2.96418V2.96418ZM13.1882 2.28637C12.8202 2.40556 12.1738 2.94519 12.2937 3.31323C12.4135 3.68128 13.2524 3.7376 13.6205 3.61841C13.9885 3.49922 14.1896 3.10367 14.0697 2.73562C13.9505 2.36823 13.555 2.16653 13.1882 2.28637ZM20.3324 6.8935C20.0364 6.64464 19.2944 7.04085 19.0449 7.33686C18.796 7.63352 18.8347 8.07491 19.1307 8.32377C19.4267 8.57263 19.8688 8.53399 20.1176 8.23798C20.3671 7.94132 20.6291 7.14236 20.3324 6.8935ZM17.9467 3.61907C17.6205 3.41081 17.1876 3.50643 16.9787 3.83256C16.7705 4.15869 16.8661 4.59157 17.1922 4.79983C17.5184 5.00874 18.3448 5.1646 18.5531 4.83847C18.762 4.51168 18.2728 3.82732 17.9467 3.61907ZM8.12336 8.20327C7.79722 7.99502 7.36434 8.09063 7.15543 8.41677C6.94718 8.74224 7.04279 9.17578 7.36893 9.38338C7.69506 9.59229 8.52153 9.74881 8.72978 9.42202C8.93869 9.09588 8.44949 8.41153 8.12336 8.20327V8.20327ZM10.1181 5.05458C9.8981 5.37285 9.71211 6.19343 10.031 6.41347C10.3493 6.63351 11.0507 6.16854 11.2707 5.85027C11.4908 5.53199 11.4102 5.09584 11.092 4.87579C10.7743 4.65575 10.3375 4.7363 10.1181 5.05458V5.05458ZM15.3271 8.20327C15.001 7.99502 14.5681 8.09063 14.3592 8.41677C14.1509 8.74224 14.2465 9.17643 14.5727 9.38338C14.8988 9.59229 15.7253 9.74881 15.9335 9.42202C16.1424 9.09588 15.6532 8.41153 15.3271 8.20327V8.20327ZM2.99166 5.65773C2.73364 5.94653 2.44614 6.73698 2.73495 6.99501C3.02244 7.25303 3.77687 6.88106 4.0349 6.59225C4.29358 6.3041 4.26869 5.8614 3.98054 5.60272C3.69305 5.34469 3.24969 5.36958 2.99166 5.65773V5.65773Z" fill="#E9E9E9"/>
</g>
<g id="Emoji_2">
<path id="Vector_8" d="M11.5392 13.9113C5.40225 13.9113 0.427734 13.7639 0.427734 18.1202C0.427734 22.4746 5.40225 23.4654 11.5392 23.4654C17.6761 23.4654 22.6507 22.4746 22.6507 18.1202C22.6507 13.7646 17.6761 13.9113 11.5392 13.9113Z" fill="#D99E82"/>
<path id="Vector_9" d="M22.3252 14.242C22.3252 14.242 16.9427 13.5976 11.5393 13.5701C6.13579 13.5976 0.753279 14.242 0.753279 14.242C0.220856 18.4817 4.64134 20.2283 11.5393 20.2283C18.4372 20.2283 22.8577 18.4817 22.3252 14.242V14.242Z" fill="#662113"/>
<path id="Vector_10" d="M21.943 12.5471L1.08156 12.9702C0.361189 12.9702 -0.241962 14.4299 0.522291 14.8117C6.22504 16.5852 10.8093 18.3796 10.8093 18.3796C11.4393 18.728 11.6521 18.7293 12.2827 18.3815C12.2827 18.3815 18.6129 15.8484 22.6791 14.7842C23.256 14.6336 22.6627 12.5471 21.943 12.5471Z" fill="#FFCC4D"/>
<path id="Vector_11" d="M22.4923 12.6021C21.248 11.4554 21.32 12.0658 20.3665 11.7966C20.0044 11.6945 17.413 8.34473 11.5066 8.34473H11.4935C5.58704 8.34473 2.99565 11.6945 2.6335 11.7966C1.67998 12.0658 1.75202 11.4554 0.507734 12.6021C-0.0633274 13.1287 -0.217881 13.4024 0.384615 13.5386C1.29229 13.7436 1.20977 14.2931 1.86007 14.4843C2.64725 14.7155 2.97076 14.2931 4.23993 14.466C5.32246 14.6133 5.39319 16.0174 6.48554 16.0174C7.57789 16.0174 7.57789 15.4935 8.66959 15.4935C9.76128 15.4935 10.407 16.8989 11.4994 16.8989C12.5917 16.8989 13.2368 15.4935 14.3291 15.4935C15.4215 15.4935 15.4215 16.0174 16.5132 16.0174C17.6055 16.0174 17.6762 14.6133 18.7588 14.466C20.0279 14.2937 20.3521 14.7155 21.1386 14.4843C21.7889 14.2931 21.7064 13.7443 22.6141 13.5386C23.2179 13.4031 23.064 13.1287 22.4923 12.6021V12.6021Z" fill="#77B255"/>
<path id="Vector_12" d="M22.068 11.3631C22.068 13.3173 17.3541 14.24 11.5394 14.24C5.72462 14.24 1.01074 13.3173 1.01074 11.3631C1.01074 7.82475 1.64336 7.82475 11.5394 7.82475C21.4353 7.82475 22.068 7.8254 22.068 11.3631Z" fill="#DD2E44"/>
<path id="Vector_13" d="M11.5392 0.887533C5.40225 0.887533 0.427734 3.76314 0.427734 8.11879C0.427734 12.13 5.40225 12.2937 11.5392 12.2937C17.6761 12.2937 22.6507 12.13 22.6507 8.11879C22.6507 3.76249 17.6761 0.887533 11.5392 0.887533Z" fill="#D99E82"/>
<path id="Vector_14" d="M6.81358 2.96418C6.48745 2.75527 6.05457 2.85088 5.84632 3.17702C5.63806 3.50315 5.73302 3.93669 6.05915 4.14429C6.38529 4.35319 7.21175 4.50906 7.42066 4.18292C7.62892 3.85679 7.13972 3.17243 6.81358 2.96418V2.96418ZM13.1882 2.28637C12.8202 2.40556 12.1738 2.94519 12.2937 3.31323C12.4135 3.68128 13.2524 3.7376 13.6205 3.61841C13.9885 3.49922 14.1896 3.10367 14.0697 2.73562C13.9505 2.36823 13.555 2.16653 13.1882 2.28637ZM20.3324 6.8935C20.0364 6.64464 19.2944 7.04085 19.0449 7.33686C18.796 7.63352 18.8347 8.07491 19.1307 8.32377C19.4267 8.57263 19.8688 8.53399 20.1176 8.23798C20.3671 7.94132 20.6291 7.14236 20.3324 6.8935ZM17.9467 3.61907C17.6205 3.41081 17.1876 3.50643 16.9787 3.83256C16.7705 4.15869 16.8661 4.59157 17.1922 4.79983C17.5184 5.00874 18.3448 5.1646 18.5531 4.83847C18.762 4.51168 18.2728 3.82732 17.9467 3.61907ZM8.12336 8.20327C7.79722 7.99502 7.36434 8.09063 7.15543 8.41677C6.94718 8.74224 7.04279 9.17578 7.36893 9.38338C7.69506 9.59229 8.52153 9.74881 8.72978 9.42202C8.93869 9.09588 8.44949 8.41153 8.12336 8.20327V8.20327ZM10.1181 5.05458C9.8981 5.37285 9.71211 6.19343 10.031 6.41347C10.3493 6.63351 11.0507 6.16854 11.2707 5.85027C11.4908 5.53199 11.4102 5.09584 11.092 4.87579C10.7743 4.65575 10.3375 4.7363 10.1181 5.05458V5.05458ZM15.3271 8.20327C15.001 7.99502 14.5681 8.09063 14.3592 8.41677C14.1509 8.74224 14.2465 9.17643 14.5727 9.38338C14.8988 9.59229 15.7253 9.74881 15.9335 9.42202C16.1424 9.09588 15.6532 8.41153 15.3271 8.20327V8.20327ZM2.99166 5.65773C2.73364 5.94653 2.44614 6.73698 2.73495 6.99501C3.02244 7.25303 3.77687 6.88106 4.0349 6.59225C4.29358 6.3041 4.26869 5.8614 3.98054 5.60272C3.69305 5.34469 3.24969 5.36958 2.99166 5.65773V5.65773Z" fill="#FFE8B6"/>
</g>
</g>
</svg>
