<svg width="24" height="24" viewBox="0 0 24 24" fill="none" xmlns="http://www.w3.org/2000/svg">
<g id="Group 57">
<g id="Emoji">
<path id="Vector" d="M22.9409 22.8291L12.6271 10.3267C12.6271 10.3267 9.01131 12.6949 7.69507 16.5333C7.69507 16.5333 10.6887 19.9279 13.9748 21.8092C18.0595 24.1479 21.4425 23.6406 22.7645 23.3429C22.9968 23.291 23.0923 23.0139 22.9409 22.8291V22.8291Z" fill="#D4D4D4"/>
<path id="Vector_2" d="M11.5206 8.97455L8.93235 11.2575C8.97469 11.2754 9.13505 11.5461 9.04397 11.9675C8.7861 13.1638 7.53913 14.7181 7.13631 15.2376C7.01187 15.398 6.99262 15.6809 7.15298 15.8836L7.69501 16.5333C8.86308 13.9907 11.9003 10.9566 12.6271 10.3267L11.5206 8.97455V8.97455Z" fill="#B6B6B6"/>
<path id="Vector_3" d="M11.5207 8.97455C11.5207 8.97455 9.39111 6.27021 7.82406 4.49341C6.25701 2.71661 5.19413 1.69607 4.17872 1.04307C3.14279 0.377253 2.0363 0.764045 1.19985 1.50107C0.363406 2.23809 -0.533976 3.89238 0.433965 4.98989C0.963799 5.59092 2.22039 5.03992 2.86569 5.77181C3.30379 6.26829 3.52702 6.64738 5.08765 8.24715C7.49885 10.7193 8.93248 11.2568 8.93248 11.2568C8.93248 11.2568 9.73493 10.5884 10.1718 10.1997C10.6092 9.81228 11.5207 8.97455 11.5207 8.97455V8.97455Z" fill="#363636"/>
<path id="Vector_4" d="M7.38143 8.27088C7.865 8.27088 8.25701 7.87888 8.25701 7.39531C8.25701 6.91174 7.865 6.51974 7.38143 6.51974C6.89787 6.51974 6.50586 6.91174 6.50586 7.39531C6.50586 7.87888 6.89787 8.27088 7.38143 8.27088Z" fill="#F8F8F8"/>
<path id="Vector_5" d="M3.71566 4.49277C4.19923 4.49277 4.59123 4.10076 4.59123 3.6172C4.59123 3.13363 4.19923 2.74162 3.71566 2.74162C3.2321 2.74162 2.84009 3.13363 2.84009 3.6172C2.84009 4.10076 3.2321 4.49277 3.71566 4.49277Z" fill="#F8F8F8"/>
</g>
<g id="Emoji_2">
<path id="Vector_6" d="M22.9409 22.8291L12.6271 10.3267C12.6271 10.3267 9.01131 12.6949 7.69507 16.5333C7.69507 16.5333 10.6887 19.9279 13.9748 21.8092C18.0595 24.1479 21.4425 23.6406 22.7645 23.3429C22.9968 23.291 23.0923 23.0139 22.9409 22.8291V22.8291Z" fill="#CCD6DD"/>
<path id="Vector_7" d="M11.5206 8.97455L8.93235 11.2575C8.97469 11.2754 9.13505 11.5461 9.04397 11.9675C8.7861 13.1638 7.53913 14.7181 7.13631 15.2376C7.01187 15.398 6.99262 15.6809 7.15298 15.8836L7.69501 16.5333C8.86308 13.9907 11.9003 10.9566 12.6271 10.3267L11.5206 8.97455V8.97455Z" fill="#AAB8C2"/>
<path id="Vector_8" d="M11.5207 8.97455C11.5207 8.97455 9.39111 6.27021 7.82406 4.49341C6.25701 2.71661 5.19413 1.69607 4.17872 1.04307C3.14279 0.377253 2.0363 0.764045 1.19985 1.50107C0.363406 2.23809 -0.533976 3.89238 0.433965 4.98989C0.963799 5.59092 2.22039 5.03992 2.86569 5.77181C3.30379 6.26829 3.52702 6.64738 5.08765 8.24715C7.49885 10.7193 8.93248 11.2568 8.93248 11.2568C8.93248 11.2568 9.73493 10.5884 10.1718 10.1997C10.6092 9.81228 11.5207 8.97455 11.5207 8.97455V8.97455Z" fill="#31373D"/>
<path id="Vector_9" d="M7.38143 8.27088C7.865 8.27088 8.25701 7.87888 8.25701 7.39531C8.25701 6.91174 7.865 6.51974 7.38143 6.51974C6.89787 6.51974 6.50586 6.91174 6.50586 7.39531C6.50586 7.87888 6.89787 8.27088 7.38143 8.27088Z" fill="#F5F8FA"/>
<path id="Vector_10" d="M3.71566 4.49277C4.19923 4.49277 4.59123 4.10076 4.59123 3.6172C4.59123 3.13363 4.19923 2.74162 3.71566 2.74162C3.2321 2.74162 2.84009 3.13363 2.84009 3.6172C2.84009 4.10076 3.2321 4.49277 3.71566 4.49277Z" fill="#F5F8FA"/>
</g>
</g>
</svg>
