<svg width="24" height="25" viewBox="0 0 24 25" fill="none" xmlns="http://www.w3.org/2000/svg">
<g id="Group 48">
<g id="Emoji">
<path id="Vector" d="M20.5295 0L2.94123 0C1.44691 0 0.235352 1.21156 0.235352 2.70588L0.235352 21.6471C0.235352 23.1414 1.44691 24.3529 2.94123 24.3529H20.5295C22.0238 24.3529 23.2354 23.1414 23.2354 21.6471V2.70588C23.2354 1.21156 22.0238 0 20.5295 0Z" fill="#2E2E2E"/>
<path id="Vector_2" d="M9.0294 7.44118C9.0294 8.9355 7.81784 10.1471 6.32351 10.1471H5.64704C4.15272 10.1471 2.94116 8.9355 2.94116 7.44118V6.08824C2.94116 4.59391 4.15272 3.38235 5.64704 3.38235H6.32351C7.81784 3.38235 9.0294 4.59391 9.0294 6.08824V7.44118Z" fill="#2E2E2E"/>
<path id="Vector_3" d="M14.4413 18.2647C14.4413 19.0115 13.8352 19.6176 13.0884 19.6176H2.94132C2.1945 19.6176 1.58838 19.0115 1.58838 18.2647L1.58838 12.8529C1.58838 12.1061 2.1945 11.5 2.94132 11.5H13.0884C13.8352 11.5 14.4413 12.1061 14.4413 12.8529V18.2647ZM21.8825 12.8529C21.8825 12.1061 21.2764 11.5 20.5296 11.5H17.1472C16.4004 11.5 15.7943 12.1061 15.7943 12.8529V18.2647C15.7943 19.0115 16.4004 19.6176 17.1472 19.6176H20.5296C21.2764 19.6176 21.8825 19.0115 21.8825 18.2647V12.8529ZM10.3825 2.70588C10.3825 1.95906 10.9886 1.35294 11.7354 1.35294L20.5296 1.35294C21.2764 1.35294 21.8825 1.95906 21.8825 2.70588V8.79412C21.8825 9.54094 21.2764 10.1471 20.5296 10.1471H11.7354C10.9886 10.1471 10.3825 9.54094 10.3825 8.79412V2.70588ZM9.02956 8.79412C9.02956 9.54094 8.42344 10.1471 7.67661 10.1471H2.94132C2.1945 10.1471 1.58838 9.54094 1.58838 8.79412L1.58838 2.70588C1.58838 1.95906 2.1945 1.35294 2.94132 1.35294L7.67661 1.35294C8.42344 1.35294 9.02956 1.95906 9.02956 2.70588V8.79412Z" fill="#3E3E3E"/>
<path id="Vector_4" d="M9.02956 8.79412C9.02956 9.54094 8.42344 10.1471 7.67661 10.1471H2.94132C2.1945 10.1471 1.58838 9.54094 1.58838 8.79412L1.58838 4.73529C1.58838 3.98847 2.1945 3.38235 2.94132 3.38235H7.67661C8.42344 3.38235 9.02956 3.98847 9.02956 4.73529V8.79412ZM21.8825 8.79412C21.8825 9.54094 21.2764 10.1471 20.5296 10.1471H11.7354C10.9886 10.1471 10.3825 9.54094 10.3825 8.79412V4.73529C10.3825 3.98847 10.9886 3.38235 11.7354 3.38235H20.5296C21.2764 3.38235 21.8825 3.98847 21.8825 4.73529V8.79412Z" fill="#555555"/>
<path id="Vector_5" d="M14.4413 18.2647C14.4413 19.0115 13.8352 19.6176 13.0884 19.6176H2.94132C2.1945 19.6176 1.58838 19.0115 1.58838 18.2647L1.58838 14.8824C1.58838 14.1355 2.1945 13.5294 2.94132 13.5294H13.0884C13.8352 13.5294 14.4413 14.1355 14.4413 14.8824V18.2647Z" fill="#E7E7E7"/>
<path id="Vector_6" d="M21.8824 18.2647C21.8824 19.0115 21.2763 19.6176 20.5295 19.6176H17.1471C16.4003 19.6176 15.7942 19.0115 15.7942 18.2647V14.8824C15.7942 14.1355 16.4003 13.5294 17.1471 13.5294H20.5295C21.2763 13.5294 21.8824 14.1355 21.8824 14.8824V18.2647Z" fill="#555555"/>
<path id="Vector_7" d="M17.8338 6.25059C18.7233 7.25041 19.1245 8.34629 18.7281 8.69874L18.0117 9.33529C17.6159 9.68841 16.5735 9.16279 15.6846 8.16297L13.2689 5.44829C12.3801 4.44779 11.9789 3.35191 12.3753 2.99947L13.0917 2.36291C13.4881 2.01047 14.5285 2.53541 15.4174 3.53524L17.8338 6.25059V6.25059Z" fill="#B5B5B5"/>
<path id="Vector_8" d="M14.6306 7.49259C14.2261 8.53368 13.6315 9.27374 13.3041 9.14588L12.7108 8.91521C12.3827 8.78803 12.4449 7.84097 12.8495 6.80056L13.9487 3.97426C14.3539 2.93385 14.9479 2.19379 15.276 2.32097L15.8686 2.55165C16.1966 2.67882 16.1351 3.62588 15.7299 4.66629L14.6306 7.49259V7.49259Z" fill="#DBDBDB"/>
<path id="Vector_9" d="M15.1942 7.80377C14.1376 8.16568 13.1885 8.188 13.0748 7.85518L12.8685 7.25244C12.7542 6.91962 13.5193 6.35679 14.5746 5.99556L17.4441 5.01468C18.5008 4.65344 19.4492 4.63112 19.5635 4.96394L19.7692 5.566C19.8835 5.8995 19.1191 6.46232 18.0624 6.82288L15.1942 7.80377Z" fill="#DBDBDB"/>
<path id="Vector_10" d="M3.9166 5.32585C4.16893 2.54827 7.23604 4.67577 8.74322 6.03547C7.83675 7.04003 3.61151 8.694 3.9166 5.32585V5.32585Z" fill="#808080"/>
<path id="Vector_11" d="M4.01277 5.26565C6.54209 4.09062 6.24039 7.81121 5.8203 9.79665C4.49712 9.51659 0.945653 6.69165 4.01277 5.26565V5.26565Z" fill="#808080"/>
<path id="Vector_12" d="M2.94128 5.41176C2.12952 4.32941 3.61775 2.02941 7.00011 2.02941C7.67658 2.70588 4.9707 8.11765 2.94128 5.41176Z" fill="#9F9F9F"/>
<path id="Vector_13" d="M3.6178 18.2647C3.44463 18.2647 3.27145 18.1984 3.13954 18.0665C2.87504 17.802 2.87504 17.3745 3.13954 17.11L3.81601 16.4335C4.08051 16.169 4.50804 16.169 4.77254 16.4335C5.03704 16.698 5.03704 17.1255 4.77254 17.39L4.09607 18.0665C3.96415 18.1984 3.79098 18.2647 3.6178 18.2647ZM12.0175 18.6023C11.8444 18.6023 11.6712 18.536 11.5393 18.4041L10.8628 17.7276C10.5983 17.4631 10.5983 17.0349 10.8628 16.7711C11.1273 16.5066 11.5555 16.5066 11.82 16.7711L12.4965 17.4475C12.761 17.712 12.761 18.1396 12.4965 18.4041C12.3639 18.536 12.1907 18.6023 12.0175 18.6023ZM7.84574 15.6995C7.67324 15.6995 7.50007 15.6332 7.36748 15.502L7.05698 15.1922C6.79248 14.9277 6.7918 14.5001 7.05563 14.2356C7.31877 13.9705 7.74765 13.9705 8.01283 14.2343L8.32333 14.5441C8.58783 14.8086 8.58851 15.2361 8.32468 15.5006C8.19277 15.6332 8.0196 15.6995 7.84574 15.6995V15.6995Z" fill="#BFBFBF"/>
<path id="Vector_14" d="M21.3066 15.8375C21.7849 16.4112 21.7071 17.2642 21.1328 17.7425L19.5735 19.042C18.9999 19.5202 18.1469 19.4424 17.6686 18.8681L16.3691 17.3089C15.8908 16.7352 15.9686 15.8822 16.5429 15.4039L18.1022 14.1044C18.6759 13.6261 19.5289 13.7039 20.0071 14.2783L21.3066 15.8375Z" fill="#6D6D6D"/>
<path id="Vector_15" d="M21.3066 14.4846C21.7849 15.0582 21.7071 15.9113 21.1328 16.3895L19.5735 17.689C18.9999 18.1673 18.1469 18.0895 17.6686 17.5152L16.3691 15.9559C15.8908 15.3823 15.9686 14.5292 16.5429 14.051L18.1022 12.7515C18.6759 12.2732 19.5289 12.351 20.0071 12.9253L21.3066 14.4846Z" fill="#9C9C9C"/>
<path id="Vector_16" d="M7.67647 18.2647C8.05007 18.2647 8.35294 17.9618 8.35294 17.5882C8.35294 17.2146 8.05007 16.9118 7.67647 16.9118C7.30287 16.9118 7 17.2146 7 17.5882C7 17.9618 7.30287 18.2647 7.67647 18.2647Z" fill="#D4D4D4"/>
<path id="Vector_17" d="M13.0883 15.5588C13.4619 15.5588 13.7648 15.256 13.7648 14.8824C13.7648 14.5087 13.4619 14.2059 13.0883 14.2059C12.7147 14.2059 12.4119 14.5087 12.4119 14.8824C12.4119 15.256 12.7147 15.5588 13.0883 15.5588Z" fill="#D4D4D4"/>
</g>
<g id="Emoji_2">
<path id="Vector_18" d="M20.5295 0L2.94123 0C1.44691 0 0.235352 1.21156 0.235352 2.70588L0.235352 21.6471C0.235352 23.1414 1.44691 24.3529 2.94123 24.3529H20.5295C22.0238 24.3529 23.2354 23.1414 23.2354 21.6471V2.70588C23.2354 1.21156 22.0238 0 20.5295 0Z" fill="#292F33"/>
<path id="Vector_19" d="M9.0294 7.44118C9.0294 8.9355 7.81784 10.1471 6.32351 10.1471H5.64704C4.15272 10.1471 2.94116 8.9355 2.94116 7.44118V6.08824C2.94116 4.59391 4.15272 3.38235 5.64704 3.38235H6.32351C7.81784 3.38235 9.0294 4.59391 9.0294 6.08824V7.44118Z" fill="#292F33"/>
<path id="Vector_20" d="M14.4413 18.2647C14.4413 19.0115 13.8352 19.6176 13.0884 19.6176H2.94132C2.1945 19.6176 1.58838 19.0115 1.58838 18.2647L1.58838 12.8529C1.58838 12.1061 2.1945 11.5 2.94132 11.5H13.0884C13.8352 11.5 14.4413 12.1061 14.4413 12.8529V18.2647ZM21.8825 12.8529C21.8825 12.1061 21.2764 11.5 20.5296 11.5H17.1472C16.4004 11.5 15.7943 12.1061 15.7943 12.8529V18.2647C15.7943 19.0115 16.4004 19.6176 17.1472 19.6176H20.5296C21.2764 19.6176 21.8825 19.0115 21.8825 18.2647V12.8529ZM10.3825 2.70588C10.3825 1.95906 10.9886 1.35294 11.7354 1.35294L20.5296 1.35294C21.2764 1.35294 21.8825 1.95906 21.8825 2.70588V8.79412C21.8825 9.54094 21.2764 10.1471 20.5296 10.1471H11.7354C10.9886 10.1471 10.3825 9.54094 10.3825 8.79412V2.70588ZM9.02956 8.79412C9.02956 9.54094 8.42344 10.1471 7.67661 10.1471H2.94132C2.1945 10.1471 1.58838 9.54094 1.58838 8.79412L1.58838 2.70588C1.58838 1.95906 2.1945 1.35294 2.94132 1.35294L7.67661 1.35294C8.42344 1.35294 9.02956 1.95906 9.02956 2.70588V8.79412Z" fill="#BE1931"/>
<path id="Vector_21" d="M9.02956 8.79412C9.02956 9.54094 8.42344 10.1471 7.67661 10.1471H2.94132C2.1945 10.1471 1.58838 9.54094 1.58838 8.79412L1.58838 4.73529C1.58838 3.98847 2.1945 3.38235 2.94132 3.38235H7.67661C8.42344 3.38235 9.02956 3.98847 9.02956 4.73529V8.79412ZM21.8825 8.79412C21.8825 9.54094 21.2764 10.1471 20.5296 10.1471H11.7354C10.9886 10.1471 10.3825 9.54094 10.3825 8.79412V4.73529C10.3825 3.98847 10.9886 3.38235 11.7354 3.38235H20.5296C21.2764 3.38235 21.8825 3.98847 21.8825 4.73529V8.79412Z" fill="#DD2E44"/>
<path id="Vector_22" d="M14.4413 18.2647C14.4413 19.0115 13.8352 19.6176 13.0884 19.6176H2.94132C2.1945 19.6176 1.58838 19.0115 1.58838 18.2647L1.58838 14.8824C1.58838 14.1355 2.1945 13.5294 2.94132 13.5294H13.0884C13.8352 13.5294 14.4413 14.1355 14.4413 14.8824V18.2647Z" fill="#E1E8ED"/>
<path id="Vector_23" d="M21.8824 18.2647C21.8824 19.0115 21.2763 19.6176 20.5295 19.6176H17.1471C16.4003 19.6176 15.7942 19.0115 15.7942 18.2647V14.8824C15.7942 14.1355 16.4003 13.5294 17.1471 13.5294H20.5295C21.2763 13.5294 21.8824 14.1355 21.8824 14.8824V18.2647Z" fill="#DD2E44"/>
<path id="Vector_24" d="M17.8338 6.25059C18.7233 7.25041 19.1245 8.34629 18.7281 8.69874L18.0117 9.33529C17.6159 9.68841 16.5735 9.16279 15.6846 8.16297L13.2689 5.44829C12.3801 4.44779 11.9789 3.35191 12.3753 2.99947L13.0917 2.36291C13.4881 2.01047 14.5285 2.53541 15.4174 3.53524L17.8338 6.25059V6.25059Z" fill="#FFAC33"/>
<path id="Vector_25" d="M14.6306 7.49259C14.2261 8.53368 13.6315 9.27374 13.3041 9.14588L12.7108 8.91521C12.3827 8.78803 12.4449 7.84097 12.8495 6.80056L13.9487 3.97426C14.3539 2.93385 14.9479 2.19379 15.276 2.32097L15.8686 2.55165C16.1966 2.67882 16.1351 3.62588 15.7299 4.66629L14.6306 7.49259V7.49259Z" fill="#FFD983"/>
<path id="Vector_26" d="M15.1942 7.80377C14.1376 8.16568 13.1885 8.188 13.0748 7.85518L12.8685 7.25244C12.7542 6.91962 13.5193 6.35679 14.5746 5.99556L17.4441 5.01468C18.5008 4.65344 19.4492 4.63112 19.5635 4.96394L19.7692 5.566C19.8835 5.8995 19.1191 6.46232 18.0624 6.82288L15.1942 7.80377Z" fill="#FFD983"/>
<path id="Vector_27" d="M3.9166 5.32585C4.16893 2.54827 7.23604 4.67577 8.74322 6.03547C7.83675 7.04003 3.61151 8.694 3.9166 5.32585V5.32585Z" fill="#5C913B"/>
<path id="Vector_28" d="M4.01277 5.26565C6.54209 4.09062 6.24039 7.81121 5.8203 9.79665C4.49712 9.51659 0.945653 6.69165 4.01277 5.26565V5.26565Z" fill="#5C913B"/>
<path id="Vector_29" d="M2.94128 5.41176C2.12952 4.32941 3.61775 2.02941 7.00011 2.02941C7.67658 2.70588 4.9707 8.11765 2.94128 5.41176Z" fill="#77B255"/>
<path id="Vector_30" d="M3.6178 18.2647C3.44463 18.2647 3.27145 18.1984 3.13954 18.0665C2.87504 17.802 2.87504 17.3745 3.13954 17.11L3.81601 16.4335C4.08051 16.169 4.50804 16.169 4.77254 16.4335C5.03704 16.698 5.03704 17.1255 4.77254 17.39L4.09607 18.0665C3.96415 18.1984 3.79098 18.2647 3.6178 18.2647ZM12.0175 18.6023C11.8444 18.6023 11.6712 18.536 11.5393 18.4041L10.8628 17.7276C10.5983 17.4631 10.5983 17.0349 10.8628 16.7711C11.1273 16.5066 11.5555 16.5066 11.82 16.7711L12.4965 17.4475C12.761 17.712 12.761 18.1396 12.4965 18.4041C12.3639 18.536 12.1907 18.6023 12.0175 18.6023ZM7.84574 15.6995C7.67324 15.6995 7.50007 15.6332 7.36748 15.502L7.05698 15.1922C6.79248 14.9277 6.7918 14.5001 7.05563 14.2356C7.31877 13.9705 7.74765 13.9705 8.01283 14.2343L8.32333 14.5441C8.58783 14.8086 8.58851 15.2361 8.32468 15.5006C8.19277 15.6332 8.0196 15.6995 7.84574 15.6995V15.6995Z" fill="#B2C2CC"/>
<path id="Vector_31" d="M21.3066 15.8375C21.7849 16.4112 21.7071 17.2642 21.1328 17.7425L19.5735 19.042C18.9999 19.5202 18.1469 19.4424 17.6686 18.8681L16.3691 17.3089C15.8908 16.7352 15.9686 15.8822 16.5429 15.4039L18.1022 14.1044C18.6759 13.6261 19.5289 13.7039 20.0071 14.2783L21.3066 15.8375Z" fill="#B26304"/>
<path id="Vector_32" d="M21.3066 14.4846C21.7849 15.0582 21.7071 15.9113 21.1328 16.3895L19.5735 17.689C18.9999 18.1673 18.1469 18.0895 17.6686 17.5152L16.3691 15.9559C15.8908 15.3823 15.9686 14.5292 16.5429 14.051L18.1022 12.7515C18.6759 12.2732 19.5289 12.351 20.0071 12.9253L21.3066 14.4846Z" fill="#F4900C"/>
<path id="Vector_33" d="M7.67647 18.2647C8.05007 18.2647 8.35294 17.9618 8.35294 17.5882C8.35294 17.2146 8.05007 16.9118 7.67647 16.9118C7.30287 16.9118 7 17.2146 7 17.5882C7 17.9618 7.30287 18.2647 7.67647 18.2647Z" fill="#CCD6DD"/>
<path id="Vector_34" d="M13.0883 15.5588C13.4619 15.5588 13.7648 15.256 13.7648 14.8824C13.7648 14.5087 13.4619 14.2059 13.0883 14.2059C12.7147 14.2059 12.4119 14.5087 12.4119 14.8824C12.4119 15.256 12.7147 15.5588 13.0883 15.5588Z" fill="#CCD6DD"/>
</g>
</g>
</svg>
