<svg width="140" height="87" viewBox="0 0 140 87" fill="none" xmlns="http://www.w3.org/2000/svg">
<g id="Group 11" filter="url(#filter0_d_12_965)">
<g id="Emoji">
<path id="Vector" d="M58.0511 24.3537C56.0037 22.4874 53.795 21.3719 51.6706 21.3719C44.6908 21.3719 36.7804 33.2977 36.7804 44.9481C36.7804 46.1579 36.8784 47.3044 37.031 48.4113C38.3451 57.9572 44.9986 63.5608 51.6706 63.5608C59.1157 63.5608 66.5608 56.5984 66.5608 44.9481C66.5608 36.8441 62.7316 28.6172 58.0511 24.3537Z" fill="#F7DECE"/>
<path id="Vector_2" d="M58.0512 24.3536C61.6596 28.7202 64.3894 35.5436 64.3894 42.2877C64.3894 53.4665 57.3513 60.1472 50.3132 60.1472C44.6785 60.1472 39.0525 55.8551 37.0299 48.41C38.3452 57.9571 44.9987 63.5608 51.6707 63.5608C59.1158 63.5608 66.5609 56.5984 66.5609 44.9481C66.5609 36.8441 62.7317 28.6172 58.0512 24.3536Z" fill="#E0AA94"/>
</g>
<g id="Emoji_2">
<path id="Vector_3" d="M10.4002 39.1179L22.9164 71.0172L39.9025 65.7465L32.3612 32.2775L10.4002 39.1179Z" fill="#CCD6DD"/>
<path id="Vector_4" d="M39.49 64.9404L22.8448 70.3093L16.0076 52.5373L35.2608 46.5631L39.49 64.9404Z" fill="white"/>
<path id="Vector_5" d="M39.6253 69.9575L25.6268 74.3012C23.5979 74.9308 21.7494 74.0064 20.8042 71.8857L8.27143 39.7655C7.97899 39.0157 8.34947 38.1705 9.10051 37.8777C9.86495 37.5821 10.6958 37.957 10.9879 38.7056L23.493 70.7617C23.9449 71.7699 24.4971 71.5986 24.7626 71.5162L38.7611 67.1725C39.3726 66.9828 39.6002 66.9121 39.372 65.7916L31.5424 32.3276C31.3594 31.5451 31.8376 30.7666 32.6297 30.5767C33.4133 30.3933 34.1983 30.8799 34.3818 31.6635L42.2195 65.1665C42.8553 68.2706 41.1588 69.4817 39.6253 69.9575Z" fill="#8899A6"/>
<path id="Vector_6" d="M31.8263 69.5518L28.713 70.5178C22.157 72.5521 20.4175 69.6048 18.6765 65.221C16.7319 60.3274 8.47424 39.6818 8.47424 39.6818L10.7777 38.7605C10.7777 38.7605 19.0396 59.4113 20.983 64.3052C22.5617 68.2834 23.3438 69.5854 27.9776 68.1476L31.0908 67.1816C31.745 66.9786 32.4403 67.3436 32.6437 67.9989C32.847 68.6543 32.4805 69.3488 31.8263 69.5518Z" fill="#8899A6"/>
<path id="Vector_7" d="M34.9397 68.5857L31.8265 69.5517C31.1723 69.7547 30.477 69.3897 30.2736 68.7343C30.0703 68.079 30.4368 67.3845 31.091 67.1815L34.2043 66.2154C38.838 64.7776 38.7445 63.2619 37.7951 59.0884C36.6275 53.9524 31.7472 32.2537 31.7472 32.2537L34.1687 31.7089C34.1687 31.7089 39.048 53.4041 40.2148 58.5377C41.2613 63.137 41.4969 66.551 34.9397 68.5857Z" fill="#8899A6"/>
<path id="Vector_8" d="M34.2282 31.237C34.8545 33.2553 32.1266 35.8946 22.3258 38.9358C12.5261 41.9766 8.78208 41.3455 8.15583 39.3272C7.52957 37.309 10.2574 34.6696 20.0583 31.6284C29.8591 28.5872 33.602 29.2188 34.2282 31.237Z" fill="#CCD6DD"/>
<path id="Vector_9" d="M33.6905 31.4623C33.1579 31.0313 32.3775 31.1123 31.9453 31.6453C29.9854 34.0633 23.9025 36.182 21.7244 36.7955C21.7122 36.798 21.7037 36.8084 21.6915 36.8109C21.6808 36.8142 21.6711 36.8121 21.6604 36.8154C19.5227 37.5424 13.3085 39.242 10.3194 38.3557C9.66173 38.1623 8.9722 38.536 8.77716 39.1929C8.58212 39.8497 8.95744 40.5401 9.6143 40.7351C13.2914 41.8249 19.683 40.0352 21.7818 39.3839C22.1243 39.2776 22.3457 39.2038 22.4279 39.1757C22.5128 39.1519 22.7358 39.0879 23.0783 38.9816C25.1772 38.3304 31.4595 36.1887 33.8735 33.2076C34.3057 32.6746 34.2243 31.893 33.6905 31.4623Z" fill="white"/>
<path id="Vector_10" d="M26.1247 51.2143C31.2476 49.6247 35.1595 47.5593 34.8622 46.6011C34.5648 45.6429 30.1709 46.1547 25.0479 47.7443C19.925 49.334 16.0131 51.3994 16.3105 52.3576C16.6078 53.3158 21.0018 52.804 26.1247 51.2143Z" fill="#E1E8ED"/>
<path id="Vector_11" d="M23.0441 70.3826L39.8335 65.1729L40.5076 67.3452L23.7181 72.5549L23.0441 70.3826Z" fill="#8899A6"/>
</g>
<g id="Emoji_3">
<path id="Vector_12" d="M102.546 12.6862C98.8231 12.6862 98.8231 13.9271 95.1006 13.9271C91.378 13.9271 91.378 12.6862 87.6555 12.6862C82.6921 12.6862 76.4878 15.1679 76.4878 23.8539C76.4878 37.5032 83.9329 48.6709 88.8963 48.6709C92.6189 48.6709 92.6189 47.4301 95.1006 47.4301C97.5823 47.4301 97.5823 48.6709 101.305 48.6709C106.268 48.6709 113.713 37.5032 113.713 23.8539C113.713 15.1667 107.509 12.6862 102.546 12.6862Z" fill="#DD2E44"/>
<path id="Vector_13" d="M96.3413 12.6862C96.3413 12.6862 100.064 7.72284 106.268 7.72284C111.232 7.72284 113.713 10.2045 113.713 10.2045C113.713 10.2045 108.75 13.9271 105.027 13.9271C101.305 13.9271 96.3413 12.6862 96.3413 12.6862Z" fill="#77B255"/>
<path id="Vector_14" d="M95.1005 16.4088C94.4155 16.4088 93.8596 15.8529 93.8596 15.168C93.8596 10.8982 95.3486 6.95974 97.9457 4.36388C98.4309 3.87871 99.2151 3.87871 99.7003 4.36388C100.185 4.84905 100.185 5.63451 99.7003 6.11844C97.5648 8.25271 96.3413 11.5509 96.3413 15.168C96.3413 15.8529 95.7854 16.4088 95.1005 16.4088Z" fill="#662113"/>
</g>
<g id="Emoji_4">
<path id="Vector_15" d="M97.5823 53.5714L55.3933 52.9312L55.4144 56.1884C55.4355 56.9242 55.8549 57.6625 56.7545 58.2135L65.3251 63.4598L73.8969 68.7049C75.7904 69.8651 79.0402 69.7571 80.7526 68.7049C82.4687 67.6563 81.6113 67.1327 83.3249 66.0817C85.0385 65.0344 85.8947 65.5581 87.6108 64.5108C89.3269 63.4585 96.1838 59.2657 96.1838 59.2657C97.1281 58.6875 97.5996 57.9293 97.6021 57.1699L97.5823 53.5714Z" fill="#F4900C"/>
<path id="Vector_16" d="M96.1838 51.3441C96.1838 51.3441 58.4693 49.247 56.7545 50.2955C55.0396 51.3441 54.861 53.3319 56.7545 54.4921L65.3251 59.7384L73.8969 64.9847C75.7904 66.1449 79.0402 66.037 80.7526 64.9847C82.4687 63.9362 81.6112 63.4126 83.3248 62.3616C85.0385 61.3143 85.8947 61.8379 87.6108 60.7907C89.3269 59.7384 96.1826 55.5443 96.1826 55.5443C98.0761 54.3841 98.0773 52.503 96.1838 51.3441Z" fill="#FFAC33"/>
<path id="Vector_17" d="M66.8364 58.6912L75.6105 63.9375C75.6105 63.9375 77.3651 64.9848 79.1196 63.9375C80.6049 63.0478 81.7515 61.3143 81.7515 61.3143L66.8364 58.6912Z" fill="#FFD983"/>
<path id="Vector_18" d="M96.0175 51.1505C93.609 47.9379 62.8942 45.6759 58.076 50.1988C57.1031 51.1133 55.2654 52.9535 57.2223 55.7069C58.076 57.1488 59.8479 58.0881 60.0837 57.6427C60.6334 56.5979 61.7303 55.6846 63.3756 55.7727C63.2826 55.9936 64.171 59.7521 64.0705 59.8365C62.9227 60.8118 65.3076 64.2018 68.102 62.3964C68.7982 63.7712 73.0108 67.1649 75.9182 62.5229C76.4964 63.5702 82.5691 65.1635 84.2554 60.3316C84.2418 60.4147 84.2455 60.4854 84.2232 60.5748C84.1127 61.0091 85.1191 61.3851 86.144 61.0252C87.8676 60.4222 90.3567 58.9244 90.7972 57.2803C92.0269 57.0657 92.9489 57.4069 93.6586 58.345C94.0098 58.8091 95.2146 58.9207 95.7296 58.314C96.6379 57.2481 98.1282 53.9672 96.0175 51.1505Z" fill="#77B255"/>
<path id="Vector_19" d="M92.6188 59.1863C92.6188 59.8427 91.507 60.3763 90.1371 60.3763H62.8384C61.4685 60.3763 60.3567 59.8427 60.3567 59.1863V51.0575H92.6188V59.1863Z" fill="#FFCC4D"/>
<path id="Vector_20" d="M95.4865 52.9149C95.4865 56.3496 89.7959 59.1353 82.7777 59.1353C75.7569 59.1353 70.0676 56.3496 70.0676 52.9149C70.0676 49.479 75.7569 46.6945 82.7777 46.6945C89.7959 46.6945 95.4865 49.4802 95.4865 52.9149Z" fill="#BE1931"/>
<path id="Vector_21" d="M97.5823 46.1262L55.3933 45.486V48.7432H55.4144C55.4355 49.479 55.8549 50.2173 56.7545 50.7683L65.3251 56.0146L73.8969 61.2597C75.7904 62.4199 79.0402 62.3119 80.7526 61.2597C82.4687 60.2111 81.6113 59.6875 83.3249 58.6365C85.0385 57.5892 85.8947 58.1129 87.6108 57.0656C89.3269 56.0133 96.1838 51.8205 96.1838 51.8205C97.1281 51.2423 97.5996 50.4841 97.6021 49.7247V49.7185L97.5823 46.1262Z" fill="#F4900C"/>
<path id="Vector_22" d="M96.1836 43.8989L79.0412 33.4088C77.1476 32.2498 74.0778 32.2498 72.183 33.4088L63.6112 38.6551C61.8976 39.7036 62.7538 40.2285 61.0401 41.277C59.3265 42.3255 58.4691 41.8006 56.7542 42.8504C55.0394 43.8989 54.8607 45.8868 56.7542 47.047L73.8966 57.5384C75.7902 58.6986 79.0399 58.5906 80.7523 57.5384C82.4684 56.4898 81.611 55.9662 83.3246 54.9152C85.0382 53.8679 85.8944 54.3916 87.6105 53.3443C89.3266 52.292 96.1823 48.098 96.1823 48.098C98.0759 46.939 98.0771 45.0579 96.1836 43.8989Z" fill="#FFAC33"/>
<path id="Vector_23" d="M94.9143 44.95L77.365 34.4586C77.365 34.4586 75.495 33.4771 73.8546 34.4586L65.2158 39.623C63.7305 40.5102 63.934 41.4384 62.4487 42.3256C60.9646 43.214 59.5464 43.0118 58.0611 43.899C56.3065 44.95 58.0611 45.9997 58.0611 45.9997L75.6092 56.4911C75.6092 56.4911 77.3637 57.5384 79.1183 56.4911C80.6036 55.6014 80.2673 54.7577 81.7502 53.868C83.2355 52.9783 84.7865 53.0999 86.2718 52.2127C87.7571 51.3267 94.9119 47.047 94.9119 47.047C94.9119 47.047 96.5535 45.929 94.9143 44.95Z" fill="#FFD983"/>
</g>
<g id="Emoji_5">
<path id="Vector_24" d="M131.134 28.0783C134.105 35.5755 129.35 53.5691 118.105 60.9609C106.863 68.3526 92.7983 65.3945 89.4455 52.9661C87.3745 45.2902 92.9075 39.6629 104.151 32.2724C115.394 24.8806 128.206 20.6866 131.134 28.0783Z" fill="#3E721D"/>
<path id="Vector_25" d="M113.272 53.0517C105.178 58.6926 94.3035 59.4421 90.3551 53.7739C86.4055 48.1082 90.8738 38.1664 98.9703 32.5255C107.063 26.8859 126.208 20.3702 130.158 26.0359C134.108 31.7066 121.366 47.4108 113.272 53.0517Z" fill="#3E721D"/>
<path id="Vector_26" d="M112.292 53.7317C105.149 58.7112 95.563 57.5746 92.0787 52.5727C88.5956 47.5708 92.6681 38.7124 99.8117 33.7354C106.953 28.7583 124.949 22.2401 128.436 27.2407C131.919 32.2414 122.449 47.3115 112.292 53.7317Z" fill="#A6D388"/>
<path id="Vector_27" d="M110.25 50.441C104.658 54.3372 97.9168 54.3211 95.1906 50.4075C92.4608 46.4938 94.7812 40.1642 100.372 36.2679C105.965 32.3704 120.021 27.2867 122.751 31.2003C125.48 35.114 115.843 46.5447 110.25 50.441Z" fill="#C6E5B3"/>
<path id="Vector_28" d="M101.555 36.248C105.873 33.3544 110.715 34.393 113.713 37.4827C115.491 39.3154 112.621 44.161 108.304 47.0546C103.988 49.9458 98.6638 49.2422 98.0806 47.9617C96.2938 44.0443 97.2405 39.1405 101.555 36.248Z" fill="#662113"/>
<path id="Vector_29" d="M103.924 37.0149C105.798 35.7579 108.16 35.9987 109.202 37.5497C110.241 39.102 109.567 41.3802 107.692 42.6372C105.819 43.8905 103.456 43.651 102.415 42.0999C101.374 40.5464 102.05 38.2707 103.924 37.0149Z" fill="#7C3225"/>
</g>
</g>
<defs>
<filter id="filter0_d_12_965" x="0.0709229" y="0" width="139.929" height="86.4956" filterUnits="userSpaceOnUse" color-interpolation-filters="sRGB">
<feFlood flood-opacity="0" result="BackgroundImageFix"/>
<feColorMatrix in="SourceAlpha" type="matrix" values="0 0 0 0 0 0 0 0 0 0 0 0 0 0 0 0 0 0 127 0" result="hardAlpha"/>
<feOffset dy="4"/>
<feGaussianBlur stdDeviation="4"/>
<feComposite in2="hardAlpha" operator="out"/>
<feColorMatrix type="matrix" values="0 0 0 0 0 0 0 0 0 0 0 0 0 0 0 0 0 0 0.35 0"/>
<feBlend mode="normal" in2="BackgroundImageFix" result="effect1_dropShadow_12_965"/>
<feBlend mode="normal" in="SourceGraphic" in2="effect1_dropShadow_12_965" result="shape"/>
</filter>
</defs>
</svg>
