<svg width="119" height="71" viewBox="0 0 119 71" fill="none" xmlns="http://www.w3.org/2000/svg">
<g id="Group 19">
<g id="Emoji">
<path id="Vector" d="M17.871 33.4107C17.871 33.4107 28.7566 33.8997 32.5393 19.7826C32.9454 18.2667 31.9619 17.1595 29.6598 16.5427L12.774 12.0182C11.6225 11.7096 9.43843 10.8369 8.78376 13.2802C5.02414 27.3113 14.8003 32.5879 14.8003 32.5879L12.0239 42.9495C12.0239 42.9495 6.69007 44.0874 5.60561 44.3925C4.44428 44.6979 4.86686 45.7985 5.22661 46.0649C5.82731 46.5089 7.23047 47.8108 11.8642 49.0524C16.6145 50.3252 18.463 49.8178 19.0909 49.7798C19.3327 49.7656 20.7252 49.1953 19.5747 48.0192C17.5268 45.9258 15.0946 43.7723 15.0946 43.7723L17.871 33.4107Z" fill="#8899A6"/>
<path id="Vector_2" d="M32.7179 18.9441C32.2733 20.6033 28.2824 20.9754 20.016 18.7605C11.7497 16.5455 8.47946 14.2277 8.92404 12.5685C9.36889 10.9083 13.3596 10.5371 21.6259 12.7521C29.8923 14.9671 33.1625 17.2849 32.7179 18.9441Z" fill="#CCD6DD"/>
<path id="Vector_3" d="M10.6296 13.1801C10.1142 23.4641 12.7078 27.7706 15.7391 29.727C16.7771 30.3979 17.6955 30.7208 18.5724 30.6211C22.532 30.1737 27.8464 26.8891 30.6573 18.9579C31.3807 16.9171 10.6296 13.1801 10.6296 13.1801Z" fill="#CCD6DD"/>
<path id="Vector_4" d="M10.5851 19.6595C9.62516 23.242 11.6654 29.2739 16.7832 30.6453C21.9011 32.0166 27.1514 27.4357 27.9742 24.365C21.8328 22.7194 10.5851 19.6595 10.5851 19.6595Z" fill="#A0041E"/>
<path id="Vector_5" d="M18.874 23.5262C23.6791 24.8137 27.7585 25.17 27.9857 24.3221C28.2129 23.4741 24.5019 21.743 19.6968 20.4555C14.8917 19.1679 10.8123 18.8116 10.5851 19.6596C10.3579 20.5075 14.0689 22.2386 18.874 23.5262Z" fill="#DD2E44"/>
<path id="Vector_6" d="M19.7247 18.9918C14.5762 17.6122 11.0392 15.4468 10.128 14.6793C9.6804 14.3027 9.62379 13.6337 10.0004 13.186C10.3774 12.7374 11.0474 12.6811 11.4937 13.0585C12.6023 13.994 20.3778 18.6139 30.5628 18.0287C31.1459 17.9941 31.6458 18.4418 31.6801 19.0258C31.7145 19.6099 31.2676 20.1111 30.6825 20.1452C26.5869 20.3796 22.8579 19.8313 19.7247 18.9918Z" fill="white"/>
</g>
<g id="Emoji_2">
<path id="Vector_7" d="M54.2687 38.4458C54.2687 38.4458 62.7461 38.2201 64.4956 34.1276C65.6284 31.4773 63.8502 24.0034 63.8502 19.3663C63.8502 17.7969 62.6136 16.982 60.2304 16.982H44.8683C43.6761 16.982 41.3406 16.7044 41.3406 19.2338C41.3406 23.7735 39.4703 31.2516 40.6688 33.8733C42.6567 38.2201 51.0896 38.4458 51.0896 38.4458V41.7551C51.0896 41.7551 46.2321 44.2348 45.2635 44.8102C44.2208 45.4057 44.9138 46.3594 45.3303 46.5237C46.0254 46.7971 47.7177 47.6914 52.5149 47.6914C57.4328 47.6914 59.087 46.7229 59.6836 46.5237C59.9135 46.4474 61.111 45.5361 59.6953 44.6979C57.1753 43.2058 54.2687 41.7551 54.2687 41.7551V38.4458Z" fill="#8899A6"/>
<path id="Vector_8" d="M63.8056 18.5101C63.8056 20.2278 61.1066 21.6203 52.5487 21.6203C43.9907 21.6203 41.2917 20.2278 41.2917 18.5101C41.2917 16.7913 43.9907 15.4 52.5487 15.4C61.1066 15.4 63.8056 16.7924 63.8056 18.5101Z" fill="#CCD6DD"/>
<path id="Vector_9" d="M43.0975 18.6595C45.2614 28.7264 40.5363 33.0531 45.3048 34.7316C51.061 36.7566 54.3566 36.4197 59.566 34.7316C64.3345 33.1866 61.1555 27.4463 61.8178 19.0569C61.9895 16.8983 43.0975 18.6595 43.0975 18.6595Z" fill="#CCD6DD"/>
<path id="Vector_10" d="M43.7164 25.0176C43.6284 26.1652 42.5613 31.5123 43.0541 32.7447C43.5839 34.0693 44.9085 36.1887 52.5032 36.1887C58.0665 36.1887 61.5984 34.5112 62.1728 32.3919C62.6719 30.548 61.9078 26.4757 61.8199 24.9741" fill="#F4900C"/>
<path id="Vector_11" d="M52.6792 26.5191C57.6538 26.5191 61.6865 25.8075 61.6865 24.9296C61.6865 24.0517 57.6538 23.3401 52.6792 23.3401C47.7047 23.3401 43.672 24.0517 43.672 24.9296C43.672 25.8075 47.7047 26.5191 52.6792 26.5191Z" fill="#FFCC4D"/>
<path id="Vector_12" d="M60.3565 14.7578C60.3565 14.7578 54.0811 29.4989 53.7536 30.175C53.3541 31.0015 54.3905 32.1608 55.3113 30.6868C56.2311 29.2128 62.4546 16.1714 62.4546 16.1714L60.3565 14.7578Z" fill="#C1694F"/>
<path id="Vector_13" d="M52.4779 21.9361C47.9308 21.9361 44.348 20.869 43.0012 20.2374C42.4713 19.9894 42.2435 19.3579 42.4915 18.828C42.7394 18.2971 43.371 18.0693 43.9008 18.3183C43.9793 18.3554 52.0678 21.7898 61.4406 18.2007C61.9853 17.9898 62.5999 18.2643 62.8087 18.8111C63.0185 19.3579 62.744 19.9704 62.1983 20.1802C58.784 21.4878 55.428 21.9361 52.4779 21.9361Z" fill="white"/>
<path id="Vector_14" d="M56.068 24.8088L55.3676 26.4449C56.1061 26.4237 56.9009 26.3548 57.5759 26.2616L58.0803 25.2337C57.4265 25.2454 56.7706 25.1108 56.068 24.8088Z" fill="#FFAC33"/>
<path id="Vector_15" d="M53.7536 30.175C53.3541 31.0016 54.3905 32.1608 55.3113 30.6868C55.6165 30.1973 56.5077 28.4308 57.56 26.2924C56.9358 26.3612 56.1241 26.4206 55.359 26.463C54.5039 28.4594 53.8532 29.9694 53.7536 30.175Z" fill="#CC6F00"/>
<path id="Vector_16" d="M70.5855 19.7626C69.5047 18.0862 64.8665 11.6095 64.6672 11.3308C64.468 11.0542 64.1469 10.8889 63.8057 10.8889C62.2597 10.8889 58.7585 10.872 56.1411 10.8592C54.5717 10.8518 53.3192 10.8455 52.9885 10.8455C52.3019 10.8455 51.7381 11.2958 51.5855 11.9677C51.2295 13.536 53.2047 16.5147 59.9485 19.7489C64.4161 21.8905 67.007 22.3408 68.3941 22.3408H68.3952C69.9571 22.3408 70.5548 21.7569 70.7816 21.2674C71.0083 20.7736 70.9342 20.2172 70.5855 19.7626Z" fill="#77B255"/>
<path id="Vector_17" d="M61.8358 20.5966C65.159 22.0038 67.2169 22.3397 68.3931 22.3397H68.3942C69.9561 22.3397 70.5538 21.7559 70.7805 21.2663C71.0084 20.7735 70.9353 20.2172 70.5856 19.7626C69.8936 18.6891 67.7446 15.65 66.2345 13.5275C67.095 16.2583 67.4118 20.3804 61.8358 20.5966Z" fill="#5C913B"/>
<path id="Vector_18" d="M64.005 13.1418C64.9929 13.1418 65.7938 12.341 65.7938 11.3531C65.7938 10.3652 64.9929 9.56433 64.005 9.56433C63.0172 9.56433 62.2163 10.3652 62.2163 11.3531C62.2163 12.341 63.0172 13.1418 64.005 13.1418Z" fill="#3E721D"/>
</g>
<g id="Emoji_3">
<path id="Vector_19" d="M81.5983 31.3373C82.4463 31.5645 83.3178 31.0613 83.5451 30.2133C83.7723 29.3654 83.269 28.4938 82.4211 28.2666C81.5731 28.0394 80.7016 28.5426 80.4743 29.3905C80.2471 30.2385 80.7503 31.1101 81.5983 31.3373Z" fill="#CCD6DD"/>
<path id="Vector_20" d="M88.3994 15.8635C88.5166 15.6349 88.6135 15.3921 88.6826 15.1341C89.2128 13.1556 88.0386 11.1219 86.06 10.5917C84.2545 10.1079 82.4177 11.0507 81.7046 12.7213C81.6872 12.7167 81.6722 12.7071 81.6548 12.7025C80.5247 12.3997 79.3619 13.0711 79.0591 14.2011C78.7563 15.3311 79.4277 16.494 80.5577 16.7968C80.5915 16.8058 80.6244 16.8059 80.6577 16.8126C80.5544 16.9604 80.4699 17.1243 80.4206 17.3085C80.2944 17.7794 80.3998 18.2541 80.6588 18.6263C80.2211 18.9007 79.8792 19.3291 79.7349 19.8675C79.4321 20.9975 80.1035 22.1603 81.2335 22.4631C81.1307 22.847 81.1484 23.2313 81.2493 23.5875C80.4769 23.4935 79.7316 23.974 79.5243 24.7478C79.2972 25.5953 79.8007 26.4675 80.6482 26.6945C81.4958 26.9216 82.3679 26.4181 82.595 25.5706C82.6444 25.3863 82.6531 25.2022 82.6376 25.0225C82.6698 25.0333 82.6984 25.0498 82.7321 25.0588C83.8622 25.3616 85.025 24.6902 85.3278 23.5602C85.4926 22.945 85.3622 22.3264 85.0329 21.8356C85.5625 21.5749 85.9858 21.1047 86.1506 20.4895C86.2543 20.1026 86.2366 19.7139 86.1322 19.3546C86.2273 19.3965 86.3215 19.4382 86.4249 19.4659C87.5549 19.7687 88.7177 19.0973 89.0205 17.9673C89.232 17.1781 88.9619 16.3806 88.3994 15.8635Z" fill="#CCD6DD"/>
<path id="Vector_21" d="M82.5313 21.7138C83.0966 21.8653 83.6777 21.5298 83.8291 20.9645C83.9806 20.3992 83.6451 19.8181 83.0798 19.6667C82.5145 19.5152 81.9335 19.8507 81.782 20.416C81.6305 20.9813 81.966 21.5623 82.5313 21.7138Z" fill="#E4EBEF"/>
<path id="Vector_22" d="M87.5218 15.3716C87.8249 14.2406 87.1543 13.079 86.0232 12.776C84.8922 12.4729 83.7306 13.1435 83.4276 14.2746C83.4188 14.3073 83.4185 14.3412 83.4117 14.3745C83.2639 14.2713 83.1 14.1868 82.9158 14.1374C82.0672 13.9101 81.1964 14.4128 80.969 15.2614C80.7417 16.1099 81.2444 16.9808 82.093 17.2081C82.2957 17.2624 82.498 17.2728 82.6943 17.2486C82.6954 17.9488 83.1565 18.5902 83.8659 18.7802C84.7144 19.0076 85.5852 18.5048 85.8126 17.6563C85.8806 17.4024 85.8762 17.1489 85.8242 16.909C86.6168 16.7758 87.3 16.1997 87.5218 15.3716Z" fill="#E4EBEF"/>
<path id="Vector_23" d="M88.8229 4.83303C88.8229 4.83303 88.2055 3.79215 88.1602 3.73175C88.5682 3.16309 88.6762 2.47782 88.3684 1.93131C87.8956 1.12883 86.7028 0.949651 85.6931 1.53261L82.9404 3.12188C81.932 3.70409 81.4895 4.82739 81.948 5.63812C82.2677 6.17687 82.9138 6.42679 83.6113 6.35807C83.6423 6.4267 84.2338 7.48257 84.2338 7.48257C84.8192 8.49516 86.1151 8.84238 87.1284 8.25819L88.0462 7.72741C89.0599 7.1422 89.4071 5.84637 88.8229 4.83303Z" fill="#C1694F"/>
<path id="Vector_24" d="M87.9862 5.60602C88.1108 5.53408 88.5035 5.29264 88.9114 5.03115C88.882 4.96511 88.8594 4.89764 88.822 4.83275C88.822 4.83275 88.2046 3.79187 88.1593 3.73147C87.963 4.00578 87.7017 4.25611 87.3736 4.44466L84.623 6.03449C84.2946 6.22406 83.9472 6.32515 83.6115 6.35806C83.6424 6.42669 84.2339 7.48256 84.2339 7.48256C84.2706 7.54616 84.3188 7.59966 84.361 7.65923C84.7304 7.47189 85.106 7.26975 85.2329 7.19734L87.9862 5.60602Z" fill="#A95233"/>
<path id="Vector_25" d="M111.392 33.6016L107.596 27.0255C104.85 22.2702 101.236 20.7797 94.8039 15.9789L90.717 18.3385C92.2113 25.9904 91.084 30.2181 93.8294 34.9733L97.6269 41.5508C98.371 42.8395 98.9596 43.8935 100.251 43.149L111.165 36.845C112.458 36.0987 112.136 34.8903 111.392 33.6016Z" fill="#264612"/>
<path id="Vector_26" d="M95.4443 16.5772C95.4443 16.5772 97.0477 17.7134 94.064 19.436C91.31 21.026 90.8997 19.3023 90.8997 19.3023L88.3168 14.8287L92.906 12.1791L95.4443 16.5772Z" fill="#FFE8B6"/>
<path id="Vector_27" d="M93.1357 12.5786L92.3762 11.2616L87.7873 13.9101L88.5468 15.2272C89.2919 16.5162 89.0958 16.5316 91.4643 15.1642L92.2329 14.7195C94.1047 13.638 93.8798 13.8674 93.1357 12.5786Z" fill="#FFD983"/>
<path id="Vector_28" d="M93.0285 10.2724C93.4676 11.0329 93.2071 12.0053 92.4455 12.4441L88.7765 14.5624C88.0157 15.0025 87.0434 14.742 86.6045 13.9804C86.1652 13.2209 86.426 12.2475 87.1865 11.8084L90.8555 9.69015C91.6168 9.25235 92.5894 9.51188 93.0285 10.2724Z" fill="#264612"/>
<path id="Vector_29" d="M105.726 28.0263C105.14 27.0137 103.843 26.6662 102.83 27.2504L96.4067 30.9597C95.3934 31.5439 95.0459 32.8408 95.6311 33.8544L98.8096 39.3598C99.3948 40.3734 100.692 40.7209 101.705 40.1357L108.128 36.4274C109.142 35.8422 109.489 34.5453 108.904 33.5327L105.726 28.0263Z" fill="#FFE8B6"/>
</g>
<g id="Emoji_4">
<path id="Vector_30" d="M40.8264 44.2787C40.8264 44.2787 50.9362 34.5368 51.9288 33.6862C52.9215 32.8356 51.3041 31.7009 49.3197 31.7009H29.4698C28.4772 31.7009 25.5143 32.3442 27.0028 33.8335C28.0651 34.895 38.1793 44.2787 38.1793 44.2787V53.2106C38.1793 53.2106 34.1347 55.2752 33.3282 55.7544C32.46 56.2502 33.0371 57.0443 33.3838 57.1811C33.9626 57.4087 35.3717 58.1534 39.3661 58.1534C43.461 58.1534 44.8384 57.347 45.3351 57.1811C45.5266 57.1176 46.5236 56.3588 45.3448 55.6608C43.2466 54.4185 40.8264 53.2106 40.8264 53.2106V44.2787Z" fill="#8899A6"/>
<path id="Vector_31" d="M52.2968 32.9732C52.2968 31.5421 46.5201 30.3835 39.3944 30.3835C32.2686 30.3835 26.4919 31.5421 26.4919 32.9732C26.4919 33.6403 27.759 34.2464 29.8228 34.7052C32.2457 36.7708 36.2621 40.0857 38.317 41.7754C39.1111 42.4292 40.2008 42.3251 40.7885 41.8839C41.2323 41.5513 46.6172 36.9049 49.2324 34.6461C51.1409 34.1952 52.2968 33.612 52.2968 32.9732Z" fill="#CCD6DD"/>
<path id="Vector_32" d="M38.9452 40.9937C38.7361 40.8834 38.9011 40.2878 39.164 39.8219L45.7357 27.0121C46.0004 26.5454 46.5916 26.3813 47.0574 26.6451C47.5242 26.9089 47.6874 27.5001 47.4245 27.9668L39.7773 40.2181C39.6449 40.451 39.1826 41.1181 38.9452 40.9937Z" fill="#662113"/>
<path id="Vector_33" d="M43.2485 33.3377C44.2482 33.9015 45.0096 35.6635 44.3073 36.9076C43.6041 38.1526 41.7009 38.4067 40.7012 37.842C39.7024 37.2773 38.8791 35.6229 39.6433 34.2721C40.4065 32.9212 42.2488 32.773 43.2485 33.3377Z" fill="#5C913B"/>
<path id="Vector_34" d="M38.8826 35.9017C35.5517 35.9017 32.3877 35.4694 29.4089 34.6038L29.2951 34.5712C28.8266 34.4362 28.5574 33.9465 28.6924 33.4788C28.8266 33.0103 29.3145 32.7403 29.7848 32.8753L29.9012 32.9097C35.6656 34.5844 42.2028 34.5465 49.3286 32.7933C49.8077 32.6786 50.2806 32.9662 50.3962 33.4391C50.5127 33.9121 50.2241 34.3903 49.7512 34.5068C45.9669 35.4367 42.336 35.9017 38.8826 35.9017Z" fill="white"/>
</g>
<g id="Emoji_5">
<path id="Vector_35" d="M83.0851 37.1585C82.5638 36.8989 82.3497 36.2588 82.6093 35.7375L83.7432 33.4634C84.0028 32.9421 84.6428 32.728 85.1642 32.9876C85.6856 33.2472 85.8996 33.8873 85.64 34.4086L84.5061 36.6827C84.2465 37.2041 83.6065 37.4181 83.0851 37.1585ZM84.1236 39.4887L84.095 39.4008C83.918 38.872 84.2052 38.2955 84.734 38.1186L88.871 36.7452C89.3987 36.5683 89.9773 36.8554 90.1532 37.3842L90.1818 37.4722C90.3587 38.0009 90.0705 38.5785 89.5417 38.7554L85.4058 40.1277C84.8781 40.3047 84.3006 40.0175 84.1236 39.4887ZM84.6683 41.8878C84.4087 42.4092 84.6227 43.0492 85.1441 43.3089L87.4181 44.4427C87.9395 44.7023 88.5795 44.4883 88.8392 43.9669C89.0988 43.4456 88.8847 42.8055 88.3634 42.5459L86.0893 41.412C85.5679 41.1524 84.9279 41.3665 84.6683 41.8878Z" fill="#FA743E"/>
<path id="Vector_36" d="M63.9834 66.6885C62.8792 66.3187 60.6793 65.6807 61.1456 61.9454L61.8301 56.4626C61.9584 55.4347 63.0774 55.1221 64.2981 54.5435C65.3589 54.0402 67.9169 52.315 68.5464 47.2773C69.0953 42.8733 68.2656 35.9155 68.0483 34.2359L63.1971 33.6753L58.3438 33.1137C57.7483 34.7 55.3523 41.2838 54.8819 45.6974C54.3446 50.7457 56.4417 53.0091 57.3594 53.7414C58.4159 54.5828 59.4342 55.1423 59.324 56.1723C59.2149 57.2023 59.1365 57.9229 58.7391 61.6667C58.3406 65.4095 56.0528 65.5282 54.8935 65.6362C52.6926 65.8408 52.5707 67.6306 53.6346 67.7429C54.7006 67.8573 59.182 68.3819 59.182 68.3819C59.182 68.3819 63.6655 68.8947 64.7284 69.0261C65.7902 69.1607 66.0795 67.39 63.9834 66.6885Z" fill="#E1E8ED"/>
<path id="Vector_37" d="M66.7947 36.4771C66.3888 36.7346 64.2949 37.8632 61.7686 38.0751C60.017 38.2235 57.8468 38.0009 57.4907 39.1782C56.7722 41.553 56.2011 43.6511 55.9711 45.8139C55.5345 49.9096 56.9545 51.8848 57.8044 52.6806L57.8277 52.7008C57.9315 52.7845 58.9425 53.557 60.8478 53.7774C62.7403 53.9968 63.9388 53.4881 64.0766 53.4256C64.0914 53.4192 64.0957 53.4161 64.1094 53.4086C65.1193 52.8269 66.9494 51.2278 67.4591 47.1428C67.8342 44.1312 67.5322 39.795 67.2535 36.9731C67.2323 36.7569 67.2005 36.2196 66.7947 36.4771Z" fill="#FFCC4D"/>
<path id="Vector_38" d="M65.2782 40.3577C65.6557 40.3577 65.9617 40.0517 65.9617 39.6742C65.9617 39.2967 65.6557 38.9907 65.2782 38.9907C64.9007 38.9907 64.5947 39.2967 64.5947 39.6742C64.5947 40.0517 64.9007 40.3577 65.2782 40.3577Z" fill="#FFD983"/>
<path id="Vector_39" d="M63.0413 42.6349C63.4188 42.6349 63.7248 42.3289 63.7248 41.9514C63.7248 41.574 63.4188 41.2679 63.0413 41.2679C62.6638 41.2679 62.3578 41.574 62.3578 41.9514C62.3578 42.3289 62.6638 42.6349 63.0413 42.6349Z" fill="#FFD983"/>
<path id="Vector_40" d="M65.6057 45.2597C65.9832 45.2597 66.2892 44.9537 66.2892 44.5763C66.2892 44.1988 65.9832 43.8928 65.6057 43.8928C65.2283 43.8928 64.9222 44.1988 64.9222 44.5763C64.9222 44.9537 65.2283 45.2597 65.6057 45.2597Z" fill="#FFD983"/>
<path id="Vector_41" d="M61.9096 46.9658C62.287 46.9658 62.5931 46.6598 62.5931 46.2823C62.5931 45.9048 62.287 45.5988 61.9096 45.5988C61.5321 45.5988 61.2261 45.9048 61.2261 46.2823C61.2261 46.6598 61.5321 46.9658 61.9096 46.9658Z" fill="#FFD983"/>
<path id="Vector_42" d="M59.7255 44.1322C60.103 44.1322 60.409 43.8262 60.409 43.4487C60.409 43.0712 60.103 42.7652 59.7255 42.7652C59.348 42.7652 59.042 43.0712 59.042 43.4487C59.042 43.8262 59.348 44.1322 59.7255 44.1322Z" fill="#FFD983"/>
<path id="Vector_43" d="M59.361 40.8991C59.7385 40.8991 60.0445 40.5931 60.0445 40.2157C60.0445 39.8382 59.7385 39.5322 59.361 39.5322C58.9835 39.5322 58.6775 39.8382 58.6775 40.2157C58.6775 40.5931 58.9835 40.8991 59.361 40.8991Z" fill="#FFD983"/>
<path id="Vector_44" d="M74.2231 68.2261C75.3273 67.8563 77.5271 67.2184 77.0609 63.483L76.3763 58.0003C76.2481 56.9724 75.1291 56.6598 73.9083 56.0812C72.8476 55.5778 70.2896 53.8527 69.6601 48.815C69.1112 44.411 69.9409 37.4531 70.1582 35.7735L75.0093 35.213L79.8605 34.6524C80.4561 36.2387 82.852 42.8225 83.3225 47.2361C83.8598 52.2844 81.7627 54.5478 80.845 55.2801C79.7885 56.1215 78.7701 56.681 78.8803 57.711C78.9895 58.741 79.0679 59.4616 79.4653 63.2054C79.8637 66.9482 82.1516 67.0668 83.3109 67.1749C85.5118 67.3795 85.6337 69.1693 84.5697 69.2816C83.5037 69.396 79.0223 69.9206 79.0223 69.9206C79.0223 69.9206 74.5389 70.4334 73.476 70.5648C72.4163 70.6984 72.127 68.9287 74.2231 68.2261Z" fill="#E1E8ED"/>
<path id="Vector_45" d="M71.4117 38.0147C71.8176 38.2722 73.9126 39.4008 76.4378 39.6127C78.1894 39.76 80.3607 39.5375 80.7167 40.7158C81.4352 43.0906 82.0064 45.1887 82.2363 47.3515C82.6729 51.4472 81.2529 53.4224 80.4031 54.2182L80.3798 54.2384C80.2759 54.3221 79.265 55.0946 77.3597 55.315C75.4671 55.5344 74.2686 55.0257 74.1308 54.9632C74.116 54.9568 74.1118 54.9537 74.098 54.9462C73.0881 54.3645 71.2581 52.7654 70.7484 48.6804C70.3732 45.6688 70.6752 41.3326 70.9539 38.5107C70.9741 38.2945 71.0059 37.7572 71.4117 38.0147Z" fill="#FFCC4D"/>
<path id="Vector_46" d="M72.928 41.8963C73.3055 41.8963 73.6115 41.5903 73.6115 41.2128C73.6115 40.8353 73.3055 40.5293 72.928 40.5293C72.5505 40.5293 72.2445 40.8353 72.2445 41.2128C72.2445 41.5903 72.5505 41.8963 72.928 41.8963Z" fill="#FFD983"/>
<path id="Vector_47" d="M75.1651 44.1725C75.5425 44.1725 75.8485 43.8665 75.8485 43.489C75.8485 43.1115 75.5425 42.8055 75.1651 42.8055C74.7876 42.8055 74.4816 43.1115 74.4816 43.489C74.4816 43.8665 74.7876 44.1725 75.1651 44.1725Z" fill="#FFD983"/>
<path id="Vector_48" d="M72.6006 46.7973C72.9781 46.7973 73.2841 46.4913 73.2841 46.1138C73.2841 45.7363 72.9781 45.4303 72.6006 45.4303C72.2231 45.4303 71.9171 45.7363 71.9171 46.1138C71.9171 46.4913 72.2231 46.7973 72.6006 46.7973Z" fill="#FFD983"/>
<path id="Vector_49" d="M76.2968 48.5045C76.6743 48.5045 76.9803 48.1985 76.9803 47.821C76.9803 47.4435 76.6743 47.1375 76.2968 47.1375C75.9193 47.1375 75.6133 47.4435 75.6133 47.821C75.6133 48.1985 75.9193 48.5045 76.2968 48.5045Z" fill="#FFD983"/>
<path id="Vector_50" d="M78.4809 45.6698C78.8583 45.6698 79.1643 45.3638 79.1643 44.9863C79.1643 44.6089 78.8583 44.3029 78.4809 44.3029C78.1034 44.3029 77.7974 44.6089 77.7974 44.9863C77.7974 45.3638 78.1034 45.6698 78.4809 45.6698Z" fill="#FFD983"/>
<path id="Vector_51" d="M78.8454 42.4378C79.2228 42.4378 79.5288 42.1318 79.5288 41.7543C79.5288 41.3768 79.2228 41.0708 78.8454 41.0708C78.4679 41.0708 78.1619 41.3768 78.1619 41.7543C78.1619 42.1318 78.4679 42.4378 78.8454 42.4378Z" fill="#FFD983"/>
</g>
</g>
</svg>
