<svg width="109" height="80" viewBox="0 0 109 80" fill="none" xmlns="http://www.w3.org/2000/svg">
<g id="Group 18">
<g id="Emoji">
<path id="Vector" d="M47.9121 39.0156C29.9954 39.0156 27.5494 22.2463 27.5494 17.4551H68.2747C68.2747 19.8507 65.9294 39.0156 47.9121 39.0156Z" fill="#CCD6DD"/>
<path id="Vector_2" d="M68.2747 17.5223C68.2747 23.77 59.1582 28.8343 47.9121 28.8343C36.6659 28.8343 27.5494 23.7688 27.5494 17.5223C27.5494 11.2745 36.6659 7.40802 47.9121 7.40802C59.1582 7.40682 68.2747 11.2745 68.2747 17.5223Z" fill="#66757F"/>
<path id="Vector_3" d="M29.5953 19.7011C28.6275 18.3104 26.8008 15.5088 28.7473 11.3165C29.5953 9.1209 31.3585 7.69073 31.592 8.37228C32.1406 9.96895 33.239 11.3668 34.886 11.2171C34.8644 11.7836 34.0847 6.05573 36.8324 4.52853C38.18 3.7799 39.6269 4.97771 41.2739 7.62245C43.9114 11.8591 50.6299 9.87911 52.5152 8.76995C54.4245 7.64641 56.0967 6.91096 55.5972 3.90447C55.487 3.24448 56.4872 2.67194 57.5077 3.21813C59.2217 4.13565 61.6976 6.41746 62.1348 8.92087C63.3578 9.24547 64.2741 8.72563 64.9796 7.29905C65.3293 6.59234 66.5271 6.42585 67.0398 7.34816C67.9429 8.97238 69.4258 13.9684 67.3261 18.2541C64.9305 23.1448 61.2868 25.7404 53.1022 26.7885C44.9176 27.8366 34.3865 26.5885 29.5953 19.7011V19.7011Z" fill="#77B255"/>
<path id="Vector_4" d="M49.6094 9.24547C49.6094 11.768 47.4414 13.8115 44.7679 13.8115C42.0944 13.8115 39.9264 11.7668 39.9264 9.24547C39.9264 6.72409 42.0944 4.67944 44.7679 4.67944C47.4414 4.67825 49.6094 6.72409 49.6094 9.24547Z" fill="#5C913B"/>
<path id="Vector_5" d="M48.4116 9.24543C48.4116 11.1439 46.7802 12.6819 44.7679 12.6819C42.7556 12.6819 41.1241 11.1428 41.1241 9.24543C41.1241 7.34691 42.7556 5.80774 44.7679 5.80774C46.7802 5.80894 48.4116 7.34811 48.4116 9.24543Z" fill="#C6E5B3"/>
<path id="Vector_6" d="M36.1342 16.8563C37.6504 16.8563 38.8795 15.7837 38.8795 14.4607C38.8795 13.1376 37.6504 12.0651 36.1342 12.0651C34.6179 12.0651 33.3888 13.1376 33.3888 14.4607C33.3888 15.7837 34.6179 16.8563 36.1342 16.8563Z" fill="#292F33"/>
<path id="Vector_7" d="M47.342 15.2776C48.8596 18.138 44.8218 16.4167 41.8153 18.0134C38.8076 19.61 37.9716 23.9173 36.4527 21.057C34.9339 18.1966 36.1413 14.5841 39.1478 12.9874C42.1555 11.3919 45.8243 12.4172 47.342 15.2776V15.2776Z" fill="#DD2E44"/>
<path id="Vector_8" d="M55.299 14.4606C56.8152 14.4606 58.0443 13.3881 58.0443 12.065C58.0443 10.742 56.8152 9.66943 55.299 9.66943C53.7827 9.66943 52.5536 10.742 52.5536 12.065C52.5536 13.3881 53.7827 14.4606 55.299 14.4606Z" fill="#292F33"/>
<path id="Vector_9" d="M61.228 21.2031C59.3547 22.9759 59.817 19.5118 57.9532 17.5427C56.0871 15.5735 52.6039 15.8478 54.476 14.0738C56.3482 12.2999 59.3798 12.458 61.2436 14.426C63.1086 16.394 63.1014 19.4292 61.228 21.2031Z" fill="#9266CC"/>
<path id="Vector_10" d="M60.0302 22.4009C58.1568 24.1736 58.6191 20.7096 56.7554 18.7392C54.8892 16.7712 51.406 17.0443 53.2781 15.2703C55.1503 13.4964 58.1819 13.6545 60.0457 15.6225C61.9107 17.5917 61.9035 20.6269 60.0302 22.4009Z" fill="#E1E8ED"/>
<path id="Vector_11" d="M55.1145 20.9623C56.05 23.4322 52.9608 21.6271 50.364 22.6117C47.7696 23.5951 46.6508 26.9932 45.7153 24.5246C44.7798 22.0571 46.1262 19.2566 48.7206 18.2732C51.3162 17.2898 54.1778 18.4948 55.1145 20.9623Z" fill="#DD2E44"/>
<path id="Vector_12" d="M37.0815 19.9514C36.8815 18.1044 40.4749 9.86835 46.864 17.0564C45.3667 17.3055 41.723 17.3055 40.076 19.6017C38.429 21.8979 36.9318 19.8508 37.0815 19.9514" fill="#EA596E"/>
<path id="Vector_13" d="M32.2412 20.7C31.3692 19.537 34.3373 16.8563 36.5832 19.1513C37.5319 18.0038 42.2225 15.7088 43.9701 20.7C44.769 19.8017 51.3066 19.6017 51.406 25.1415C51.4551 25.8901 43.8658 25.7476 39.9766 24.842C37.8301 24.3426 33.8882 22.8956 32.2412 20.7V20.7ZM57.4944 23.9928C56.0966 24.3701 58.4443 17.8541 62.8354 18.9524C62.9852 17.7546 63.9326 13.8115 66.678 14.511C66.7774 15.6585 66.7271 21.4966 57.4944 23.9928Z" fill="#A6D388"/>
</g>
<g id="Emoji_2">
<path id="Vector_14" d="M24.2388 4.88428C21.8673 3.64842 19.5306 3.15295 17.5483 3.67762C11.0349 5.4015 6.59853 18.4841 9.47595 29.3559C9.77476 30.4849 10.1494 31.5306 10.5652 32.5258C14.1491 41.1093 21.7419 44.6952 27.9682 43.0473C34.9157 41.2085 40.1438 32.8726 37.2663 22.0007C35.2648 14.4383 29.6595 7.70694 24.2388 4.88428V4.88428Z" fill="#F7DECE"/>
<path id="Vector_15" d="M24.2387 4.88431C28.6845 8.06787 32.9172 13.7611 34.5828 20.0545C37.3438 30.4863 32.426 38.4589 25.8582 40.1972C20.6 41.5888 14.2899 38.9731 10.5637 32.525C14.149 41.1093 21.7419 44.6952 27.9681 43.0474C34.9157 41.2086 40.1437 32.8726 37.2663 22.0008C35.2647 14.4383 29.6595 7.70697 24.2387 4.88431V4.88431Z" fill="#E0AA94"/>
</g>
<g id="Emoji_3">
<path id="Vector_16" d="M77.1519 12.6795L70.152 5.67958C71.1665 4.46141 71.1162 2.65512 69.9723 1.51242C68.7613 0.301442 66.7981 0.301442 65.5859 1.51242C64.8421 2.25626 64.5606 3.28277 64.7295 4.24581C63.7665 4.07692 62.74 4.3584 61.9961 5.10223C60.7851 6.31321 60.7851 8.27761 61.9961 9.48859C63.1388 10.6325 64.9451 10.6816 66.1633 9.66826L73.1632 16.6682L77.1519 12.6795V12.6795ZM91.4273 26.9561L98.4285 33.9561C99.6466 32.9428 101.452 32.9919 102.596 34.1358C103.808 35.3467 103.808 37.3099 102.596 38.5209C101.852 39.2648 100.824 39.5462 99.8622 39.3785C100.032 40.3416 99.7485 41.3681 99.0046 42.1107C97.7936 43.3229 95.8304 43.3229 94.6195 42.1107C93.4756 40.968 93.4265 39.1617 94.441 37.9436L87.4398 30.9436L91.4273 26.9561V26.9561Z" fill="#FFD983"/>
<path id="Vector_17" d="M96.3215 19.2806C94.3667 17.3246 91.395 17.4324 88.8544 14.8907C86.3139 12.3501 86.4205 9.37837 84.4645 7.42236C80.2542 3.21209 76.0583 5.66518 70.9137 10.8109C65.768 15.9567 63.3161 20.1526 67.5252 24.3617C69.4812 26.3177 72.4529 26.2111 74.9935 28.7516C77.5352 31.2922 77.4274 34.2651 79.3834 36.2187C83.5937 40.429 87.7896 37.9771 92.9353 32.8313C98.0811 27.6856 100.531 23.4909 96.3215 19.2806V19.2806Z" fill="#C1694F"/>
<path id="Vector_18" d="M77.1316 27.8102C77.007 27.8102 76.8789 27.7898 76.7531 27.7479C76.1255 27.5395 75.7865 26.8615 75.9961 26.2327C77.3245 22.2464 82.3504 17.2216 86.3355 15.8932C86.968 15.6824 87.6411 16.0226 87.8507 16.6502C88.0604 17.2779 87.7214 17.9558 87.0937 18.1655C83.8764 19.2375 79.3404 23.7736 78.2683 26.9909C78.1006 27.4927 77.6335 27.8102 77.1316 27.8102V27.8102Z" fill="#662113"/>
</g>
<g id="Emoji_4">
<path id="Vector_19" d="M88.6374 34.1426C77.8572 34.1426 68.2748 38.2882 68.2748 44.9229C68.2748 49.8985 73.066 54.0441 80.2528 54.0441C84.39 54.0441 88.7704 51.5467 91.9038 51.5467C92.0152 51.5467 92.1242 51.5503 92.2308 51.5563C96.913 51.8378 97.022 55.7031 103.011 55.7031C105.815 55.7031 109 53.2152 109 47.4107C109 39.9472 100.615 34.1426 88.6374 34.1426Z" fill="#FFD983"/>
<path id="Vector_20" d="M106.604 42.5273H109V47.3185H106.604V42.5273ZM68.2748 40.1317H70.6704V44.9229H68.2748V40.1317Z" fill="#FFD983"/>
<path id="Vector_21" d="M103.011 50.083C100.291 50.083 99.0798 49.1787 97.6748 48.133C96.3944 47.1784 94.9426 46.098 92.335 45.9398C92.1925 45.9315 92.0499 45.9267 91.9038 45.9267C90.1873 45.9267 88.3367 46.5052 86.3783 47.1197C84.3277 47.7605 82.2076 48.4241 80.254 48.4241C74.0074 48.4241 69.4738 44.9361 69.4738 40.1317C69.4738 33.6684 79.3484 30.1804 88.6386 30.1804C99.7434 30.1804 107.803 35.4112 107.803 42.6195C107.802 48.0947 104.936 50.083 103.011 50.083Z" fill="#A0041E"/>
<path id="Vector_22" d="M88.6374 31.0104C99.0475 31.0104 106.604 35.8926 106.604 42.6195C106.604 47.5832 104.137 49.2529 103.011 49.2529C100.814 49.2529 99.9147 48.5834 98.5516 47.5676C97.1945 46.5567 95.5056 45.2978 92.438 45.1133C92.2632 45.1025 92.0847 45.0966 91.9038 45.0966C89.9298 45.0966 87.9643 45.7122 85.8849 46.3626C83.9492 46.9687 81.9489 47.594 80.2528 47.594C75.4903 47.594 70.6704 45.0295 70.6704 40.1317C70.6704 34.2073 79.9282 31.0104 88.6374 31.0104V31.0104ZM88.6374 29.3514C77.8572 29.3514 68.2748 33.497 68.2748 40.1317C68.2748 45.1073 73.066 49.2529 80.2528 49.2529C84.39 49.2529 88.7704 46.7555 91.9038 46.7555C92.0152 46.7555 92.1242 46.7591 92.2308 46.7651C96.913 47.0466 97.022 50.9119 103.011 50.9119C105.815 50.9119 109 48.424 109 42.6195C109 35.156 100.615 29.3514 88.6374 29.3514Z" fill="#FFE8B6"/>
<path id="Vector_23" d="M86.4346 31.0799C86.4346 31.0799 89.8351 31.0104 92.2307 32.6682C93.4285 33.4971 92.632 35.3632 92.632 35.3632L94.6263 35.9861C94.6263 35.9861 94.5521 34.9859 98.2197 34.3271C100.916 33.8432 103.66 35.9861 103.66 35.9861C103.66 35.9861 100.615 31.8393 94.6263 31.0104C88.6373 30.1803 86.4346 31.0799 86.4346 31.0799Z" fill="#FFE8B6"/>
<path id="Vector_24" d="M97.022 37.6438C97.022 39.4752 94.8767 40.9605 92.2308 40.9605C89.5848 40.9605 87.4396 39.4752 87.4396 37.6438C87.4396 35.8124 89.5848 34.3271 92.2308 34.3271C94.8767 34.3271 97.022 35.8124 97.022 37.6438Z" fill="#E6E7E8"/>
<path id="Vector_25" d="M94.6264 37.6438C94.6264 38.5602 93.5532 39.3028 92.2308 39.3028C90.9084 39.3028 89.8352 38.5602 89.8352 37.6438C89.8352 36.7275 90.9084 35.9861 92.2308 35.9861C93.5532 35.9861 94.6264 36.7275 94.6264 37.6438Z" fill="#A7A9AC"/>
</g>
<g id="Emoji_5">
<path id="Vector_26" d="M16.064 37.8334L9.06407 30.8334C10.0786 29.6153 10.0283 27.809 8.8844 26.6663C7.67342 25.4553 5.71022 25.4553 4.49805 26.6663C3.75421 27.4101 3.47273 28.4366 3.64162 29.3997C2.67859 29.2308 1.65207 29.5123 0.908234 30.2561C-0.302745 31.4671 -0.302745 33.4315 0.908234 34.6425C2.05094 35.7864 3.85722 35.8355 5.07539 34.8221L12.0753 41.8221L16.064 37.8334V37.8334Z" fill="#FFD983"/>
<path id="Vector_27" d="M38.7469 64.5061C40.7412 62.5117 45.7828 53.9534 38.802 46.975C33.9401 42.1143 30.0245 42.3922 22.7323 40.5848C19.7414 39.5882 15.8437 35.9948 14.8459 34.997C13.8482 35.9948 14.1967 39.6361 14.1967 39.6361C14.1967 39.6361 9.8547 39.9883 8.85693 40.986C9.8547 41.9838 14.4854 46.363 15.2951 48.4208C17.4763 55.3369 17.2272 58.8548 22.0879 63.7167C30.0652 71.6929 36.7537 66.4992 38.7469 64.5061Z" fill="#C1694F"/>
</g>
<g id="Emoji_6">
<path id="Vector_28" d="M83.8145 54.6561C80.5081 61.7036 64.712 70.2619 52.0775 67.245C39.4446 64.23 32.2215 52.3844 38.7421 41.8066C42.7691 35.2735 50.3852 35.4416 63.018 38.4584C75.6517 41.4744 87.0746 47.7081 83.8145 54.6561Z" fill="#3E721D"/>
<path id="Vector_29" d="M54.4415 58.6156C45.1218 56.6558 37.402 49.5056 38.7756 42.9804C40.1468 36.456 50.0921 33.0219 59.4134 34.9834C68.7314 36.9432 85.9756 46.0942 84.6045 52.6186C83.2299 59.1463 63.7612 60.5754 54.4415 58.6156Z" fill="#3E721D"/>
<path id="Vector_30" d="M53.3151 58.3762C45.0891 56.6472 39.5481 49.1559 40.7602 43.3978C41.9732 37.6405 50.8951 34.6446 59.1194 36.3752C67.342 38.1041 83.8279 46.4456 82.6183 52.2046C81.4062 57.9611 64.5468 61.2705 53.3151 58.3762" fill="#A6D388"/>
<path id="Vector_31" d="M54.2778 54.7636C47.8402 53.4095 43.3925 48.6589 44.341 44.1536C45.287 39.6457 51.272 37.0906 57.7096 38.4446C64.149 39.7987 77.0206 46.319 76.0745 50.827C75.1277 55.334 60.7171 56.1194 54.2778 54.7636Z" fill="#C6E5B3"/>
<path id="Vector_32" d="M58.5058 39.2629C63.3964 40.385 65.8687 44.4761 65.6792 48.6276C65.5668 51.09 60.2616 52.277 55.3718 51.1558C50.4845 50.0338 47.4574 45.8248 47.972 44.5678C49.5444 40.7205 53.6184 38.1426 58.5058 39.2629V39.2629Z" fill="#662113"/>
<path id="Vector_33" d="M59.5334 41.4356C61.6565 41.9216 63.0499 43.7419 62.6488 45.5006C62.2443 47.2576 60.1969 48.2907 58.073 47.8039C55.9525 47.3155 54.5582 45.496 54.9602 43.7381C55.3639 41.9786 57.4112 40.9488 59.5334 41.4356V41.4356Z" fill="#7C3225"/>
</g>
</g>
</svg>
