<svg
  width="24"
  height="24"
  viewBox="0 0 24 24"
  fill="none"
  xmlns="http://www.w3.org/2000/svg"
>
  <mask
    id="mask0"
    style="mask-type: alpha"
    maskUnits="userSpaceOnUse"
    x="2"
    y="6"
    width="20"
    height="17"
  >
    <path
      fill-rule="evenodd"
      clip-rule="evenodd"
      d="M2 6.5401H21.5859V22.7217H2V6.5401Z"
      fill="white"
    />
  </mask>
  <g mask="url(#mask0)">
    <path
      fill-rule="evenodd"
      clip-rule="evenodd"
      d="M6.71553 8.0401C6.27453 8.0401 4.80053 8.2181 4.37753 10.5021L3.60553 16.5021C3.35453 18.1851 3.54853 19.4031 4.18353 20.1401C4.81053 20.8681 5.93253 21.2221 7.61253 21.2221H15.9605C17.0085 21.2221 18.4395 21.0131 19.3035 20.0151C19.9895 19.2241 20.2255 18.0461 20.0055 16.5131L19.2265 10.4611C18.8945 8.9701 18.0185 8.0401 16.8945 8.0401H6.71553ZM15.9605 22.7221H7.61253C5.46953 22.7221 3.97653 22.1971 3.04753 21.1181C2.11453 20.0361 1.80253 18.4131 2.12053 16.2951L2.89653 10.2691C3.40653 7.5061 5.27153 6.5401 6.71553 6.5401H16.8945C18.3445 6.5401 20.1075 7.5031 20.7025 10.2041L21.4915 16.3111C21.7745 18.2821 21.4205 19.8631 20.4375 20.9971C19.4595 22.1251 17.9115 22.7221 15.9605 22.7221Z"
      fill="#7D7D7D"
    />
  </g>
  <path
    fill-rule="evenodd"
    clip-rule="evenodd"
    d="M16.098 7.82031C15.684 7.82031 15.348 7.48431 15.348 7.07031C15.348 5.10131 13.746 3.50031 11.778 3.50031H11.763C10.822 3.50031 9.90496 3.87931 9.23996 4.54031C8.57196 5.20531 8.18896 6.12831 8.18896 7.07031C8.18896 7.48431 7.85296 7.82031 7.43896 7.82031C7.02496 7.82031 6.68896 7.48431 6.68896 7.07031C6.68896 5.73131 7.23296 4.42231 8.18096 3.47731C9.12596 2.53831 10.429 2.00031 11.76 2.00031H11.781C14.574 2.00031 16.848 4.27431 16.848 7.07031C16.848 7.48431 16.512 7.82031 16.098 7.82031Z"
    fill="#7D7D7D"
  />
  <path
    fill-rule="evenodd"
    clip-rule="evenodd"
    d="M14.7433 12.3242H14.6973C14.2833 12.3242 13.9473 11.9882 13.9473 11.5742C13.9473 11.1602 14.2833 10.8242 14.6973 10.8242C15.1113 10.8242 15.4703 11.1602 15.4703 11.5742C15.4703 11.9882 15.1573 12.3242 14.7433 12.3242Z"
    fill="#7D7D7D"
  />
  <path
    fill-rule="evenodd"
    clip-rule="evenodd"
    d="M8.91219 12.3242H8.86719C8.45319 12.3242 8.11719 11.9882 8.11719 11.5742C8.11719 11.1602 8.45319 10.8242 8.86719 10.8242C9.28119 10.8242 9.64019 11.1602 9.64019 11.5742C9.64019 11.9882 9.32619 12.3242 8.91219 12.3242Z"
    fill="#7D7D7D"
  />
</svg>
