<svg
  width="24"
  height="24"
  viewBox="0 0 24 24"
  fill="none"
  xmlns="http://www.w3.org/2000/svg"
>
  <mask
    id="mask0"
    style="mask-type: alpha"
    maskUnits="userSpaceOnUse"
    x="2"
    y="2"
    width="21"
    height="21"
  >
    <path
      fill-rule="evenodd"
      clip-rule="evenodd"
      d="M2.00012 2.00024H22.0029V22.0012H2.00012V2.00024Z"
      fill="white"
    />
  </mask>
  <g mask="url(#mask0)">
    <path
      fill-rule="evenodd"
      clip-rule="evenodd"
      d="M10.9448 20.0755C11.5348 20.6515 12.4848 20.6445 13.0708 20.0555L13.7928 19.3355C14.3528 18.7765 15.1268 18.4575 15.9158 18.4575H16.9458C17.7798 18.4575 18.4578 17.7795 18.4578 16.9465V15.9175C18.4578 15.1165 18.7678 14.3635 19.3338 13.7965L20.0538 13.0755C20.3468 12.7815 20.5038 12.4005 20.5028 11.9965C20.5018 11.5935 20.3428 11.2145 20.0558 10.9285L19.3348 10.2065C18.7678 9.63551 18.4578 8.88351 18.4578 8.08251V7.05551C18.4578 6.22151 17.7798 5.54351 16.9458 5.54351H15.9178C15.1168 5.54351 14.3638 5.23251 13.7968 4.66951L13.0748 3.94651C12.4738 3.35151 11.5148 3.35451 10.9278 3.94551L10.2088 4.66651C9.63484 5.23351 8.88184 5.54351 8.08384 5.54351H7.05484C6.22184 5.54451 5.54384 6.22251 5.54384 7.05551V8.08051C5.54384 8.88151 5.23284 9.63451 4.66884 10.2025L3.95884 10.9135C3.95184 10.9215 3.94484 10.9275 3.93784 10.9345C3.35084 11.5255 3.35384 12.4845 3.94484 13.0715L4.66684 13.7935C5.23284 14.3615 5.54384 15.1145 5.54384 15.9155V16.9465C5.54384 17.7795 6.22084 18.4575 7.05484 18.4575H8.08184C8.88384 18.4585 9.63684 18.7695 10.2038 19.3345L10.9248 20.0535C10.9308 20.0605 10.9378 20.0675 10.9448 20.0755ZM11.9988 22.0015C11.2318 22.0015 10.4648 21.7115 9.87784 21.1295C9.86984 21.1215 9.86184 21.1135 9.85384 21.1045L9.14384 20.3955C8.86084 20.1145 8.48284 19.9585 8.08084 19.9575H7.05484C5.39384 19.9575 4.04384 18.6065 4.04384 16.9465V15.9155C4.04384 15.5135 3.88684 15.1365 3.60484 14.8525L2.88584 14.1345C1.71784 12.9725 1.70384 11.0805 2.85084 9.90051C2.85984 9.89151 2.86884 9.88251 2.87784 9.87351L3.60584 9.14351C3.88684 8.86051 4.04384 8.48151 4.04384 8.08051V7.05551C4.04384 5.39551 5.39384 4.04451 7.05384 4.04351H8.08384C8.48484 4.04351 8.86284 3.88651 9.14984 3.60351L9.86484 2.88651C11.0338 1.70951 12.9448 1.70351 14.1238 2.87551L14.8548 3.60651C15.1378 3.88751 15.5158 4.04351 15.9178 4.04351H16.9458C18.6068 4.04351 19.9578 5.39451 19.9578 7.05551V8.08251C19.9578 8.48351 20.1138 8.86251 20.3968 9.14751L21.1148 9.86651C21.6838 10.4315 21.9998 11.1865 22.0028 11.9915C22.0058 12.7965 21.6948 13.5535 21.1278 14.1245L20.3948 14.8555C20.1138 15.1385 19.9578 15.5155 19.9578 15.9175V16.9465C19.9578 18.6065 18.6068 19.9575 16.9468 19.9575H15.9158C15.5198 19.9575 15.1328 20.1175 14.8518 20.3965L14.1338 21.1145C13.5468 21.7055 12.7728 22.0015 11.9988 22.0015Z"
      fill="black"
    />
  </g>
  <path
    fill-rule="evenodd"
    clip-rule="evenodd"
    d="M9.43029 15.3215C9.23829 15.3215 9.04629 15.2485 8.90029 15.1015C8.60729 14.8085 8.60729 14.3345 8.90029 14.0415L14.0403 8.90054C14.3333 8.60754 14.8083 8.60754 15.1013 8.90054C15.3943 9.19354 15.3943 9.66854 15.1013 9.96154L9.96029 15.1015C9.81429 15.2485 9.62229 15.3215 9.43029 15.3215Z"
    fill="black"
  />
  <path
    fill-rule="evenodd"
    clip-rule="evenodd"
    d="M14.5034 15.4993C13.9504 15.4993 13.4984 15.0523 13.4984 14.4993C13.4984 13.9463 13.9414 13.4993 14.4944 13.4993H14.5034C15.0564 13.4993 15.5034 13.9463 15.5034 14.4993C15.5034 15.0523 15.0564 15.4993 14.5034 15.4993Z"
    fill="black"
  />
  <path
    fill-rule="evenodd"
    clip-rule="evenodd"
    d="M9.50341 10.4993C8.95041 10.4993 8.49841 10.0523 8.49841 9.49927C8.49841 8.94627 8.94141 8.49927 9.49441 8.49927H9.50341C10.0564 8.49927 10.5034 8.94627 10.5034 9.49927C10.5034 10.0523 10.0564 10.4993 9.50341 10.4993Z"
    fill="black"
  />
</svg>
