<svg
  width="24"
  height="24"
  viewBox="0 0 24 24"
  fill="none"
  xmlns="http://www.w3.org/2000/svg"
>
  <path
    fill-rule="evenodd"
    clip-rule="evenodd"
    d="M20.7508 21.9397H13.4978C13.0838 21.9397 12.7478 21.6037 12.7478 21.1897C12.7478 20.7757 13.0838 20.4397 13.4978 20.4397H20.7508C21.1648 20.4397 21.5008 20.7757 21.5008 21.1897C21.5008 21.6037 21.1648 21.9397 20.7508 21.9397Z"
    fill="black"
  />
  <mask
    id="mask0"
    style="mask-type: alpha"
    maskUnits="userSpaceOnUse"
    x="2"
    y="3"
    width="18"
    height="19"
  >
    <path
      fill-rule="evenodd"
      clip-rule="evenodd"
      d="M2.00024 3.00012H19.1808V21.9397H2.00024V3.00012Z"
      fill="white"
    />
  </mask>
  <g mask="url(#mask0)">
    <path
      fill-rule="evenodd"
      clip-rule="evenodd"
      d="M13.1105 5.01676L3.69552 16.7918C3.52452 17.0058 3.46152 17.2818 3.52452 17.5468L4.20552 20.4318L7.24452 20.3938C7.53352 20.3908 7.80052 20.2618 7.97752 20.0418C11.1945 16.0168 17.3275 8.34276 17.5015 8.11776C17.6655 7.85176 17.7295 7.47576 17.6435 7.11376C17.5555 6.74276 17.3245 6.42776 16.9915 6.22676C16.9205 6.17776 15.2355 4.86976 15.1835 4.82876C14.5495 4.32076 13.6245 4.40876 13.1105 5.01676ZM3.61352 21.9398C3.26652 21.9398 2.96452 21.7018 2.88352 21.3628L2.06452 17.8918C1.89552 17.1728 2.06352 16.4308 2.52452 15.8548L11.9445 4.07276C11.9485 4.06876 11.9515 4.06376 11.9555 4.05976C12.9885 2.82476 14.8565 2.64276 16.1165 3.65376C16.1665 3.69276 17.8395 4.99276 17.8395 4.99276C18.4475 5.35476 18.9225 6.00176 19.1025 6.76776C19.2815 7.52576 19.1515 8.30777 18.7345 8.96876C18.7035 9.01776 18.6765 9.05976 9.14852 20.9798C8.68952 21.5518 8.00152 21.8848 7.26252 21.8938L3.62352 21.9398H3.61352Z"
      fill="black"
    />
  </g>
  <path
    fill-rule="evenodd"
    clip-rule="evenodd"
    d="M16.2234 11.6847C16.0634 11.6847 15.9034 11.6337 15.7664 11.5297L10.3144 7.34175C9.98642 7.08975 9.92442 6.61975 10.1764 6.28975C10.4294 5.96175 10.8994 5.90075 11.2284 6.15275L16.6814 10.3397C17.0094 10.5917 17.0714 11.0627 16.8184 11.3917C16.6714 11.5837 16.4484 11.6847 16.2234 11.6847Z"
    fill="black"
  />
</svg>
