<svg
  width="24"
  height="24"
  viewBox="0 0 24 24"
  fill="none"
  xmlns="http://www.w3.org/2000/svg"
>
  <mask
    id="mask0"
    style="mask-type: alpha"
    maskUnits="userSpaceOnUse"
    x="2"
    y="5"
    width="16"
    height="16"
  >
    <path
      fill-rule="evenodd"
      clip-rule="evenodd"
      d="M2 5.00024H17.5003V20.5016H2V5.00024Z"
      fill="white"
    />
  </mask>
  <g mask="url(#mask0)">
    <path
      fill-rule="evenodd"
      clip-rule="evenodd"
      d="M6.84711 6.50159C6.40811 6.50159 6.12511 6.50159 6.07611 6.50359C5.33811 6.53459 4.65711 6.84759 4.16611 7.38359C3.70811 7.88459 3.47211 8.52459 3.50311 9.18859C3.50311 12.0816 3.50411 16.4236 3.51111 16.6616C3.62511 18.0466 4.92311 19.1056 6.40911 18.9916C9.15911 18.9956 13.2331 19.0046 13.4241 18.9976C14.1591 18.9676 14.8411 18.6556 15.3321 18.1206C15.7911 17.6216 16.0271 16.9816 15.9981 16.3206C15.9971 16.3096 15.9971 16.2986 15.9971 16.2876C15.9981 13.4276 15.9981 9.08859 15.9911 8.85559C15.8781 7.46359 14.5741 6.39159 13.0801 6.50859C11.0141 6.50559 8.19511 6.50159 6.84711 6.50159ZM6.14611 20.5016C4.03211 20.5026 2.18811 18.8826 2.01411 16.7576C2.01111 16.7166 2.00111 16.5916 2.00411 9.22259C1.95611 8.19159 2.33011 7.16759 3.06011 6.37059C3.82211 5.53859 4.87311 5.05359 6.02011 5.00459C6.15911 4.99459 10.9671 5.00659 13.0261 5.01059C15.2761 4.85259 17.3071 6.52259 17.4881 8.76359C17.4961 8.87259 17.4991 11.3976 17.4971 16.2726C17.5391 17.3286 17.1631 18.3456 16.4371 19.1356C15.6741 19.9666 14.6221 20.4496 13.4761 20.4966C13.3361 20.5066 8.52611 20.4936 6.46411 20.4896C6.35811 20.4976 6.25211 20.5016 6.14611 20.5016Z"
      fill="#7D7D7D"
    />
  </g>
  <path
    fill-rule="evenodd"
    clip-rule="evenodd"
    d="M20.8184 18.3493C20.3674 18.3493 19.9224 18.1943 19.5554 17.8933L16.2744 15.1973C15.9544 14.9343 15.9084 14.4613 16.1714 14.1413C16.4334 13.8223 16.9064 13.7743 17.2264 14.0383L20.5064 16.7343C20.7274 16.9143 20.9494 16.8403 21.0354 16.7983C21.1214 16.7583 21.3204 16.6333 21.3204 16.3493L21.3324 9.00031C21.3334 8.71631 21.1334 8.59131 21.0474 8.55031C20.9624 8.51031 20.7374 8.43531 20.5184 8.61531L17.2254 11.3103C16.9034 11.5733 16.4324 11.5263 16.1704 11.2043C15.9074 10.8843 15.9554 10.4123 16.2754 10.1503L19.5684 7.45431C20.1724 6.95931 20.9854 6.86231 21.6904 7.19531C22.3954 7.53031 22.8334 8.22231 22.8324 9.00231L22.8204 16.3513C22.8194 17.1313 22.3804 17.8233 21.6764 18.1553C21.4004 18.2863 21.1084 18.3493 20.8184 18.3493Z"
    fill="#7D7D7D"
  />
</svg>
