<svg
  width="24"
  height="24"
  viewBox="0 0 24 24"
  fill="none"
  xmlns="http://www.w3.org/2000/svg"
>
  <path
    fill-rule="evenodd"
    clip-rule="evenodd"
    d="M15.7156 16.9737H8.49561C8.08161 16.9737 7.74561 16.6377 7.74561 16.2237C7.74561 15.8097 8.08161 15.4737 8.49561 15.4737H15.7156C16.1296 15.4737 16.4656 15.8097 16.4656 16.2237C16.4656 16.6377 16.1296 16.9737 15.7156 16.9737Z"
    fill="#7D7D7D"
  />
  <path
    fill-rule="evenodd"
    clip-rule="evenodd"
    d="M15.7156 12.7872H8.49561C8.08161 12.7872 7.74561 12.4512 7.74561 12.0372C7.74561 11.6232 8.08161 11.2872 8.49561 11.2872H15.7156C16.1296 11.2872 16.4656 11.6232 16.4656 12.0372C16.4656 12.4512 16.1296 12.7872 15.7156 12.7872Z"
    fill="#7D7D7D"
  />
  <path
    fill-rule="evenodd"
    clip-rule="evenodd"
    d="M11.2506 8.61041H8.49561C8.08161 8.61041 7.74561 8.27441 7.74561 7.86041C7.74561 7.44641 8.08161 7.11041 8.49561 7.11041H11.2506C11.6646 7.11041 12.0006 7.44641 12.0006 7.86041C12.0006 8.27441 11.6646 8.61041 11.2506 8.61041Z"
    fill="#7D7D7D"
  />
  <mask
    id="mask0"
    style="mask-type: alpha"
    maskUnits="userSpaceOnUse"
    x="3"
    y="2"
    width="19"
    height="20"
  >
    <path
      fill-rule="evenodd"
      clip-rule="evenodd"
      d="M3 2.00018H21.1647V21.91H3V2.00018Z"
      fill="white"
    />
  </mask>
  <g mask="url(#mask0)">
    <path
      fill-rule="evenodd"
      clip-rule="evenodd"
      d="M15.9085 3.5L8.21951 3.504C5.89151 3.518 4.49951 4.958 4.49951 7.357V16.553C4.49951 18.968 5.90451 20.41 8.25551 20.41L15.9445 20.407C18.2725 20.393 19.6645 18.951 19.6645 16.553V7.357C19.6645 4.942 18.2605 3.5 15.9085 3.5ZM8.25651 21.91C5.11251 21.91 2.99951 19.757 2.99951 16.553V7.357C2.99951 4.124 5.04651 2.023 8.21451 2.004L15.9075 2H15.9085C19.0525 2 21.1645 4.153 21.1645 7.357V16.553C21.1645 19.785 19.1175 21.887 15.9495 21.907L8.25651 21.91Z"
      fill="#7D7D7D"
    />
  </g>
</svg>
