<svg
  width="24"
  height="24"
  viewBox="0 0 24 24"
  fill="none"
  xmlns="http://www.w3.org/2000/svg"
>
  <mask
    id="mask0"
    style="mask-type: alpha"
    maskUnits="userSpaceOnUse"
    x="2"
    y="2"
    width="20"
    height="20"
  >
    <path
      fill-rule="evenodd"
      clip-rule="evenodd"
      d="M2.00037 2.00024H21.96V21.95H2.00037V2.00024Z"
      fill="white"
    />
  </mask>
  <g mask="url(#mask0)">
    <path
      fill-rule="evenodd"
      clip-rule="evenodd"
      d="M7.65037 3.5C5.12937 3.5 3.50037 5.227 3.50037 7.899V16.051C3.50037 18.724 5.12937 20.45 7.65037 20.45H16.3004C18.8274 20.45 20.4604 18.724 20.4604 16.051V7.899C20.4604 5.227 18.8274 3.5 16.3004 3.5H7.65037ZM16.3004 21.95H7.65037C4.27037 21.95 2.00037 19.579 2.00037 16.051V7.899C2.00037 4.371 4.27037 2 7.65037 2H16.3004C19.6854 2 21.9604 4.371 21.9604 7.899V16.051C21.9604 19.579 19.6854 21.95 16.3004 21.95Z"
      fill="black"
    />
  </g>
  <path
    fill-rule="evenodd"
    clip-rule="evenodd"
    d="M5.28138 17.1805C5.09538 17.1805 4.91038 17.1125 4.76538 16.9745C4.46438 16.6905 4.45238 16.2145 4.73738 15.9155L6.26538 14.3025C7.07438 13.4435 8.43938 13.4015 9.30238 14.2115L10.2604 15.1835C10.5274 15.4535 10.9614 15.4585 11.2294 15.1945C11.3304 15.0755 13.5084 12.4305 13.5084 12.4305C13.9224 11.9285 14.5064 11.6185 15.1554 11.5545C15.8054 11.4975 16.4364 11.6865 16.9394 12.0995C16.9824 12.1345 17.0214 12.1685 19.2174 14.4235C19.5064 14.7195 19.5014 15.1945 19.2044 15.4835C18.9084 15.7745 18.4324 15.7655 18.1434 15.4695C18.1434 15.4695 16.0944 13.3665 15.9484 13.2245C15.7934 13.0975 15.5444 13.0235 15.2994 13.0475C15.0504 13.0725 14.8264 13.1915 14.6674 13.3845C12.3434 16.2035 12.3154 16.2305 12.2774 16.2675C11.4194 17.1095 10.0344 17.0955 9.19138 16.2355C9.19138 16.2355 8.26138 15.2915 8.24538 15.2725C8.01438 15.0585 7.60238 15.0725 7.35538 15.3335L5.82538 16.9465C5.67738 17.1025 5.47938 17.1805 5.28138 17.1805Z"
    fill="black"
  />
  <path
    fill-rule="evenodd"
    clip-rule="evenodd"
    d="M8.55757 8.12891C8.00457 8.12891 7.55457 8.57891 7.55457 9.13291C7.55457 9.68691 8.00457 10.1379 8.55857 10.1379C9.11257 10.1379 9.56357 9.68691 9.56357 9.13291C9.56357 8.57991 9.11257 8.12991 8.55757 8.12891ZM8.55857 11.6379C7.17757 11.6379 6.05457 10.5139 6.05457 9.13291C6.05457 7.75191 7.17757 6.62891 8.55857 6.62891C9.94057 6.62991 11.0636 7.75391 11.0636 9.13291C11.0636 10.5139 9.93957 11.6379 8.55857 11.6379Z"
    fill="black"
  />
</svg>
