<svg width="137" height="101" viewBox="0 0 137 101" fill="none" xmlns="http://www.w3.org/2000/svg">
<g id="&#240;&#159;&#146;&#142; Logo">
<path id="Vector" d="M77 37.8451C77 47.935 82.1116 54.2463 92.3349 56.7699C87.2233 52.9822 85.3035 48.567 86.5802 43.5198C87.3118 40.6435 89.4273 38.587 91.7711 36.3062C95.5827 32.5963 100 28.3002 100 18.9202C100 8.83036 94.8884 2.52362 84.6651 0C89.7767 3.78313 91.6919 8.19832 90.4151 13.2455C89.6882 16.1218 87.5681 18.1829 85.2289 20.4591C81.4127 24.169 77 28.4651 77 37.8451ZM100 56.7699C100 66.8598 105.112 73.1665 115.335 75.6901C110.223 71.907 108.308 67.4918 109.585 62.4446C110.312 59.5637 112.432 57.5073 114.771 55.231C118.587 51.5211 123 47.225 123 37.8451C123 27.7506 117.888 21.4439 107.665 18.9202C112.777 22.708 114.697 27.1231 113.42 32.1658C112.688 35.0467 110.573 37.1031 108.229 39.384C104.417 43.0938 100 47.3899 100 56.7699Z" fill="url(#paint0_linear_55_224)"/>
<path id="Vector_2" d="M15 41.8451C15 51.935 20.1116 58.2463 30.3349 60.7699C25.2233 56.9822 23.3035 52.567 24.5802 47.5198C25.3118 44.6435 27.4273 42.587 29.7711 40.3062C33.5827 36.5963 38 32.3002 38 22.9202C38 12.8304 32.8884 6.52362 22.6651 4C27.7767 7.78313 29.6919 12.1983 28.4151 17.2455C27.6882 20.1218 25.5681 22.1829 23.2289 24.4591C19.4127 28.169 15 32.4651 15 41.8451ZM38 60.7699C38 70.8598 43.1116 77.1665 53.3349 79.6901C48.2233 75.907 46.3081 71.4918 47.5849 66.4446C48.3118 63.5637 50.4319 61.5073 52.7711 59.231C56.5873 55.5211 61 51.225 61 41.8451C61 31.7506 55.8884 25.4439 45.6651 22.9202C50.7767 26.708 52.6965 31.1231 51.4198 36.1658C50.6882 39.0467 48.5727 41.1031 46.2289 43.384C42.4173 47.0938 38 51.3899 38 60.7699Z" fill="url(#paint1_linear_55_224)"/>
<g id="salt" filter="url(#filter0_d_55_224)">
<path d="M19.0625 69.031C21.7969 69.7342 22.3437 69.9685 22.3437 71.1404C22.3437 72.6248 20.625 73.5623 18.5156 73.5623C15.4687 73.5623 14.2969 71.3748 14.2969 69.8123H2.65625C2.65625 78.2498 10.7812 82.7029 18.5156 82.7029C26.25 82.7029 35 79.2654 35 71.1404C35 68.8748 34.2187 62.6248 24.8437 60.1248L18.3594 58.3279C16.0937 57.781 15.625 56.9217 15.625 55.9842C15.625 54.4998 17.1094 53.9529 18.6719 53.9529C21.0937 53.9529 22.3437 55.0467 22.3437 57.2342H33.9844C33.9844 47.781 25.7812 44.656 18.0469 44.656C9.92187 44.656 3.20312 50.1248 3.20312 55.5154C3.20312 58.1717 3.04687 64.656 14.4531 67.781L19.0625 69.031ZM68.0035 49.4998C65.7379 46.2967 61.5973 44.656 57.9254 44.656C48.941 44.656 40.191 51.9217 40.191 63.7185C40.191 75.5935 48.941 82.7029 57.9254 82.7029C61.9098 82.7029 65.7379 81.0623 68.0035 77.8592V81.9998H80.4254V45.5935H68.0035V49.4998ZM52.8473 63.7967C52.8473 59.656 56.2848 56.2185 60.4254 56.2185C64.566 56.2185 68.0035 59.656 68.0035 63.7967C68.0035 67.9373 64.566 71.3748 60.4254 71.3748C56.2848 71.3748 52.8473 67.9373 52.8473 63.7967ZM89.8315 81.9998H102.253V26.4529H89.8315V81.9998ZM127.433 32.5467H115.167V45.5935H108.527V54.7342H115.167V81.9998H127.433V54.7342H135.089V45.5935H127.433V32.5467Z" fill="url(#paint2_linear_55_224)"/>
</g>
</g>
<defs>
<filter id="filter0_d_55_224" x="-77.3438" y="-53.5471" width="292.433" height="216.25" filterUnits="userSpaceOnUse" color-interpolation-filters="sRGB">
<feFlood flood-opacity="0" result="BackgroundImageFix"/>
<feColorMatrix in="SourceAlpha" type="matrix" values="0 0 0 0 0 0 0 0 0 0 0 0 0 0 0 0 0 0 127 0" result="hardAlpha"/>
<feOffset/>
<feGaussianBlur stdDeviation="40"/>
<feComposite in2="hardAlpha" operator="out"/>
<feColorMatrix type="matrix" values="0 0 0 0 0 0 0 0 0 0 0 0 0 0 0 0 0 0 1 0"/>
<feBlend mode="normal" in2="BackgroundImageFix" result="effect1_dropShadow_55_224"/>
<feBlend mode="normal" in="SourceGraphic" in2="effect1_dropShadow_55_224" result="shape"/>
</filter>
<linearGradient id="paint0_linear_55_224" x1="100" y1="-4.11071e-05" x2="100" y2="76" gradientUnits="userSpaceOnUse">
<stop stop-color="#D05009" stop-opacity="0.63"/>
<stop offset="0.458333" stop-color="#BD0D0D" stop-opacity="0.63"/>
<stop offset="1" stop-color="#3E2A24" stop-opacity="0.5"/>
</linearGradient>
<linearGradient id="paint1_linear_55_224" x1="38" y1="3.99996" x2="38" y2="80" gradientUnits="userSpaceOnUse">
<stop stop-color="#D05009" stop-opacity="0.63"/>
<stop offset="0.458333" stop-color="#BD0D0D" stop-opacity="0.63"/>
<stop offset="1" stop-color="#3E2A24" stop-opacity="0.5"/>
</linearGradient>
<linearGradient id="paint2_linear_55_224" x1="68.5" y1="22.9998" x2="68.5" y2="101" gradientUnits="userSpaceOnUse">
<stop stop-color="#C30D0D"/>
<stop offset="1" stop-color="#EE9F06"/>
</linearGradient>
</defs>
</svg>
