<svg
  width="102"
  height="44"
  viewBox="0 0 102 44"
  fill="none"
  xmlns="http://www.w3.org/2000/svg"
>
  <path
    d="M12.7279 33.04C14.8279 33.58 15.2479 33.76 15.2479 34.66C15.2479 35.8 13.9279 36.52 12.3079 36.52C9.96789 36.52 9.06789 34.84 9.06789 33.64H0.127891C0.127891 40.12 6.36789 43.54 12.3079 43.54C18.2479 43.54 24.9679 40.9 24.9679 34.66C24.9679 32.92 24.3679 28.12 17.1679 26.2L12.1879 24.82C10.4479 24.4 10.0879 23.74 10.0879 23.02C10.0879 21.88 11.2279 21.46 12.4279 21.46C14.2879 21.46 15.2479 22.3 15.2479 23.98H24.1879C24.1879 16.72 17.8879 14.32 11.9479 14.32C5.70789 14.32 0.547891 18.52 0.547891 22.66C0.547891 24.7 0.427891 29.68 9.18789 32.08L12.7279 33.04ZM50.3146 18.04C48.5746 15.58 45.3946 14.32 42.5746 14.32C35.6746 14.32 28.9546 19.9 28.9546 28.96C28.9546 38.08 35.6746 43.54 42.5746 43.54C45.6346 43.54 48.5746 42.28 50.3146 39.82V43H59.8546V15.04H50.3146V18.04ZM38.6746 29.02C38.6746 25.84 41.3146 23.2 44.4946 23.2C47.6746 23.2 50.3146 25.84 50.3146 29.02C50.3146 32.2 47.6746 34.84 44.4946 34.84C41.3146 34.84 38.6746 32.2 38.6746 29.02ZM67.0785 43H76.6185V0.339998H67.0785V43ZM95.9563 5.02H86.5363V15.04H81.4363V22.06H86.5363V43H95.9563V22.06H101.836V15.04H95.9563V5.02Z"
    fill="black"
  />
</svg>
