<svg
  width="24"
  height="24"
  viewBox="0 0 24 24"
  fill="none"
  xmlns="http://www.w3.org/2000/svg"
>
  <path
    fill-rule="evenodd"
    clip-rule="evenodd"
    d="M7.19382 4.83152C7.59577 4.10099 8.03303 3.61265 8.68188 3.35439C9.87089 2.88161 14.1293 2.88161 15.3174 3.35448C15.9659 3.6126 16.4033 4.10086 16.8055 4.83124L17.2578 5.69839C17.2681 5.71557 17.2776 5.73068 17.2862 5.74368L17.3246 5.79619C17.5306 6.02069 17.8754 6.15632 18.103 6.15632C20.255 6.15632 22 7.90091 22 10.0523V15.8473C22 18.5915 19.7742 20.8173 17.03 20.8173H6.97C4.2251 20.8173 2 18.5918 2 15.8473V10.0523C2 7.90091 3.74498 6.15632 5.897 6.15632C6.12377 6.15632 6.46908 6.02049 6.67544 5.79619C6.67956 5.7917 6.68494 5.78501 6.69145 5.77615L6.74287 5.69727L7.19382 4.83152ZM15.4917 5.5549C15.2417 5.10106 15.0158 4.84891 14.7626 4.74815L14.6433 4.70848C13.6142 4.4176 10.0344 4.43082 9.23635 4.74815C8.98334 4.84886 8.75768 5.10087 8.50802 5.55462L8.12316 6.29872L8.02843 6.47015C7.94936 6.60168 7.87026 6.7127 7.77995 6.81111C7.27349 7.36161 6.52425 7.65632 5.897 7.65632L5.7329 7.66185C4.48575 7.74618 3.5 8.78453 3.5 10.0523V15.8473C3.5 17.7635 5.05359 19.3173 6.97 19.3173H17.03C18.9458 19.3173 20.5 17.7631 20.5 15.8473V10.0523C20.5 8.72941 19.4267 7.65632 18.103 7.65632L17.9289 7.64904C17.3403 7.60061 16.6793 7.31148 16.2194 6.81044C16.1303 6.71334 16.0517 6.6031 15.9731 6.47269C15.9618 6.45398 15.9478 6.42935 15.9317 6.4002L15.8156 6.18246L15.4917 5.5549Z"
    fill="black"
  />
  <path
    d="M17.5041 8.5C18.0564 8.5 18.5041 8.94772 18.5041 9.5C18.5041 10.0128 18.1181 10.4355 17.6207 10.4933L17.5041 10.5C16.9428 10.5 16.4951 10.0523 16.4951 9.5C16.4951 8.98716 16.8812 8.56449 17.3785 8.50673L17.5041 8.5Z"
    fill="black"
  />
  <path
    fill-rule="evenodd"
    clip-rule="evenodd"
    d="M8.0708 13.128C8.0708 10.9578 9.82959 9.19904 11.9998 9.19904C14.17 9.19904 15.9288 10.9578 15.9288 13.128C15.9288 15.2982 14.17 17.057 11.9998 17.057C9.82959 17.057 8.0708 15.2982 8.0708 13.128ZM14.4288 13.128C14.4288 11.7862 13.3416 10.699 11.9998 10.699C10.658 10.699 9.5708 11.7862 9.5708 13.128C9.5708 14.4698 10.658 15.557 11.9998 15.557C13.3416 15.557 14.4288 14.4698 14.4288 13.128Z"
    fill="black"
  />
</svg>
