<svg width="24" height="24" viewBox="0 0 24 24" fill="none" xmlns="http://www.w3.org/2000/svg">
<g id="Buy">
<g id="Iconly/Light-Outline/Buy">
<g id="Buy_2">
<path id="Combined-Shape" fill-rule="evenodd" clip-rule="evenodd" d="M7.54339 19.9518C8.25739 19.9518 8.83839 20.5318 8.83839 21.2458C8.83839 21.9598 8.25739 22.5408 7.54339 22.5408C6.82939 22.5408 6.24939 21.9598 6.24939 21.2458C6.24939 20.5318 6.82939 19.9518 7.54339 19.9518ZM18.8237 19.9518C19.5387 19.9518 20.1197 20.5318 20.1197 21.2458C20.1197 21.9598 19.5387 22.5408 18.8237 22.5408C18.1097 22.5408 17.5297 21.9598 17.5297 21.2458C17.5297 20.5318 18.1097 19.9518 18.8237 19.9518ZM3.26759 3.0094L5.34759 3.3694C5.68259 3.4284 5.93759 3.7064 5.96659 4.0464L6.20159 6.8474L7.07544 6.84777C7.21804 6.84784 7.35912 6.8479 7.49871 6.84796L9.10302 6.84872C9.2309 6.84879 9.35735 6.84885 9.48238 6.84892L11.2538 6.84989C11.3651 6.84995 11.475 6.85002 11.5836 6.85008L12.825 6.85088C12.9233 6.85094 13.0204 6.85101 13.1163 6.85108L14.2081 6.85188C14.2943 6.85195 14.3793 6.85202 14.4632 6.85208L15.4151 6.8529C15.49 6.85297 15.5638 6.85304 15.6365 6.85311L16.2621 6.85373C16.3285 6.8538 16.3939 6.85387 16.4582 6.85394L17.1828 6.85478C17.2393 6.85485 17.2949 6.85492 17.3495 6.85499L17.9613 6.85585C18.0087 6.85592 18.0552 6.85599 18.1009 6.85606L18.4898 6.85671C18.5305 6.85678 18.5704 6.85685 18.6096 6.85693L19.0427 6.8578C19.0758 6.85788 19.1082 6.85795 19.1399 6.85803L19.4065 6.85869C19.4341 6.85877 19.461 6.85884 19.4873 6.85892L19.773 6.85982C19.7945 6.85989 19.8153 6.85997 19.8356 6.86004L20.0034 6.86073C20.0204 6.86081 20.037 6.86088 20.053 6.86096L20.2227 6.86188C20.2351 6.86196 20.247 6.86204 20.2584 6.86212L20.3509 6.86282C20.3601 6.8629 20.3688 6.86297 20.3772 6.86305L20.4438 6.86376C20.4503 6.86384 20.4564 6.86392 20.4623 6.864L20.5076 6.86472C20.5118 6.8648 20.5159 6.86488 20.5197 6.86496L20.5483 6.86569C20.5509 6.86577 20.5534 6.86585 20.5557 6.86593L20.5764 6.86691C20.5777 6.86699 20.5789 6.86707 20.58 6.86715C20.5897 6.86806 20.5912 6.86823 20.5926 6.8684C21.1496 6.9494 21.6396 7.2404 21.9736 7.6884C22.3076 8.1354 22.4476 8.6864 22.3676 9.2384L21.4186 15.7964C21.2396 17.0444 20.1556 17.9854 18.8956 17.9854H7.97459C6.65759 17.9854 5.54259 16.9574 5.43559 15.6424L4.51959 4.7484L3.01259 4.4884C2.60359 4.4164 2.33059 4.0294 2.40059 3.6204C2.47259 3.2114 2.86759 2.9454 3.26759 3.0094ZM6.87483 8.34774L6.32759 8.3474L6.93059 15.5194C6.97459 16.0714 7.42559 16.4854 7.97659 16.4854H18.8936C19.4146 16.4854 19.8596 16.0974 19.9336 15.5824L20.8836 9.0234C20.9056 8.8674 20.8666 8.7114 20.7716 8.5854C20.6776 8.4584 20.5396 8.3764 20.3836 8.3544C20.3764 8.35467 20.3591 8.35492 20.3323 8.35515L20.2235 8.35578C20.2008 8.35587 20.1757 8.35596 20.1485 8.35604L19.582 8.3569C19.5342 8.35693 19.4845 8.35696 19.433 8.35699L18.101 8.35693C18.0267 8.3569 17.9509 8.35687 17.8739 8.35684L16.3538 8.35592C16.2627 8.35585 16.1706 8.35578 16.0776 8.35571L15.2175 8.35502C15.1195 8.35494 15.0208 8.35486 14.9214 8.35477L14.0103 8.35397C13.9074 8.35388 13.8041 8.35378 13.7002 8.35369L13.0727 8.35311C12.9674 8.35301 12.8617 8.35292 12.7559 8.35282L11.7982 8.35192C11.6914 8.35182 11.5846 8.35172 11.4777 8.35162L10.8371 8.35103C10.7304 8.35093 10.6239 8.35083 10.5176 8.35073L9.88243 8.35016C9.77709 8.35006 9.67205 8.34997 9.56738 8.34988L8.63687 8.34908C8.53495 8.34899 8.43357 8.34891 8.33281 8.34882L7.15688 8.34793C7.06199 8.34786 6.96795 8.3478 6.87483 8.34774ZM17.2875 10.5437C17.7015 10.5437 18.0375 10.8797 18.0375 11.2937C18.0375 11.7077 17.7015 12.0437 17.2875 12.0437H14.5155C14.1005 12.0437 13.7655 11.7077 13.7655 11.2937C13.7655 10.8797 14.1005 10.5437 14.5155 10.5437H17.2875Z" fill="#B8B8B8"/>
</g>
</g>
</g>
</svg>
